{"glyphs":{"0":{"ha":869,"x_min":0,"x_max":0,"o":"m 435 -14 b 85 472 213 -14 85 168 b 435 958 85 776 213 958 b 785 472 657 958 785 776 b 435 -14 785 168 657 -14 m 435 150 b 603 472 542 150 603 265 b 435 794 603 678 542 794 b 267 472 328 794 267 678 b 435 150 267 265 328 150 "},"1":{"ha":496,"x_min":0,"x_max":0,"o":"m 196 692 l 74 665 b 46 683 61 663 47 671 l 38 751 b 44 776 36 763 39 771 l 244 944 l 342 944 b 367 918 356 944 367 932 l 367 26 b 342 0 367 13 356 0 l 222 0 b 196 26 207 0 196 13 "},"2":{"ha":719,"x_min":0,"x_max":0,"o":"m 43 58 b 403 521 135 169 310 397 b 474 675 446 574 474 628 b 326 801 474 738 426 801 b 171 719 260 801 203 754 b 133 719 160 708 144 708 l 67 786 b 65 822 58 794 56 811 b 339 958 65 822 174 958 b 649 682 538 958 649 832 b 556 457 649 592 610 535 b 317 149 496 372 390 242 l 617 149 b 643 122 631 149 643 136 l 643 26 b 617 0 643 13 631 0 l 69 0 b 43 26 54 0 43 13 "},"3":{"ha":725,"x_min":0,"x_max":0,"o":"m 50 110 b 51 144 42 119 43 135 l 122 213 b 158 213 135 224 147 224 b 329 138 163 207 244 138 b 476 268 404 138 476 192 b 285 406 476 340 410 406 l 207 406 b 181 433 192 406 181 417 l 181 521 b 207 549 181 539 190 549 l 285 549 b 457 676 399 549 457 606 b 322 804 457 753 393 804 b 182 738 250 804 206 765 b 144 736 172 726 157 725 l 76 800 b 76 836 65 810 67 826 b 338 958 76 836 182 958 b 633 704 499 958 633 860 b 490 488 633 597 553 517 l 490 483 b 658 257 556 456 658 381 b 339 -14 658 100 531 -14 b 50 110 165 -14 81 74 "},"4":{"ha":829,"x_min":0,"x_max":0,"o":"m 49 201 b 22 228 33 201 22 214 l 22 343 l 522 951 b 543 960 526 956 533 960 l 618 960 b 644 933 632 960 644 949 l 644 342 l 756 342 b 782 317 771 342 782 331 l 782 231 b 756 204 782 217 771 204 l 644 204 l 646 26 b 619 0 646 13 633 0 l 504 0 b 478 26 490 0 478 13 l 478 201 l 49 201 m 483 346 l 483 679 l 206 346 "},"5":{"ha":733,"x_min":0,"x_max":0,"o":"m 79 101 b 76 149 61 122 60 132 l 146 217 b 179 218 156 225 168 228 b 358 140 185 213 265 140 b 519 304 453 140 519 217 b 351 460 519 390 461 460 l 138 460 b 94 508 110 460 94 486 l 94 918 b 121 944 94 932 106 944 l 560 944 b 586 918 575 944 586 932 l 586 824 b 560 797 586 810 575 797 l 251 797 l 251 613 l 371 613 b 689 304 568 613 689 486 b 353 -14 689 131 544 -14 b 79 101 204 -14 114 60 "},"6":{"ha":749,"x_min":0,"x_max":0,"o":"m 60 369 b 522 975 60 775 403 936 b 561 956 542 981 556 974 l 593 874 b 568 833 600 857 594 842 b 263 567 503 813 306 719 b 421 606 286 581 356 606 b 704 304 560 606 704 503 b 390 -14 704 129 561 -14 b 60 369 172 -14 60 161 m 389 144 b 547 307 476 144 547 219 b 388 469 547 396 476 469 b 226 349 296 469 242 399 b 389 144 226 254 276 144 "},"7":{"ha":672,"x_min":0,"x_max":0,"o":"m 74 42 l 435 794 l 68 794 b 42 821 54 794 42 807 l 42 918 b 68 944 42 932 54 944 l 646 944 b 672 918 660 944 672 932 l 672 908 l 258 38 b 211 0 249 15 235 0 l 108 0 b 74 26 92 0 74 4 "},"8":{"ha":788,"x_min":0,"x_max":0,"o":"m 65 253 b 233 485 65 374 194 465 l 233 489 b 90 704 176 519 90 596 b 392 958 90 858 224 958 b 699 704 565 958 699 858 b 556 490 699 599 613 524 l 556 485 b 724 253 618 453 724 372 b 392 -14 724 101 596 -14 b 65 253 193 -14 65 101 m 394 565 b 521 697 481 585 521 638 b 392 815 521 764 464 815 b 268 697 325 815 268 764 b 394 565 268 635 307 586 m 250 256 b 394 128 250 179 319 128 b 539 256 471 128 539 179 b 394 403 539 318 488 382 b 250 256 301 382 250 318 "},"9":{"ha":749,"x_min":0,"x_max":0,"o":"m 156 79 b 181 119 149 96 154 111 b 486 386 246 140 443 233 b 328 347 463 372 393 347 b 44 649 189 347 44 450 b 358 967 44 824 188 967 b 689 583 576 967 689 792 b 226 -22 689 178 346 17 b 188 -3 207 -28 193 -21 l 156 79 m 361 483 b 522 604 453 483 507 554 b 360 808 522 699 472 808 b 201 646 272 808 201 733 b 361 483 201 557 272 483 "}," ":{"ha":307,"x_min":0,"x_max":0,"o":""},"!":{"ha":431,"x_min":0,"x_max":0,"o":"m 193 378 b 167 400 181 378 168 389 l 113 788 l 113 946 b 139 972 113 960 125 972 l 292 972 b 318 946 306 972 318 960 l 318 790 l 264 400 b 238 378 263 389 250 378 l 193 378 m 101 100 b 214 215 101 163 153 215 b 329 100 278 215 329 163 b 214 -14 329 38 278 -14 b 101 100 153 -14 101 38 "},"\"":{"ha":476,"x_min":0,"x_max":0,"o":"m 314 696 b 288 722 300 696 288 708 l 288 946 b 314 972 288 960 300 972 l 425 972 b 450 938 443 972 456 957 l 393 717 b 368 696 390 706 378 696 l 314 696 m 76 696 b 50 722 63 696 50 708 l 50 946 b 76 972 50 960 63 972 l 188 972 b 213 938 206 972 218 957 l 156 717 b 131 696 153 706 140 696 l 76 696 "},"#":{"ha":747,"x_min":0,"x_max":0,"o":"m 176 261 l 78 261 b 51 288 63 261 51 274 l 51 307 b 78 333 51 322 63 333 l 186 333 l 218 561 l 118 561 b 92 588 104 561 92 574 l 92 607 b 118 633 92 621 104 633 l 228 633 l 272 950 b 297 972 274 961 285 972 l 317 972 b 342 942 332 972 344 958 l 300 633 l 519 633 l 565 950 b 592 972 567 961 579 972 l 608 972 b 635 942 625 972 638 958 l 590 633 l 679 633 b 706 607 694 633 706 621 l 706 588 b 679 561 706 574 694 561 l 581 561 l 549 333 l 639 333 b 665 307 653 333 665 322 l 665 288 b 639 261 665 274 653 261 l 538 261 l 507 22 b 481 0 506 10 494 0 l 463 0 b 436 31 446 0 435 14 l 467 261 l 246 261 l 214 22 b 188 0 213 10 200 0 l 171 0 b 144 31 153 0 142 14 m 478 333 l 508 561 l 289 561 l 257 333 "},"$":{"ha":729,"x_min":0,"x_max":0,"o":"m 64 94 b 57 136 51 107 43 115 b 156 232 83 179 117 261 b 328 146 161 228 244 167 b 329 413 328 236 329 322 b 53 721 200 464 53 538 b 331 985 53 853 140 969 l 331 1029 b 357 1056 331 1044 343 1056 l 375 1056 b 401 1029 389 1056 401 1044 l 401 983 b 643 893 525 974 618 911 b 651 847 657 885 661 863 b 551 751 624 806 583 729 b 401 826 542 756 469 806 b 401 576 401 743 401 660 b 688 261 522 526 688 443 b 399 -12 688 110 585 -1 l 399 -157 b 371 -182 399 -172 386 -182 b 328 -157 354 -182 328 -181 l 328 -12 b 64 94 178 -1 89 71 m 326 831 b 222 740 257 822 222 782 b 326 607 222 685 256 644 m 401 138 b 506 242 461 147 506 188 b 401 381 506 296 471 340 l 401 138 "},"%":{"ha":919,"x_min":0,"x_max":0,"o":"m 218 611 b 31 799 114 611 31 694 b 218 986 31 903 114 986 b 406 799 321 986 406 903 b 218 611 406 694 321 611 m 621 958 b 644 972 625 967 633 972 l 714 972 b 738 935 735 972 747 953 l 258 14 b 235 0 256 8 246 0 l 168 0 b 144 38 147 0 135 19 m 218 731 b 285 799 254 731 285 761 b 218 865 285 835 254 865 b 150 799 181 865 150 835 b 218 731 150 761 181 731 m 488 174 b 675 361 488 278 572 361 b 864 174 779 361 864 278 b 675 -14 864 69 779 -14 b 488 174 572 -14 488 69 m 607 174 b 675 106 607 136 638 106 b 743 174 711 106 743 136 b 675 240 743 210 711 240 b 607 174 638 240 607 210 "},"&":{"ha":957,"x_min":0,"x_max":0,"o":"m 103 247 b 294 526 103 431 269 511 l 294 529 l 265 561 b 171 761 210 619 169 679 b 433 986 171 867 258 986 b 696 760 589 986 696 885 b 526 507 696 617 554 532 l 686 346 b 736 500 708 390 726 447 b 782 535 742 529 750 544 l 858 513 b 882 458 894 503 885 472 b 796 238 858 358 814 271 l 919 121 b 917 57 936 104 950 89 l 860 -1 b 799 3 843 -17 821 -19 l 699 104 b 396 -14 674 75 576 -14 b 103 247 219 -14 103 106 m 428 606 b 546 751 449 618 546 665 b 428 856 546 804 500 856 b 325 761 364 856 325 813 b 397 636 324 713 356 681 l 428 606 m 268 265 b 414 135 268 189 332 135 b 593 217 518 135 572 193 l 386 436 b 268 265 364 422 268 376 "},"'":{"ha":239,"x_min":0,"x_max":0,"o":"m 76 696 b 50 722 63 696 50 708 l 50 946 b 76 972 50 960 63 972 l 188 972 b 213 938 206 972 218 957 l 156 717 b 131 696 153 706 140 696 l 76 696 "},"(":{"ha":475,"x_min":0,"x_max":0,"o":"m 404 -110 b 60 438 246 -99 60 1 b 404 985 60 874 246 976 b 431 964 419 986 431 976 l 435 872 b 418 847 436 861 428 849 b 231 438 282 811 231 668 b 418 29 231 206 282 65 b 435 3 431 26 436 14 l 431 -87 b 404 -110 429 -101 419 -110 "},")":{"ha":476,"x_min":0,"x_max":0,"o":"m 40 3 b 57 29 39 14 44 26 b 244 438 193 65 244 206 b 57 847 244 668 193 811 b 40 872 47 849 39 861 l 44 964 b 71 985 44 976 56 986 b 415 438 229 976 415 874 b 71 -110 415 1 229 -99 b 44 -87 56 -110 46 -101 l 40 3 "},"*":{"ha":486,"x_min":0,"x_max":0,"o":"m 221 514 b 194 540 207 514 194 526 l 197 661 l 97 592 b 61 599 86 583 68 588 l 38 636 b 44 674 29 649 32 665 l 160 743 l 44 813 b 36 850 32 821 29 838 b 63 888 47 865 53 875 b 97 893 69 897 86 901 l 197 824 l 194 946 b 221 972 194 960 207 972 l 265 972 b 292 946 279 972 292 960 l 289 824 l 389 894 b 425 888 400 901 418 899 l 449 850 b 442 813 457 838 456 821 l 326 743 l 442 672 b 450 636 456 664 457 647 l 424 599 b 389 590 417 586 400 583 l 289 660 l 292 540 b 265 514 292 526 279 514 l 221 514 "},"+":{"ha":778,"x_min":0,"x_max":0,"o":"m 324 415 l 115 415 b 89 442 101 415 89 428 l 89 519 b 115 546 89 533 101 546 l 324 546 l 324 756 b 350 781 324 769 336 781 l 428 781 b 454 756 442 781 454 769 l 454 546 l 664 546 b 689 519 678 546 689 533 l 689 442 b 664 415 689 428 678 415 l 454 415 l 454 208 b 428 183 454 194 442 183 l 350 183 b 324 208 336 183 324 194 "},",":{"ha":360,"x_min":0,"x_max":0,"o":"m 50 99 b 172 214 50 161 101 214 b 313 32 232 214 313 169 b 154 -268 313 -139 206 -236 b 119 -265 142 -276 132 -278 l 99 -243 b 104 -206 89 -232 90 -217 b 215 -3 119 -192 215 -119 b 163 -14 214 -3 192 -14 b 50 99 101 -14 50 38 "},"-":{"ha":513,"x_min":0,"x_max":0,"o":"m 101 267 b 75 292 86 267 75 278 l 75 385 b 101 411 75 400 86 411 l 411 411 b 438 385 426 411 438 400 l 438 292 b 411 267 438 278 426 267 l 101 267 "},".":{"ha":326,"x_min":0,"x_max":0,"o":"m 49 100 b 163 215 49 163 100 215 b 278 100 225 215 278 163 b 163 -14 278 38 225 -14 b 49 100 100 -14 49 38 "},"/":{"ha":490,"x_min":0,"x_max":0,"o":"m 313 954 b 338 972 315 964 326 972 l 438 972 b 463 938 457 972 468 957 l 192 18 b 167 0 189 8 176 0 l 65 0 b 40 35 47 0 35 15 "},":":{"ha":372,"x_min":0,"x_max":0,"o":"m 186 369 b 86 469 131 369 86 414 b 186 569 86 525 131 569 b 286 469 242 569 286 525 b 186 369 286 414 242 369 m 86 86 b 186 186 86 142 131 186 b 286 86 242 186 286 142 b 186 -14 286 31 242 -14 b 86 86 131 -14 86 31 "},";":{"ha":343,"x_min":0,"x_max":0,"o":"m 165 369 b 65 469 110 369 65 414 b 165 569 65 525 110 569 b 265 469 221 569 265 525 b 165 369 265 414 221 369 m 71 79 b 169 172 71 129 113 172 b 285 22 219 172 285 136 b 160 -229 285 -112 196 -197 b 128 -228 149 -237 139 -239 l 108 -207 b 111 -176 99 -197 101 -185 b 206 -7 125 -167 206 -103 b 164 -14 204 -7 186 -14 b 71 79 113 -14 71 28 "},"<":{"ha":606,"x_min":0,"x_max":0,"o":"m 40 292 b 26 315 33 296 26 307 l 26 322 b 40 346 26 331 33 342 l 522 640 b 561 618 540 651 561 640 l 561 521 b 549 499 561 508 554 503 l 250 321 l 549 149 b 561 126 554 144 561 139 l 561 29 b 522 7 561 7 540 -4 l 40 292 "},"=":{"ha":678,"x_min":0,"x_max":0,"o":"m 113 469 b 86 496 97 469 86 482 l 86 574 b 113 600 86 588 97 600 l 565 600 b 592 574 581 600 592 588 l 592 496 b 565 469 592 482 581 469 l 113 469 m 113 176 b 86 203 97 176 86 189 l 86 282 b 113 308 86 296 97 308 l 565 308 b 592 282 581 308 592 296 l 592 203 b 565 176 592 189 581 176 l 113 176 "},">":{"ha":606,"x_min":0,"x_max":0,"o":"m 44 126 b 57 149 44 139 50 144 l 354 321 l 57 499 b 44 521 50 503 44 508 l 44 618 b 83 640 44 640 65 651 l 565 346 b 579 322 572 342 579 331 l 579 315 b 565 292 579 307 572 296 l 83 7 b 44 29 65 -4 44 7 "},"?":{"ha":624,"x_min":0,"x_max":0,"o":"m 229 378 b 203 404 215 378 203 389 l 203 463 b 396 742 203 594 396 644 b 285 835 396 792 354 835 b 135 763 200 835 163 781 b 104 764 124 756 114 756 l 39 828 b 39 864 28 838 29 854 b 311 986 39 864 133 986 b 581 753 457 986 581 889 b 369 453 581 585 369 536 l 369 407 b 342 378 369 390 360 378 l 229 378 m 171 100 b 285 215 171 163 222 215 b 400 100 347 215 400 163 b 285 -14 400 38 347 -14 b 171 100 222 -14 171 38 "},"@":{"ha":1369,"x_min":0,"x_max":0,"o":"m 44 310 b 706 986 44 704 311 986 b 1311 400 1090 986 1311 735 b 996 -14 1311 217 1229 -14 b 831 94 900 -14 853 36 l 819 94 b 639 -14 790 36 726 -14 b 388 279 493 -14 388 119 b 643 569 388 446 494 569 b 811 488 732 569 789 511 b 876 556 828 533 825 556 l 900 556 b 926 529 914 556 926 544 l 926 275 b 1013 128 926 150 967 128 b 1156 393 1103 128 1156 253 b 700 843 1156 647 1004 843 b 196 310 393 843 196 639 b 531 -179 196 83 335 -97 b 546 -212 546 -186 551 -197 l 513 -300 b 482 -315 507 -314 496 -321 b 44 310 231 -224 44 18 m 532 289 b 653 135 526 200 586 135 b 771 286 742 135 768 210 l 771 338 b 651 429 764 371 718 429 b 532 289 585 429 536 372 "},"A":{"ha":921,"x_min":0,"x_max":0,"o":"m 24 0 b 0 36 3 0 -8 18 l 432 971 b 456 986 436 979 443 986 l 469 986 b 493 971 483 986 489 979 l 921 36 b 897 0 929 18 918 0 l 776 0 b 736 28 756 0 746 8 l 668 178 l 253 178 l 185 28 b 144 0 179 14 167 0 l 24 0 m 600 332 l 461 638 l 457 638 l 321 332 "},"B":{"ha":857,"x_min":0,"x_max":0,"o":"m 126 946 b 153 972 126 960 138 972 l 471 972 b 764 715 636 972 764 861 b 611 494 764 608 676 525 b 792 268 685 471 792 396 b 489 0 792 113 658 0 l 153 0 b 126 26 138 0 126 13 m 454 564 b 574 689 525 564 574 619 b 454 807 574 758 525 807 l 306 807 l 306 564 m 474 164 b 599 290 543 164 599 218 b 457 411 599 360 529 411 l 306 411 l 306 164 "},"C":{"ha":950,"x_min":0,"x_max":0,"o":"m 56 485 b 557 986 56 763 279 986 b 893 857 697 986 799 942 b 894 818 906 846 906 829 l 810 731 b 775 731 800 719 786 719 b 561 813 717 782 639 813 b 251 489 383 813 251 664 b 563 168 251 315 385 168 b 775 247 646 168 717 200 b 810 247 786 257 801 256 l 896 158 b 894 121 907 149 904 131 b 557 -14 800 29 681 -14 b 56 485 279 -14 56 207 "},"D":{"ha":1025,"x_min":0,"x_max":0,"o":"m 126 946 b 151 972 126 960 138 972 l 481 972 b 968 488 749 972 968 754 b 481 0 968 218 749 0 l 151 0 b 126 26 138 0 126 13 m 464 169 b 776 488 644 169 776 306 b 464 804 776 668 644 804 l 306 804 l 306 169 "},"E":{"ha":817,"x_min":0,"x_max":0,"o":"m 126 946 b 153 972 126 960 138 972 l 718 972 b 744 946 733 972 744 960 l 744 832 b 718 806 744 818 733 806 l 307 806 l 307 578 l 650 578 b 676 551 664 578 676 565 l 676 436 b 650 410 676 421 664 410 l 307 410 l 307 167 l 718 167 b 744 140 733 167 744 154 l 744 26 b 718 0 744 13 733 0 l 153 0 b 126 26 138 0 126 13 "},"F":{"ha":783,"x_min":0,"x_max":0,"o":"m 126 946 b 153 972 126 960 138 972 l 718 972 b 744 946 733 972 744 960 l 744 832 b 718 806 744 818 733 806 l 307 806 l 307 544 l 650 544 b 676 518 664 544 676 532 l 676 404 b 650 378 676 390 664 378 l 307 378 l 307 26 b 281 0 307 13 294 0 l 153 0 b 126 26 138 0 126 13 "},"G":{"ha":989,"x_min":0,"x_max":0,"o":"m 57 485 b 556 986 57 763 279 986 b 894 857 681 986 800 938 b 896 818 906 846 907 829 l 810 728 b 774 728 799 717 786 717 b 564 808 714 781 640 808 b 253 486 390 808 253 660 b 565 168 253 314 390 168 b 731 203 643 168 703 192 l 731 321 l 619 321 b 593 346 604 321 593 332 l 593 456 b 619 482 593 471 604 482 l 886 482 b 911 456 900 482 911 469 l 911 100 b 900 78 911 89 906 82 b 556 -12 900 78 757 -12 b 57 485 279 -12 57 207 "},"H":{"ha":1068,"x_min":0,"x_max":0,"o":"m 126 946 b 153 972 126 960 139 972 l 282 972 b 308 946 297 972 308 960 l 308 578 l 761 578 l 761 946 b 788 972 761 960 772 972 l 915 972 b 942 946 929 972 942 960 l 942 26 b 915 0 942 13 929 0 l 788 0 b 761 26 772 0 761 13 l 761 410 l 308 410 l 308 26 b 282 0 308 13 297 0 l 153 0 b 126 26 139 0 126 13 "},"I":{"ha":435,"x_min":0,"x_max":0,"o":"m 126 946 b 153 972 126 960 139 972 l 282 972 b 308 946 296 972 308 960 l 308 26 b 282 0 308 13 296 0 l 153 0 b 126 26 139 0 126 13 "},"J":{"ha":581,"x_min":0,"x_max":0,"o":"m -22 88 b -19 122 -29 99 -28 113 l 53 196 b 94 194 68 210 82 207 b 186 150 113 175 140 150 b 297 290 240 150 297 194 l 297 946 b 324 972 297 960 308 972 l 454 972 b 481 946 469 972 481 960 l 481 290 b 189 -14 481 97 351 -14 b -22 88 68 -14 1 58 "},"K":{"ha":910,"x_min":0,"x_max":0,"o":"m 126 939 b 160 972 126 957 140 972 l 282 972 b 315 939 300 972 315 957 l 315 564 l 665 958 b 692 972 671 965 679 972 l 831 972 b 853 922 857 972 871 943 l 490 514 l 879 49 b 854 0 893 31 882 0 l 703 0 b 678 10 689 0 681 6 l 315 457 l 315 33 b 282 0 315 15 300 0 l 160 0 b 126 33 140 0 126 15 "},"L":{"ha":701,"x_min":0,"x_max":0,"o":"m 126 946 b 153 972 126 960 138 972 l 281 972 b 307 946 294 972 307 960 l 307 167 l 661 167 b 688 140 676 167 688 154 l 688 26 b 661 0 688 13 676 0 l 153 0 b 126 26 138 0 126 13 "},"M":{"ha":1213,"x_min":0,"x_max":0,"o":"m 228 965 b 253 986 229 976 238 986 l 275 986 b 299 972 286 986 294 981 l 604 317 b 608 317 607 317 607 317 l 914 972 b 938 986 918 981 925 986 l 960 986 b 985 965 975 986 983 976 l 1149 32 b 1124 0 1153 13 1142 0 l 997 0 b 971 21 985 0 974 11 l 889 547 b 885 547 888 547 885 547 l 642 1 b 618 -14 639 -7 631 -14 l 593 -14 b 569 1 581 -14 574 -7 l 324 547 b 319 547 324 547 321 547 l 239 21 b 214 0 238 11 226 0 l 89 0 b 63 32 71 0 60 13 "},"N":{"ha":1074,"x_min":0,"x_max":0,"o":"m 126 961 b 153 986 126 975 139 986 l 188 986 l 765 372 l 767 372 l 767 946 b 793 972 767 960 778 972 l 921 972 b 947 946 935 972 947 960 l 947 11 b 921 -14 947 -3 935 -14 l 888 -14 l 307 624 l 306 624 l 306 26 b 279 0 306 13 294 0 l 153 0 b 126 26 139 0 126 13 "},"O":{"ha":1111,"x_min":0,"x_max":0,"o":"m 57 485 b 556 986 57 763 278 986 b 1056 485 833 986 1056 763 b 556 -14 1056 207 833 -14 b 57 485 278 -14 57 207 m 238 485 b 556 167 238 310 381 167 b 875 485 731 167 875 310 b 556 806 875 660 731 806 b 238 485 381 806 238 660 "},"P":{"ha":822,"x_min":0,"x_max":0,"o":"m 126 946 b 153 972 126 960 138 972 l 479 972 b 790 665 650 972 790 833 b 481 353 790 493 650 353 l 307 353 l 307 26 b 281 0 307 13 294 0 l 153 0 b 126 26 138 0 126 13 m 468 522 b 611 667 546 522 611 585 b 468 801 611 743 546 801 l 307 801 l 307 522 "},"Q":{"ha":1113,"x_min":0,"x_max":0,"o":"m 57 485 b 556 986 57 763 278 986 b 1056 485 833 986 1056 763 b 785 40 1056 296 946 129 l 958 -233 b 936 -275 971 -253 958 -275 l 789 -275 b 767 -261 783 -275 771 -269 l 618 -10 b 556 -14 596 -12 572 -14 b 57 485 278 -14 57 207 m 238 485 b 556 167 238 310 381 167 b 875 485 731 167 875 310 b 556 806 875 660 731 806 b 238 485 381 806 238 660 "},"R":{"ha":925,"x_min":0,"x_max":0,"o":"m 126 946 b 153 972 126 960 138 972 l 550 972 b 853 674 717 972 853 839 b 647 393 853 546 768 442 l 838 40 b 814 0 847 22 838 0 l 668 0 b 646 13 656 0 649 7 l 461 381 l 307 381 l 307 26 b 281 0 307 13 294 0 l 153 0 b 126 26 138 0 126 13 m 535 529 b 672 671 608 529 672 593 b 535 806 672 744 608 806 l 308 806 l 308 529 "},"S":{"ha":753,"x_min":0,"x_max":0,"o":"m 76 94 b 69 136 64 107 57 114 l 119 222 b 167 232 131 242 154 242 b 376 146 174 228 286 146 b 503 253 449 146 503 193 b 326 419 503 324 443 372 b 65 719 196 472 65 556 b 378 986 65 843 157 986 b 656 893 519 986 628 914 b 664 847 669 885 674 861 l 611 768 b 563 751 600 751 579 740 b 369 828 551 758 446 828 b 247 731 290 828 247 775 b 411 575 247 665 299 621 b 701 261 546 521 701 440 b 382 -14 701 118 578 -14 b 76 94 207 -14 104 68 "},"T":{"ha":696,"x_min":0,"x_max":0,"o":"m 257 806 l 44 806 b 18 832 29 806 18 818 l 18 946 b 44 972 18 960 29 972 l 651 972 b 678 946 667 972 678 960 l 678 832 b 651 806 678 818 667 806 l 439 806 l 439 26 b 413 0 439 13 426 0 l 283 0 b 257 26 269 0 257 13 "},"U":{"ha":999,"x_min":0,"x_max":0,"o":"m 113 946 b 139 972 113 960 125 972 l 271 972 b 297 946 286 972 297 960 l 297 378 b 499 167 297 260 378 167 b 701 376 619 167 701 260 l 701 946 b 728 972 701 960 713 972 l 860 972 b 886 946 874 972 886 960 l 886 368 b 499 -14 886 157 718 -14 b 113 368 281 -14 113 157 "},"V":{"ha":921,"x_min":0,"x_max":0,"o":"m 0 936 b 24 972 -8 954 3 972 l 165 972 b 189 957 178 972 186 964 l 456 360 l 465 360 l 732 957 b 756 972 735 964 743 972 l 897 972 b 921 936 918 972 929 954 l 490 1 b 467 -14 486 -7 479 -14 l 453 -14 b 429 1 440 -14 433 -7 "},"W":{"ha":1249,"x_min":0,"x_max":0,"o":"m 40 939 b 65 972 35 958 46 972 l 193 972 b 218 953 204 972 215 963 l 363 399 l 368 399 l 589 971 b 613 986 592 979 599 986 l 638 986 b 661 971 651 986 658 979 l 883 399 l 889 399 l 1031 953 b 1056 972 1033 963 1044 972 l 1183 972 b 1208 939 1203 972 1214 958 l 946 6 b 921 -14 943 -6 932 -14 l 899 -14 b 875 1 886 -14 878 -7 l 626 631 l 619 631 l 374 1 b 350 -14 369 -7 364 -14 l 328 -14 b 303 6 317 -14 306 -6 "},"X":{"ha":878,"x_min":0,"x_max":0,"o":"m 331 499 l 53 933 b 76 972 42 951 53 972 l 238 972 b 260 960 249 972 256 965 l 438 665 l 439 665 l 619 960 b 642 972 622 965 631 972 l 803 972 b 826 933 826 972 838 951 l 547 499 l 836 39 b 813 0 847 19 836 0 l 663 0 b 639 13 651 0 642 7 l 440 331 l 436 331 l 240 13 b 217 0 236 7 228 0 l 67 0 b 42 39 42 0 31 21 "},"Y":{"ha":810,"x_min":0,"x_max":0,"o":"m 313 468 l -4 932 b 18 972 -15 950 -4 972 l 160 972 b 182 960 171 972 178 965 l 404 640 l 626 960 b 649 972 631 965 638 972 l 792 972 b 814 932 814 972 825 950 l 493 469 l 493 26 b 467 0 493 13 481 0 l 339 0 b 313 26 324 0 313 13 "},"Z":{"ha":747,"x_min":0,"x_max":0,"o":"m 35 51 l 449 799 l 449 804 l 101 804 b 75 831 88 804 75 817 l 75 946 b 101 972 75 960 88 972 l 682 972 b 708 946 696 972 708 960 l 708 928 l 300 171 l 300 168 l 654 168 b 681 142 669 168 681 156 l 681 26 b 654 0 681 13 669 0 l 61 0 b 35 26 47 0 35 13 "},"[":{"ha":485,"x_min":0,"x_max":0,"o":"m 432 -278 b 458 -303 446 -278 458 -289 l 458 -390 b 432 -417 458 -404 446 -417 l 118 -417 b 92 -390 104 -417 92 -404 l 92 946 b 118 972 92 960 104 972 l 432 972 b 458 946 446 972 458 960 l 458 860 b 432 833 458 844 446 833 l 251 833 l 251 -278 "},"\\":{"ha":496,"x_min":0,"x_max":0,"o":"m 28 938 b 53 972 22 957 33 972 l 158 972 b 183 954 169 972 181 964 l 456 35 b 431 0 461 15 449 0 l 324 0 b 299 18 314 0 301 8 "},"]":{"ha":485,"x_min":0,"x_max":0,"o":"m 233 -278 l 233 833 l 53 833 b 26 860 39 833 26 844 l 26 946 b 53 972 26 960 39 972 l 367 972 b 393 946 381 972 393 960 l 393 -390 b 367 -417 393 -404 381 -417 l 53 -417 b 26 -390 39 -417 26 -404 l 26 -303 b 53 -278 26 -289 39 -278 "},"^":{"ha":728,"x_min":0,"x_max":0,"o":"m 74 535 b 51 574 51 535 40 556 l 340 978 b 364 992 344 985 353 992 l 371 992 b 394 978 382 992 390 985 l 676 574 b 654 535 688 556 676 535 l 558 535 b 536 547 549 535 540 542 l 365 782 l 192 547 b 169 535 188 542 179 535 l 74 535 "},"_":{"ha":576,"x_min":0,"x_max":0,"o":"m 26 -40 b 53 -14 26 -25 38 -14 l 524 -14 b 550 -40 539 -14 550 -25 l 550 -94 b 524 -119 550 -108 539 -119 l 53 -119 b 26 -94 38 -119 26 -108 l 26 -40 "},"`":{"ha":419,"x_min":0,"x_max":0,"o":"m 82 840 b 74 878 71 846 64 860 l 113 949 b 149 953 119 961 136 961 l 376 818 b 385 792 385 814 390 803 l 360 742 b 325 733 354 729 344 725 "},"a":{"ha":593,"x_min":0,"x_max":0,"o":"m 43 176 b 265 351 43 275 124 351 b 367 336 321 351 367 336 b 294 432 368 407 346 432 b 139 411 243 432 171 421 b 107 436 119 406 110 418 l 94 508 b 114 543 90 529 101 539 b 303 569 125 547 214 569 b 517 328 476 569 517 479 l 517 26 b 490 0 517 13 504 0 l 440 0 b 417 19 431 0 424 4 l 400 57 b 231 -14 368 28 317 -14 b 43 176 119 -14 43 58 m 196 176 b 268 104 196 135 225 104 b 364 158 313 104 356 142 l 364 235 b 286 251 364 235 326 251 b 196 176 232 251 196 221 "},"b":{"ha":694,"x_min":0,"x_max":0,"o":"m 83 946 b 110 972 83 960 96 972 l 228 972 b 254 946 242 972 254 960 l 254 544 b 378 569 279 554 322 569 b 653 278 543 569 653 440 b 386 -14 653 118 538 -14 b 204 69 269 -14 204 69 l 190 26 b 164 0 186 11 176 0 l 110 0 b 83 26 96 0 83 13 m 249 226 b 365 136 258 193 292 136 b 492 278 439 136 492 200 b 357 419 492 356 435 419 b 249 388 288 419 249 388 l 249 226 "},"c":{"ha":592,"x_min":0,"x_max":0,"o":"m 40 278 b 336 569 40 442 181 569 b 542 471 422 569 489 535 b 535 432 551 458 549 442 l 471 371 b 436 375 458 360 446 367 b 340 419 414 400 379 419 b 204 278 265 419 204 356 b 339 136 204 199 264 136 b 450 189 399 136 425 165 b 485 193 460 199 474 201 l 544 142 b 554 103 558 131 564 117 b 335 -14 507 29 433 -14 b 40 278 178 -14 40 111 "},"d":{"ha":694,"x_min":0,"x_max":0,"o":"m 42 278 b 317 569 42 440 151 569 b 440 544 372 569 415 554 l 440 946 b 467 972 440 960 453 972 l 585 972 b 611 946 599 972 611 960 l 611 26 b 585 0 611 13 599 0 l 531 0 b 504 26 518 0 508 11 l 490 69 b 308 -14 490 69 425 -14 b 42 278 157 -14 42 118 m 203 278 b 329 136 203 200 256 136 b 446 226 403 136 436 193 l 446 388 b 338 419 446 388 407 419 b 203 278 260 419 203 356 "},"e":{"ha":618,"x_min":0,"x_max":0,"o":"m 42 278 b 325 569 42 435 160 569 b 585 311 468 569 585 461 b 582 274 585 301 583 283 b 556 250 581 260 568 250 l 200 250 b 333 129 204 193 253 129 b 442 164 376 129 417 146 b 478 164 456 172 468 175 l 535 99 b 533 63 544 89 547 74 b 326 -14 488 19 417 -14 b 42 278 160 -14 42 118 m 422 347 b 321 442 418 399 374 442 b 213 347 265 442 219 400 "},"f":{"ha":478,"x_min":0,"x_max":0,"o":"m 117 410 l 69 410 b 43 436 54 410 43 422 l 43 529 b 69 556 43 544 54 556 l 117 556 l 117 706 b 376 986 117 889 229 986 b 540 932 450 986 515 954 b 546 900 549 925 551 910 l 499 811 b 465 804 493 800 478 797 b 383 832 447 815 414 832 b 290 706 324 832 290 786 l 290 556 l 429 556 b 456 529 444 556 456 544 l 456 436 b 429 410 456 422 444 410 l 290 410 l 290 26 b 264 0 290 13 278 0 l 143 0 b 117 26 129 0 117 13 "},"g":{"ha":642,"x_min":0,"x_max":0,"o":"m 25 42 b 129 197 25 150 129 197 b 88 328 129 197 88 244 b 329 569 88 457 192 569 l 582 569 b 608 543 597 569 608 558 l 608 497 b 593 474 608 488 603 476 l 515 449 b 571 307 515 449 571 406 b 333 89 571 197 479 89 b 222 100 281 89 244 100 b 171 47 203 100 171 81 b 226 0 171 18 196 0 l 404 0 b 633 -194 531 0 633 -72 b 329 -431 633 -322 531 -431 b 46 -240 124 -431 46 -329 b 129 -108 46 -157 115 -117 l 129 -104 b 25 42 106 -97 25 -60 m 236 321 b 333 221 236 263 278 221 b 429 321 390 221 429 263 b 333 421 429 379 390 421 b 236 321 278 421 236 379 m 206 -210 b 328 -292 206 -258 253 -292 b 457 -204 406 -292 457 -257 b 356 -136 457 -179 438 -136 b 265 -142 325 -136 294 -137 b 206 -210 249 -147 206 -167 "},"h":{"ha":722,"x_min":0,"x_max":0,"o":"m 83 946 b 110 972 83 960 96 972 l 228 972 b 254 946 242 972 254 960 l 254 524 b 401 569 282 544 336 569 b 650 293 578 569 650 433 l 650 26 b 624 0 650 13 638 0 l 511 0 b 485 26 496 0 485 13 l 485 294 b 375 419 485 371 442 419 b 254 321 311 419 268 378 l 254 26 b 225 0 254 11 246 0 l 110 0 b 83 26 96 0 83 13 "},"i":{"ha":335,"x_min":0,"x_max":0,"o":"m 165 753 b 71 849 113 753 71 796 b 165 944 71 901 113 944 b 263 849 219 944 263 901 b 165 753 263 796 219 753 m 83 529 b 110 556 83 544 96 556 l 225 556 b 251 529 239 556 251 544 l 251 26 b 225 0 251 13 239 0 l 110 0 b 83 26 96 0 83 13 "},"j":{"ha":336,"x_min":0,"x_max":0,"o":"m 167 753 b 72 849 114 753 72 796 b 167 944 72 901 114 944 b 264 849 221 944 264 901 b 167 753 264 796 221 753 m 83 529 b 110 556 83 544 96 556 l 226 556 b 253 529 240 556 253 544 l 253 -150 b -6 -431 253 -333 142 -431 b -169 -376 -79 -431 -146 -399 b -175 -344 -179 -369 -181 -354 l -129 -256 b -96 -249 -124 -244 -108 -242 b -14 -276 -78 -260 -44 -276 b 83 -150 49 -276 83 -231 "},"k":{"ha":679,"x_min":0,"x_max":0,"o":"m 83 946 b 110 972 83 960 96 972 l 228 972 b 254 946 242 972 254 960 l 254 344 l 446 539 b 481 556 456 547 465 556 l 607 556 b 625 515 631 556 639 531 l 418 304 l 665 39 b 647 0 679 24 671 0 l 497 0 b 474 11 489 0 478 6 l 254 261 l 254 26 b 228 0 254 13 242 0 l 110 0 b 83 26 96 0 83 13 "},"l":{"ha":336,"x_min":0,"x_max":0,"o":"m 83 946 b 110 972 83 960 96 972 l 226 972 b 253 946 240 972 253 960 l 253 26 b 226 0 253 13 240 0 l 110 0 b 83 26 96 0 83 13 "},"m":{"ha":1082,"x_min":0,"x_max":0,"o":"m 83 529 b 110 556 83 544 96 556 l 161 556 b 185 540 174 556 182 549 l 204 488 b 390 569 228 514 292 569 b 571 483 469 569 525 539 b 767 569 594 508 667 569 b 1010 292 944 569 1010 438 l 1010 26 b 983 0 1010 13 999 0 l 871 0 b 844 26 856 0 844 13 l 844 301 b 740 419 844 374 810 419 b 624 361 660 419 624 361 b 625 308 624 361 625 333 l 625 26 b 599 0 625 13 613 0 l 494 0 b 468 26 479 0 468 13 l 468 301 b 365 419 468 374 436 419 b 249 332 296 419 263 369 l 249 26 b 222 0 249 13 236 0 l 110 0 b 83 26 96 0 83 13 "},"n":{"ha":721,"x_min":0,"x_max":0,"o":"m 83 529 b 110 556 83 544 96 556 l 163 556 b 186 539 175 556 182 549 l 206 488 b 401 569 226 510 294 569 b 649 293 578 569 649 438 l 649 26 b 622 0 649 13 636 0 l 508 0 b 482 26 493 0 482 13 l 482 301 b 378 419 482 374 444 419 b 247 332 306 419 261 369 l 247 26 b 213 0 247 7 239 0 l 110 0 b 83 26 96 0 83 13 "},"o":{"ha":650,"x_min":0,"x_max":0,"o":"m 40 279 b 325 569 40 436 168 569 b 610 279 482 569 610 436 b 325 -14 610 119 482 -14 b 40 279 168 -14 40 119 m 192 279 b 325 136 192 200 250 136 b 458 279 399 136 458 200 b 325 419 458 357 399 419 b 192 279 250 419 192 357 "},"p":{"ha":694,"x_min":0,"x_max":0,"o":"m 254 -390 b 221 -417 254 -407 246 -417 l 110 -417 b 83 -390 96 -417 83 -404 l 83 529 b 110 556 83 544 96 556 l 164 556 b 188 539 174 556 183 550 l 206 493 b 385 569 226 521 294 569 b 653 278 538 569 653 438 b 378 -14 653 114 528 -14 b 254 17 324 -14 274 6 m 247 168 b 356 136 247 168 286 136 b 490 278 433 136 490 200 b 361 419 490 356 438 419 b 247 335 290 419 256 364 l 247 168 "},"q":{"ha":694,"x_min":0,"x_max":0,"o":"m 42 278 b 310 569 42 438 157 569 b 489 493 400 569 468 521 l 507 539 b 531 556 511 550 521 556 l 585 556 b 611 529 599 556 611 544 l 611 -390 b 585 -417 611 -404 599 -417 l 474 -417 b 440 -390 449 -417 440 -407 l 440 17 b 317 -14 421 6 371 -14 b 42 278 167 -14 42 114 m 204 275 b 339 136 204 197 261 136 b 447 168 408 136 447 168 l 447 335 b 333 419 439 364 404 419 b 204 275 257 419 204 353 "},"r":{"ha":474,"x_min":0,"x_max":0,"o":"m 83 529 b 110 556 83 544 96 556 l 163 556 b 188 538 175 556 183 549 l 207 483 b 364 569 226 511 278 569 b 471 514 429 569 488 549 l 419 424 b 388 411 413 411 399 406 b 347 419 383 413 363 419 b 249 363 292 419 258 382 l 249 26 b 217 0 249 7 236 0 l 110 0 b 83 26 96 0 83 13 "},"s":{"ha":506,"x_min":0,"x_max":0,"o":"m 61 38 b 53 67 53 44 47 56 l 90 142 b 122 151 96 156 110 158 b 249 118 122 151 185 118 b 296 153 276 118 296 129 b 203 222 296 178 276 193 b 46 406 96 264 46 321 b 250 569 46 490 108 569 b 421 526 332 569 392 546 b 433 489 433 518 440 503 l 399 418 b 365 408 392 406 376 404 b 250 438 365 408 303 438 b 203 406 217 438 203 424 b 279 351 203 381 228 372 b 467 156 386 310 467 264 b 246 -14 467 64 386 -14 b 61 38 154 -14 90 15 "},"t":{"ha":479,"x_min":0,"x_max":0,"o":"m 113 410 l 65 410 b 40 436 51 410 40 422 l 40 529 b 65 556 40 544 51 556 l 113 556 l 113 710 b 139 736 113 724 125 736 l 253 738 b 278 711 267 738 278 725 l 278 556 l 400 556 b 426 529 415 556 426 544 l 426 436 b 400 410 426 422 415 410 l 278 410 l 278 188 b 321 143 278 149 299 143 b 389 158 344 143 374 153 b 419 143 404 164 415 157 l 447 56 b 432 22 453 42 446 28 b 267 -14 425 18 335 -14 b 113 165 160 -14 113 53 "},"u":{"ha":699,"x_min":0,"x_max":0,"o":"m 74 529 b 100 556 74 544 86 556 l 214 556 b 240 529 228 556 240 544 l 240 256 b 342 136 240 182 278 136 b 453 240 400 136 444 190 l 453 529 b 483 556 453 550 461 556 l 589 556 b 615 529 603 556 615 544 l 615 26 b 589 0 615 13 603 0 l 538 0 b 511 21 524 0 515 10 l 494 67 b 308 -14 469 44 418 -14 b 74 260 136 -14 74 118 "},"v":{"ha":581,"x_min":0,"x_max":0,"o":"m 10 522 b 29 556 1 540 8 556 l 150 556 b 175 540 164 556 171 549 l 288 282 b 290 282 289 282 290 282 l 410 540 b 443 556 417 554 428 556 l 551 556 b 571 522 572 556 581 540 l 317 0 b 293 -14 313 -7 306 -14 l 286 -14 b 263 0 274 -14 267 -7 "},"w":{"ha":856,"x_min":0,"x_max":0,"o":"m 25 524 b 49 556 17 542 29 556 l 149 556 b 174 539 157 556 171 549 l 257 290 b 258 290 257 290 258 290 l 400 557 b 422 569 403 563 410 569 l 433 569 b 456 557 446 569 451 564 l 596 290 b 597 290 596 290 597 290 l 681 539 b 713 556 686 554 697 556 l 803 556 b 828 524 822 556 835 542 l 654 1 b 629 -14 651 -7 643 -14 l 624 -14 b 601 -1 613 -14 606 -8 l 426 322 b 425 322 426 322 425 322 l 251 -1 b 229 -14 247 -8 240 -14 l 222 -14 b 199 1 210 -14 201 -7 "},"x":{"ha":626,"x_min":0,"x_max":0,"o":"m 50 0 b 33 40 26 0 21 22 l 214 283 l 39 515 b 60 556 25 533 36 556 l 175 556 b 221 536 193 556 208 554 l 311 406 l 313 406 l 404 536 b 446 556 415 551 426 556 l 571 556 b 588 515 594 556 601 533 l 413 285 l 589 40 b 572 0 601 22 594 0 l 450 0 b 411 22 432 0 421 8 l 313 161 l 311 161 l 206 11 b 183 0 201 6 190 0 l 50 0 "},"y":{"ha":643,"x_min":0,"x_max":0,"o":"m 11 519 b 35 556 3 538 14 556 l 160 556 b 183 540 172 556 179 549 l 324 226 l 325 226 l 464 540 b 497 556 471 554 481 556 l 608 556 b 632 519 631 556 642 538 l 207 -400 b 183 -417 203 -408 194 -417 l 64 -417 b 40 -379 43 -417 31 -399 l 238 39 "},"z":{"ha":508,"x_min":0,"x_max":0,"o":"m 42 40 l 239 404 l 239 407 l 81 407 b 56 433 67 407 56 419 l 56 529 b 81 556 56 544 67 556 l 447 556 b 471 518 468 556 482 536 l 269 151 l 269 147 l 419 147 b 446 121 435 147 446 136 l 446 26 b 419 0 446 13 435 0 l 68 0 b 42 26 54 0 42 13 "},"{":{"ha":547,"x_min":0,"x_max":0,"o":"m 143 121 b 47 215 143 183 81 210 b 26 240 36 217 26 226 l 26 308 b 46 332 26 322 36 329 b 143 428 58 335 143 368 l 143 604 b 488 986 143 910 344 981 b 515 963 503 988 514 979 l 521 875 b 501 850 522 860 511 851 b 315 604 393 826 315 746 l 315 458 b 200 278 315 339 213 283 l 200 272 b 315 99 238 257 315 211 l 315 -50 b 501 -293 315 -192 393 -271 b 521 -319 511 -296 522 -304 l 515 -407 b 488 -431 514 -421 501 -432 b 143 -50 344 -425 143 -356 "},"|":{"ha":250,"x_min":0,"x_max":0,"o":"m 90 1029 b 117 1056 90 1044 103 1056 l 135 1056 b 160 1029 149 1056 160 1044 l 160 -392 b 133 -417 160 -406 147 -417 l 117 -417 b 90 -392 103 -417 90 -406 "},"}":{"ha":547,"x_min":0,"x_max":0,"o":"m 232 99 b 347 272 232 211 310 257 l 347 278 b 232 458 335 283 232 339 l 232 604 b 46 850 232 746 154 826 b 26 875 36 851 25 860 l 32 963 b 60 986 33 979 44 988 b 404 604 203 981 404 910 l 404 428 b 501 332 404 368 489 335 b 521 308 511 329 521 322 l 521 240 b 500 215 521 226 511 217 b 404 121 467 210 404 183 l 404 -50 b 60 -431 404 -356 203 -425 b 32 -407 46 -432 33 -421 l 26 -319 b 46 -293 25 -304 36 -296 b 232 -50 154 -271 232 -192 "},"~":{"ha":740,"x_min":0,"x_max":0,"o":"m 108 269 b 46 331 86 292 69 308 b 43 364 38 340 35 354 b 251 501 43 364 143 501 b 392 444 311 501 353 471 b 493 400 419 426 454 400 b 596 472 540 400 578 444 b 636 475 607 486 624 486 l 694 414 b 697 381 704 406 706 390 b 493 244 697 381 600 244 b 340 304 426 244 383 276 b 250 343 314 322 286 343 b 147 272 203 343 165 300 b 108 269 138 258 119 257 "}," ":{"ha":307,"x_min":0,"x_max":0,"o":""},"À":{"ha":921,"x_min":0,"x_max":0,"o":"m 24 0 b 0 36 3 0 -8 18 l 432 971 b 456 986 436 979 443 986 l 469 986 b 493 971 483 986 489 979 l 921 36 b 897 0 929 18 918 0 l 776 0 b 736 28 756 0 746 8 l 668 178 l 253 178 l 185 28 b 144 0 179 14 167 0 l 24 0 m 600 332 l 461 638 l 457 638 l 321 332 m 315 1174 b 307 1211 303 1179 297 1194 l 346 1283 b 382 1288 353 1296 371 1294 l 610 1151 b 618 1125 617 1147 624 1136 l 593 1076 b 558 1067 588 1064 578 1058 "},"Á":{"ha":921,"x_min":0,"x_max":0,"o":"m 24 0 b 0 36 3 0 -8 18 l 432 971 b 456 986 436 979 443 986 l 469 986 b 493 971 483 986 489 979 l 921 36 b 897 0 929 18 918 0 l 776 0 b 736 28 756 0 746 8 l 668 178 l 253 178 l 185 28 b 144 0 179 14 167 0 l 24 0 m 600 332 l 461 638 l 457 638 l 321 332 m 363 1067 b 328 1076 343 1058 333 1064 l 303 1125 b 311 1151 297 1136 304 1147 l 539 1288 b 575 1283 554 1297 568 1296 l 614 1211 b 606 1174 624 1194 618 1179 l 363 1067 "},"Â":{"ha":921,"x_min":0,"x_max":0,"o":"m 24 0 b 0 36 3 0 -8 18 l 432 971 b 456 986 436 979 443 986 l 469 986 b 493 971 483 986 489 979 l 921 36 b 897 0 929 18 918 0 l 776 0 b 736 28 756 0 746 8 l 668 178 l 253 178 l 185 28 b 144 0 179 14 167 0 l 24 0 m 600 332 l 461 638 l 457 638 l 321 332 m 325 1064 b 293 1068 308 1054 301 1057 l 257 1119 b 265 1146 250 1129 257 1140 l 446 1286 b 475 1286 454 1293 465 1293 l 656 1146 b 664 1119 664 1140 671 1129 l 628 1068 b 596 1064 619 1057 613 1054 l 461 1149 l 325 1064 "},"Ã":{"ha":921,"x_min":0,"x_max":0,"o":"m 24 0 b 0 36 3 0 -8 18 l 432 971 b 456 986 436 979 443 986 l 469 986 b 493 971 483 986 489 979 l 921 36 b 897 0 929 18 918 0 l 776 0 b 736 28 756 0 746 8 l 668 178 l 253 178 l 185 28 b 144 0 179 14 167 0 l 24 0 m 600 332 l 461 638 l 457 638 l 321 332 m 253 1125 b 244 1157 243 1132 240 1147 b 389 1274 258 1182 304 1274 b 538 1197 461 1274 485 1197 b 628 1254 586 1197 588 1283 l 667 1226 b 668 1183 679 1217 678 1200 b 533 1078 653 1157 613 1078 b 382 1156 461 1078 428 1156 b 293 1096 332 1156 335 1069 "},"Ä":{"ha":921,"x_min":0,"x_max":0,"o":"m 24 0 b 0 36 3 0 -8 18 l 432 971 b 456 986 436 979 443 986 l 469 986 b 493 971 483 986 489 979 l 921 36 b 897 0 929 18 918 0 l 776 0 b 736 28 756 0 746 8 l 668 178 l 253 178 l 185 28 b 144 0 179 14 167 0 l 24 0 m 600 332 l 461 638 l 457 638 l 321 332 m 631 1076 b 543 1165 582 1076 543 1117 b 631 1253 543 1214 582 1253 b 719 1165 679 1253 719 1214 b 631 1076 719 1117 679 1076 m 288 1076 b 200 1165 239 1076 200 1117 b 288 1253 200 1214 239 1253 b 376 1165 336 1253 376 1214 b 288 1076 376 1117 336 1076 "},"Ā":{"ha":921,"x_min":0,"x_max":0,"o":"m 24 0 b 0 36 3 0 -8 18 l 432 971 b 456 986 436 979 443 986 l 469 986 b 493 971 483 986 489 979 l 921 36 b 897 0 929 18 918 0 l 776 0 b 736 28 756 0 746 8 l 668 178 l 253 178 l 185 28 b 144 0 179 14 167 0 l 24 0 m 600 332 l 461 638 l 457 638 l 321 332 m 282 1122 b 256 1147 267 1122 256 1133 l 256 1194 b 282 1221 256 1210 267 1221 l 638 1221 b 664 1194 653 1221 664 1210 l 664 1147 b 638 1122 664 1133 653 1122 l 282 1122 "},"Ă":{"ha":921,"x_min":0,"x_max":0,"o":"m 24 0 b 0 36 3 0 -8 18 l 432 971 b 456 986 436 979 443 986 l 469 986 b 493 971 483 986 489 979 l 921 36 b 897 0 929 18 918 0 l 776 0 b 736 28 756 0 746 8 l 668 178 l 253 178 l 185 28 b 144 0 179 14 167 0 l 24 0 m 600 332 l 461 638 l 457 638 l 321 332 m 461 1064 b 267 1228 360 1064 281 1135 b 292 1257 264 1243 274 1257 l 343 1257 b 367 1238 356 1257 364 1247 b 461 1164 381 1196 415 1164 b 553 1238 503 1164 539 1200 b 576 1257 556 1250 567 1257 l 631 1257 b 656 1228 647 1257 657 1243 b 461 1064 640 1135 561 1064 "},"Å":{"ha":921,"x_min":0,"x_max":0,"o":"m 24 0 b 0 36 3 0 -8 18 l 432 971 b 456 986 436 979 443 986 l 469 986 b 493 971 483 986 489 979 l 921 36 b 897 0 929 18 918 0 l 776 0 b 736 28 756 0 746 8 l 668 178 l 253 178 l 185 28 b 144 0 179 14 167 0 l 24 0 m 600 332 l 461 638 l 457 638 l 321 332 m 460 1047 b 303 1204 372 1047 303 1117 b 460 1361 303 1292 372 1361 b 617 1204 546 1361 617 1292 b 460 1047 617 1117 546 1047 m 460 1135 b 526 1204 496 1135 526 1168 b 460 1271 526 1240 496 1271 b 390 1204 424 1271 390 1240 b 460 1135 390 1168 424 1135 "},"Ǻ":{"ha":921,"x_min":0,"x_max":0,"o":"m 308 1279 b 317 1306 303 1290 310 1301 l 544 1442 b 581 1438 560 1451 574 1450 l 619 1365 b 611 1328 629 1349 624 1333 l 368 1221 b 333 1231 349 1213 339 1218 m 24 0 b 0 36 3 0 -8 18 l 407 917 b 308 1063 349 939 308 996 b 465 1219 308 1150 378 1219 b 622 1063 551 1219 622 1150 b 518 914 622 994 578 936 l 921 36 b 897 0 929 18 918 0 l 776 0 b 736 28 756 0 746 8 l 668 178 l 253 178 l 185 28 b 144 0 179 14 167 0 l 24 0 m 465 993 b 532 1063 501 993 532 1026 b 465 1129 532 1099 501 1129 b 396 1063 429 1129 396 1099 b 465 993 396 1026 429 993 m 600 332 l 461 638 l 457 638 l 321 332 "},"Ą":{"ha":921,"x_min":0,"x_max":0,"o":"m 24 0 b 0 36 3 0 -8 18 l 432 971 b 456 986 436 979 443 986 l 469 986 b 493 971 483 986 489 979 l 921 36 b 897 0 929 18 918 0 l 813 0 b 750 -133 788 -25 750 -74 b 842 -222 750 -182 782 -222 b 906 -210 869 -222 889 -214 b 933 -233 921 -206 933 -217 l 933 -275 b 914 -301 933 -287 924 -297 b 822 -315 908 -303 864 -315 b 646 -162 726 -315 646 -267 b 740 17 646 -58 728 7 l 668 178 l 253 178 l 185 28 b 144 0 179 14 167 0 l 24 0 m 600 332 l 461 638 l 457 638 l 321 332 "},"Æ":{"ha":1250,"x_min":0,"x_max":0,"o":"m 1 0 b -15 36 -19 0 -26 18 l 542 929 b 603 972 560 957 567 972 l 1151 972 b 1178 946 1167 972 1178 960 l 1178 832 b 1151 806 1178 818 1167 806 l 736 806 l 736 578 l 1083 578 b 1110 551 1097 578 1110 565 l 1110 436 b 1083 410 1110 421 1097 410 l 736 410 l 736 167 l 1151 167 b 1178 140 1167 167 1178 154 l 1178 26 b 1151 0 1178 13 1167 0 l 585 0 b 558 26 569 0 558 13 l 558 178 l 267 178 l 168 21 b 133 0 160 8 150 0 l 1 0 m 558 332 l 558 646 l 364 332 "},"Ǽ":{"ha":1250,"x_min":0,"x_max":0,"o":"m 1 0 b -15 36 -19 0 -26 18 l 542 929 b 603 972 560 957 567 972 l 1151 972 b 1178 946 1167 972 1178 960 l 1178 832 b 1151 806 1178 818 1167 806 l 736 806 l 736 578 l 1083 578 b 1110 551 1097 578 1110 565 l 1110 436 b 1083 410 1110 421 1097 410 l 736 410 l 736 167 l 1151 167 b 1178 140 1167 167 1178 154 l 1178 26 b 1151 0 1178 13 1167 0 l 585 0 b 558 26 569 0 558 13 l 558 178 l 267 178 l 168 21 b 133 0 160 8 150 0 l 1 0 m 558 332 l 558 646 l 364 332 m 765 1068 b 731 1078 746 1060 736 1065 l 706 1126 b 714 1153 700 1138 707 1149 l 942 1289 b 978 1285 957 1299 971 1297 l 1017 1213 b 1008 1175 1026 1196 1021 1181 l 765 1068 "},"Ć":{"ha":950,"x_min":0,"x_max":0,"o":"m 56 485 b 557 986 56 763 279 986 b 893 857 697 986 799 942 b 894 818 906 846 906 829 l 810 731 b 775 731 800 719 786 719 b 561 813 717 782 639 813 b 251 489 383 813 251 664 b 563 168 251 315 385 168 b 775 247 646 168 717 200 b 810 247 786 257 801 256 l 896 158 b 894 121 907 149 904 131 b 557 -14 800 29 681 -14 b 56 485 279 -14 56 207 m 465 1067 b 431 1076 446 1058 436 1064 l 406 1125 b 414 1151 400 1136 407 1147 l 642 1288 b 678 1283 657 1297 671 1296 l 717 1211 b 708 1174 726 1194 721 1179 l 465 1067 "},"Ĉ":{"ha":950,"x_min":0,"x_max":0,"o":"m 56 485 b 557 986 56 763 279 986 b 893 857 697 986 799 942 b 894 818 906 846 906 829 l 810 731 b 775 731 800 719 786 719 b 561 813 717 782 639 813 b 251 489 383 813 251 664 b 563 168 251 315 385 168 b 775 247 646 168 717 200 b 810 247 786 257 801 256 l 896 158 b 894 121 907 149 904 131 b 557 -14 800 29 681 -14 b 56 485 279 -14 56 207 m 421 1064 b 389 1068 404 1054 397 1057 l 353 1119 b 361 1146 346 1129 353 1140 l 542 1286 b 571 1286 550 1293 561 1293 l 751 1146 b 760 1119 760 1140 767 1129 l 724 1068 b 692 1064 715 1057 708 1054 l 557 1149 l 421 1064 "},"Č":{"ha":950,"x_min":0,"x_max":0,"o":"m 56 485 b 557 986 56 763 279 986 b 893 857 697 986 799 942 b 894 818 906 846 906 829 l 810 731 b 775 731 800 719 786 719 b 561 813 717 782 639 813 b 251 489 383 813 251 664 b 563 168 251 315 385 168 b 775 247 646 168 717 200 b 810 247 786 257 801 256 l 896 158 b 894 121 907 149 904 131 b 557 -14 800 29 681 -14 b 56 485 279 -14 56 207 m 361 1201 b 353 1228 353 1207 346 1218 l 389 1279 b 421 1283 397 1290 404 1293 l 556 1199 l 692 1283 b 724 1279 708 1293 715 1290 l 760 1228 b 751 1201 767 1218 760 1207 l 571 1061 b 542 1061 563 1054 551 1054 "},"Ċ":{"ha":950,"x_min":0,"x_max":0,"o":"m 56 485 b 557 986 56 763 279 986 b 893 857 697 986 799 942 b 894 818 906 846 906 829 l 810 731 b 775 731 800 719 786 719 b 561 813 717 782 639 813 b 251 489 383 813 251 664 b 563 168 251 315 385 168 b 775 247 646 168 717 200 b 810 247 786 257 801 256 l 896 158 b 894 121 907 149 904 131 b 557 -14 800 29 681 -14 b 56 485 279 -14 56 207 m 558 1085 b 458 1185 503 1085 458 1129 b 558 1285 458 1240 503 1285 b 658 1185 614 1285 658 1240 b 558 1085 658 1129 614 1085 "},"Ç":{"ha":953,"x_min":0,"x_max":0,"o":"m 469 -6 b 57 485 235 35 57 238 b 558 986 57 763 281 986 b 894 857 699 986 800 942 b 896 818 907 846 907 829 l 811 731 b 776 731 801 719 788 719 b 563 813 718 782 640 813 b 253 489 385 813 253 664 b 564 168 253 315 386 168 b 776 247 647 168 718 200 b 811 247 788 257 803 256 l 897 158 b 896 121 908 149 906 131 b 561 -14 801 29 683 -12 l 561 -72 b 696 -215 646 -83 696 -137 b 549 -361 696 -296 631 -361 b 443 -312 507 -361 467 -340 b 447 -274 432 -300 435 -285 l 475 -250 b 504 -251 483 -242 497 -243 b 546 -268 515 -264 533 -268 b 594 -217 574 -268 594 -244 b 493 -149 594 -183 565 -154 b 469 -124 472 -146 469 -131 l 469 -6 "},"Ď":{"ha":1025,"x_min":0,"x_max":0,"o":"m 126 946 b 151 972 126 960 138 972 l 481 972 b 968 488 749 972 968 754 b 481 0 968 218 749 0 l 151 0 b 126 26 138 0 126 13 m 464 169 b 776 488 644 169 776 306 b 464 804 776 668 644 804 l 306 804 l 306 169 m 290 1201 b 282 1228 282 1207 275 1218 l 318 1279 b 350 1283 326 1290 333 1293 l 485 1199 l 621 1283 b 653 1279 638 1293 644 1290 l 689 1228 b 681 1201 696 1218 689 1207 l 500 1061 b 471 1061 492 1054 481 1054 "},"Đ":{"ha":1032,"x_min":0,"x_max":0,"o":"m 133 446 l 93 446 b 68 472 79 446 68 458 l 68 490 b 93 517 68 504 79 517 l 133 517 l 133 946 b 158 972 133 960 144 972 l 488 972 b 975 488 756 972 975 754 b 488 0 975 218 756 0 l 158 0 b 133 26 144 0 133 13 m 471 169 b 783 488 651 169 783 306 b 471 804 783 668 651 804 l 313 804 l 313 517 l 542 517 b 568 490 557 517 568 504 l 568 471 b 542 446 568 457 557 446 l 313 446 l 313 169 "},"Ð":{"ha":1032,"x_min":0,"x_max":0,"o":"m 133 446 l 93 446 b 68 472 79 446 68 458 l 68 490 b 93 517 68 504 79 517 l 133 517 l 133 946 b 158 972 133 960 144 972 l 488 972 b 975 488 756 972 975 754 b 488 0 975 218 756 0 l 158 0 b 133 26 144 0 133 13 m 471 169 b 783 488 651 169 783 306 b 471 804 783 668 651 804 l 313 804 l 313 517 l 542 517 b 568 490 557 517 568 504 l 568 471 b 542 446 568 457 557 446 l 313 446 l 313 169 "},"È":{"ha":817,"x_min":0,"x_max":0,"o":"m 126 946 b 153 972 126 960 138 972 l 718 972 b 744 946 733 972 744 960 l 744 832 b 718 806 744 818 733 806 l 307 806 l 307 578 l 650 578 b 676 551 664 578 676 565 l 676 436 b 650 410 676 421 664 410 l 307 410 l 307 167 l 718 167 b 744 140 733 167 744 154 l 744 26 b 718 0 744 13 733 0 l 153 0 b 126 26 138 0 126 13 m 299 1174 b 290 1211 286 1179 281 1194 l 329 1283 b 365 1288 336 1296 354 1294 l 593 1151 b 601 1125 600 1147 607 1136 l 576 1076 b 542 1067 571 1064 561 1058 "},"É":{"ha":817,"x_min":0,"x_max":0,"o":"m 126 946 b 153 972 126 960 138 972 l 718 972 b 744 946 733 972 744 960 l 744 832 b 718 806 744 818 733 806 l 307 806 l 307 578 l 650 578 b 676 551 664 578 676 565 l 676 436 b 650 410 676 421 664 410 l 307 410 l 307 167 l 718 167 b 744 140 733 167 744 154 l 744 26 b 718 0 744 13 733 0 l 153 0 b 126 26 138 0 126 13 m 347 1067 b 313 1076 328 1058 318 1064 l 288 1125 b 296 1151 282 1136 289 1147 l 524 1288 b 560 1283 539 1297 553 1296 l 599 1211 b 590 1174 608 1194 603 1179 l 347 1067 "},"Ê":{"ha":817,"x_min":0,"x_max":0,"o":"m 126 946 b 153 972 126 960 138 972 l 718 972 b 744 946 733 972 744 960 l 744 832 b 718 806 744 818 733 806 l 307 806 l 307 578 l 650 578 b 676 551 664 578 676 565 l 676 436 b 650 410 676 421 664 410 l 307 410 l 307 167 l 718 167 b 744 140 733 167 744 154 l 744 26 b 718 0 744 13 733 0 l 153 0 b 126 26 138 0 126 13 m 301 1064 b 269 1068 285 1054 278 1057 l 233 1119 b 242 1146 226 1129 233 1140 l 422 1286 b 451 1286 431 1293 442 1293 l 632 1146 b 640 1119 640 1140 647 1129 l 604 1068 b 572 1064 596 1057 589 1054 l 438 1149 l 301 1064 "},"Ě":{"ha":817,"x_min":0,"x_max":0,"o":"m 126 946 b 153 972 126 960 138 972 l 718 972 b 744 946 733 972 744 960 l 744 832 b 718 806 744 818 733 806 l 307 806 l 307 578 l 650 578 b 676 551 664 578 676 565 l 676 436 b 650 410 676 421 664 410 l 307 410 l 307 167 l 718 167 b 744 140 733 167 744 154 l 744 26 b 718 0 744 13 733 0 l 153 0 b 126 26 138 0 126 13 m 243 1201 b 235 1228 235 1207 228 1218 l 271 1279 b 303 1283 279 1290 286 1293 l 438 1199 l 574 1283 b 606 1279 590 1293 597 1290 l 642 1228 b 633 1201 649 1218 642 1207 l 453 1061 b 424 1061 444 1054 433 1054 "},"Ë":{"ha":817,"x_min":0,"x_max":0,"o":"m 126 946 b 153 972 126 960 138 972 l 718 972 b 744 946 733 972 744 960 l 744 832 b 718 806 744 818 733 806 l 307 806 l 307 578 l 650 578 b 676 551 664 578 676 565 l 676 436 b 650 410 676 421 664 410 l 307 410 l 307 167 l 718 167 b 744 140 733 167 744 154 l 744 26 b 718 0 744 13 733 0 l 153 0 b 126 26 138 0 126 13 m 614 1076 b 526 1165 565 1076 526 1117 b 614 1253 526 1214 565 1253 b 703 1165 663 1253 703 1214 b 614 1076 703 1117 663 1076 m 271 1076 b 183 1165 222 1076 183 1117 b 271 1253 183 1214 222 1253 b 360 1165 319 1253 360 1214 b 271 1076 360 1117 319 1076 "},"Ē":{"ha":817,"x_min":0,"x_max":0,"o":"m 126 946 b 153 972 126 960 138 972 l 718 972 b 744 946 733 972 744 960 l 744 832 b 718 806 744 818 733 806 l 307 806 l 307 578 l 650 578 b 676 551 664 578 676 565 l 676 436 b 650 410 676 421 664 410 l 307 410 l 307 167 l 718 167 b 744 140 733 167 744 154 l 744 26 b 718 0 744 13 733 0 l 153 0 b 126 26 138 0 126 13 m 263 1122 b 236 1147 247 1122 236 1133 l 236 1194 b 263 1221 236 1210 247 1221 l 618 1221 b 644 1194 633 1221 644 1210 l 644 1147 b 618 1122 644 1133 633 1122 l 263 1122 "},"Ĕ":{"ha":817,"x_min":0,"x_max":0,"o":"m 126 946 b 153 972 126 960 138 972 l 718 972 b 744 946 733 972 744 960 l 744 832 b 718 806 744 818 733 806 l 307 806 l 307 578 l 650 578 b 676 551 664 578 676 565 l 676 436 b 650 410 676 421 664 410 l 307 410 l 307 167 l 718 167 b 744 140 733 167 744 154 l 744 26 b 718 0 744 13 733 0 l 153 0 b 126 26 138 0 126 13 m 447 1064 b 253 1228 346 1064 267 1135 b 278 1257 250 1243 260 1257 l 329 1257 b 353 1238 342 1257 350 1247 b 447 1164 367 1196 401 1164 b 539 1238 489 1164 525 1200 b 563 1257 542 1250 553 1257 l 617 1257 b 642 1228 633 1257 643 1243 b 447 1064 626 1135 547 1064 "},"Ė":{"ha":817,"x_min":0,"x_max":0,"o":"m 126 946 b 153 972 126 960 138 972 l 718 972 b 744 946 733 972 744 960 l 744 832 b 718 806 744 818 733 806 l 307 806 l 307 578 l 650 578 b 676 551 664 578 676 565 l 676 436 b 650 410 676 421 664 410 l 307 410 l 307 167 l 718 167 b 744 140 733 167 744 154 l 744 26 b 718 0 744 13 733 0 l 153 0 b 126 26 138 0 126 13 m 447 1085 b 347 1185 392 1085 347 1129 b 447 1285 347 1240 392 1285 b 547 1185 503 1285 547 1240 b 447 1085 547 1129 503 1085 "},"Ę":{"ha":817,"x_min":0,"x_max":0,"o":"m 126 946 b 153 972 126 960 138 972 l 718 972 b 744 946 733 972 744 960 l 744 832 b 718 806 744 818 733 806 l 307 806 l 307 578 l 650 578 b 676 551 664 578 676 565 l 676 436 b 650 410 676 421 664 410 l 307 410 l 307 167 l 718 167 b 744 140 733 167 744 154 l 744 44 b 722 0 744 14 733 8 b 658 -133 697 -25 658 -74 b 750 -222 658 -182 690 -222 b 814 -210 778 -222 797 -214 b 842 -233 829 -206 842 -217 l 842 -275 b 822 -301 842 -287 832 -297 b 731 -315 817 -303 772 -315 b 554 -162 635 -315 554 -267 b 631 0 554 -85 600 -28 l 153 0 b 126 26 138 0 126 13 "},"Ĝ":{"ha":989,"x_min":0,"x_max":0,"o":"m 57 485 b 556 986 57 763 279 986 b 894 857 681 986 800 938 b 896 818 906 846 907 829 l 810 728 b 774 728 799 717 786 717 b 564 808 714 781 640 808 b 253 486 390 808 253 660 b 565 168 253 314 390 168 b 731 203 643 168 703 192 l 731 321 l 619 321 b 593 346 604 321 593 332 l 593 456 b 619 482 593 471 604 482 l 886 482 b 911 456 900 482 911 469 l 911 100 b 900 78 911 89 906 82 b 556 -12 900 78 757 -12 b 57 485 279 -12 57 207 m 418 1064 b 386 1068 401 1054 394 1057 l 350 1119 b 358 1146 343 1129 350 1140 l 539 1286 b 568 1286 547 1293 558 1293 l 749 1146 b 757 1119 757 1140 764 1129 l 721 1068 b 689 1064 713 1057 706 1054 l 554 1149 l 418 1064 "},"Ğ":{"ha":989,"x_min":0,"x_max":0,"o":"m 57 485 b 556 986 57 763 279 986 b 894 857 681 986 800 938 b 896 818 906 846 907 829 l 810 728 b 774 728 799 717 786 717 b 564 808 714 781 640 808 b 253 486 390 808 253 660 b 565 168 253 314 390 168 b 731 203 643 168 703 192 l 731 321 l 619 321 b 593 346 604 321 593 332 l 593 456 b 619 482 593 471 604 482 l 886 482 b 911 456 900 482 911 469 l 911 100 b 900 78 911 89 906 82 b 556 -12 900 78 757 -12 b 57 485 279 -12 57 207 m 557 1064 b 363 1228 456 1064 376 1135 b 388 1257 360 1243 369 1257 l 439 1257 b 463 1238 451 1257 460 1247 b 557 1164 476 1196 511 1164 b 649 1238 599 1164 635 1200 b 672 1257 651 1250 663 1257 l 726 1257 b 751 1228 743 1257 753 1243 b 557 1064 736 1135 657 1064 "},"Ġ":{"ha":989,"x_min":0,"x_max":0,"o":"m 57 485 b 556 986 57 763 279 986 b 894 857 681 986 800 938 b 896 818 906 846 907 829 l 810 728 b 774 728 799 717 786 717 b 564 808 714 781 640 808 b 253 486 390 808 253 660 b 565 168 253 314 390 168 b 731 203 643 168 703 192 l 731 321 l 619 321 b 593 346 604 321 593 332 l 593 456 b 619 482 593 471 604 482 l 886 482 b 911 456 900 482 911 469 l 911 100 b 900 78 911 89 906 82 b 556 -12 900 78 757 -12 b 57 485 279 -12 57 207 m 557 1085 b 457 1185 501 1085 457 1129 b 557 1285 457 1240 501 1285 b 657 1185 613 1285 657 1240 b 557 1085 657 1129 613 1085 "},"Ģ":{"ha":989,"x_min":0,"x_max":0,"o":"m 57 485 b 556 986 57 763 279 986 b 894 857 681 986 800 938 b 896 818 906 846 907 829 l 810 728 b 774 728 799 717 786 717 b 564 808 714 781 640 808 b 253 486 390 808 253 660 b 565 168 253 314 390 168 b 731 203 643 168 703 192 l 731 321 l 619 321 b 593 346 604 321 593 332 l 593 456 b 619 482 593 471 604 482 l 886 482 b 911 456 900 482 911 469 l 911 100 b 900 78 911 89 906 82 b 556 -12 900 78 757 -12 b 57 485 279 -12 57 207 m 550 -126 b 665 -275 600 -126 665 -161 b 540 -526 665 -411 576 -494 b 508 -525 529 -535 518 -536 l 488 -506 b 492 -474 479 -496 482 -482 b 586 -304 506 -464 585 -401 b 543 -311 585 -304 567 -311 b 450 -219 493 -311 450 -271 b 550 -126 450 -168 493 -126 "},"Ĥ":{"ha":1068,"x_min":0,"x_max":0,"o":"m 126 946 b 153 972 126 960 139 972 l 282 972 b 308 946 297 972 308 960 l 308 578 l 761 578 l 761 946 b 788 972 761 960 772 972 l 915 972 b 942 946 929 972 942 960 l 942 26 b 915 0 942 13 929 0 l 788 0 b 761 26 772 0 761 13 l 761 410 l 308 410 l 308 26 b 282 0 308 13 297 0 l 153 0 b 126 26 139 0 126 13 m 404 1064 b 372 1068 388 1054 381 1057 l 336 1119 b 344 1146 329 1129 336 1140 l 525 1286 b 554 1286 533 1293 544 1293 l 735 1146 b 743 1119 743 1140 750 1129 l 707 1068 b 675 1064 699 1057 692 1054 l 540 1149 l 404 1064 "},"Ħ":{"ha":1068,"x_min":0,"x_max":0,"o":"m 126 740 l 90 740 b 65 767 76 740 65 753 l 65 785 b 90 811 65 799 76 811 l 126 811 l 126 946 b 153 972 126 960 139 972 l 282 972 b 308 946 297 972 308 960 l 308 811 l 761 811 l 761 946 b 788 972 761 960 772 972 l 915 972 b 942 946 929 972 942 960 l 942 811 l 978 811 b 1004 785 993 811 1004 799 l 1004 765 b 978 740 1004 751 993 740 l 942 740 l 942 26 b 915 0 942 13 929 0 l 788 0 b 761 26 772 0 761 13 l 761 410 l 308 410 l 308 26 b 282 0 308 13 297 0 l 153 0 b 126 26 139 0 126 13 m 761 578 l 761 740 l 308 740 l 308 578 "},"Ì":{"ha":435,"x_min":0,"x_max":0,"o":"m 126 946 b 153 972 126 960 139 972 l 282 972 b 308 946 296 972 308 960 l 308 26 b 282 0 308 13 296 0 l 153 0 b 126 26 139 0 126 13 m 71 1174 b 63 1211 58 1179 53 1194 l 101 1283 b 138 1288 108 1296 126 1294 l 365 1151 b 374 1125 372 1147 379 1136 l 349 1076 b 314 1067 343 1064 333 1058 "},"Í":{"ha":435,"x_min":0,"x_max":0,"o":"m 126 946 b 153 972 126 960 139 972 l 282 972 b 308 946 296 972 308 960 l 308 26 b 282 0 308 13 296 0 l 153 0 b 126 26 139 0 126 13 m 119 1067 b 85 1076 100 1058 90 1064 l 60 1125 b 68 1151 54 1136 61 1147 l 296 1288 b 332 1283 311 1297 325 1296 l 371 1211 b 363 1174 381 1194 375 1179 l 119 1067 "},"Ĭ":{"ha":435,"x_min":0,"x_max":0,"o":"m 126 946 b 153 972 126 960 139 972 l 282 972 b 308 946 296 972 308 960 l 308 26 b 282 0 308 13 296 0 l 153 0 b 126 26 139 0 126 13 m 218 1064 b 24 1228 117 1064 38 1135 b 49 1257 21 1243 31 1257 l 100 1257 b 124 1238 113 1257 121 1247 b 218 1164 138 1196 172 1164 b 310 1238 260 1164 296 1200 b 333 1257 313 1250 324 1257 l 388 1257 b 413 1228 404 1257 414 1243 b 218 1064 397 1135 318 1064 "},"Î":{"ha":435,"x_min":0,"x_max":0,"o":"m 126 946 b 153 972 126 960 139 972 l 282 972 b 308 946 296 972 308 960 l 308 26 b 282 0 308 13 296 0 l 153 0 b 126 26 139 0 126 13 m 79 1064 b 47 1068 63 1054 56 1057 l 11 1119 b 19 1146 4 1129 11 1140 l 200 1286 b 229 1286 208 1293 219 1293 l 410 1146 b 418 1119 418 1140 425 1129 l 382 1068 b 350 1064 374 1057 367 1054 l 215 1149 l 79 1064 "},"Ĩ":{"ha":435,"x_min":0,"x_max":0,"o":"m 126 946 b 153 972 126 960 139 972 l 282 972 b 308 946 296 972 308 960 l 308 26 b 282 0 308 13 296 0 l 153 0 b 126 26 139 0 126 13 m 11 1125 b 3 1157 1 1132 -1 1147 b 147 1274 17 1182 63 1274 b 296 1197 219 1274 243 1197 b 386 1254 344 1197 346 1283 l 425 1226 b 426 1183 438 1217 436 1200 b 292 1078 411 1157 371 1078 b 140 1156 219 1078 186 1156 b 51 1096 90 1156 93 1069 "},"Ï":{"ha":435,"x_min":0,"x_max":0,"o":"m 126 946 b 153 972 126 960 139 972 l 282 972 b 308 946 296 972 308 960 l 308 26 b 282 0 308 13 296 0 l 153 0 b 126 26 139 0 126 13 m 388 1076 b 300 1165 339 1076 300 1117 b 388 1253 300 1214 339 1253 b 476 1165 436 1253 476 1214 b 388 1076 476 1117 436 1076 m 44 1076 b -43 1165 -4 1076 -43 1117 b 44 1253 -43 1214 -4 1253 b 133 1165 93 1253 133 1214 b 44 1076 133 1117 93 1076 "},"Ī":{"ha":435,"x_min":0,"x_max":0,"o":"m 126 946 b 153 972 126 960 139 972 l 282 972 b 308 946 296 972 308 960 l 308 26 b 282 0 308 13 296 0 l 153 0 b 126 26 139 0 126 13 m 40 1122 b 14 1147 25 1122 14 1133 l 14 1194 b 40 1221 14 1210 25 1221 l 396 1221 b 422 1194 411 1221 422 1210 l 422 1147 b 396 1122 422 1133 411 1122 l 40 1122 "},"İ":{"ha":435,"x_min":0,"x_max":0,"o":"m 126 946 b 153 972 126 960 139 972 l 282 972 b 308 946 296 972 308 960 l 308 26 b 282 0 308 13 296 0 l 153 0 b 126 26 139 0 126 13 m 218 1085 b 118 1185 163 1085 118 1129 b 218 1285 118 1240 163 1285 b 318 1185 274 1285 318 1240 b 218 1085 318 1129 274 1085 "},"Į":{"ha":435,"x_min":0,"x_max":0,"o":"m 126 946 b 153 972 126 960 139 972 l 282 972 b 308 946 296 972 308 960 l 308 26 b 282 0 308 13 296 0 l 257 0 b 194 -133 232 -25 194 -74 b 286 -222 194 -182 226 -222 b 350 -210 314 -222 333 -214 b 378 -233 365 -206 378 -217 l 378 -275 b 358 -301 378 -287 368 -297 b 267 -315 353 -303 308 -315 b 90 -162 171 -315 90 -267 b 167 0 90 -85 136 -28 l 153 0 b 126 26 139 0 126 13 "},"Ĵ":{"ha":581,"x_min":0,"x_max":0,"o":"m -22 88 b -19 122 -29 99 -28 113 l 53 196 b 94 194 68 210 82 207 b 186 150 113 175 140 150 b 297 290 240 150 297 194 l 297 946 b 324 972 297 960 308 972 l 454 972 b 481 946 469 972 481 960 l 481 290 b 189 -14 481 97 351 -14 b -22 88 68 -14 1 58 m 256 1064 b 224 1068 239 1054 232 1057 l 188 1119 b 196 1146 181 1129 188 1140 l 376 1286 b 406 1286 385 1293 396 1293 l 586 1146 b 594 1119 594 1140 601 1129 l 558 1068 b 526 1064 550 1057 543 1054 l 392 1149 l 256 1064 "},"Ķ":{"ha":910,"x_min":0,"x_max":0,"o":"m 126 939 b 160 972 126 957 140 972 l 282 972 b 315 939 300 972 315 957 l 315 564 l 665 958 b 692 972 671 965 679 972 l 831 972 b 853 922 857 972 871 943 l 490 514 l 879 49 b 854 0 893 31 882 0 l 703 0 b 678 10 689 0 681 6 l 315 457 l 315 33 b 282 0 315 15 300 0 l 160 0 b 126 33 140 0 126 15 m 485 -126 b 600 -275 535 -126 600 -161 b 475 -526 600 -411 511 -494 b 443 -525 464 -535 453 -536 l 422 -506 b 426 -474 414 -496 417 -482 b 521 -304 440 -464 519 -401 b 478 -311 519 -304 501 -311 b 385 -219 428 -311 385 -271 b 485 -126 385 -168 428 -126 "},"Ĺ":{"ha":701,"x_min":0,"x_max":0,"o":"m 126 946 b 153 972 126 960 138 972 l 281 972 b 307 946 294 972 307 960 l 307 167 l 661 167 b 688 140 676 167 688 154 l 688 26 b 661 0 688 13 676 0 l 153 0 b 126 26 138 0 126 13 m 118 1067 b 83 1076 99 1058 89 1064 l 58 1125 b 67 1151 53 1136 60 1147 l 294 1288 b 331 1283 310 1297 324 1296 l 369 1211 b 361 1174 379 1194 374 1179 l 118 1067 "},"Ľ":{"ha":701,"x_min":0,"x_max":0,"o":"m 126 946 b 153 972 126 960 138 972 l 281 972 b 307 946 294 972 307 960 l 307 167 l 661 167 b 688 140 676 167 688 154 l 688 26 b 661 0 688 13 676 0 l 153 0 b 126 26 138 0 126 13 m 551 986 b 667 838 601 986 667 951 b 542 586 667 701 578 618 b 510 588 531 578 519 576 l 489 607 b 493 639 481 617 483 631 b 588 808 507 649 586 711 b 544 801 586 808 568 801 b 451 893 494 801 451 842 b 551 986 451 944 494 986 "},"Ļ":{"ha":703,"x_min":0,"x_max":0,"o":"m 126 946 b 153 972 126 960 138 972 l 281 972 b 307 946 294 972 307 960 l 307 167 l 661 167 b 688 140 676 167 688 154 l 688 26 b 661 0 688 13 676 0 l 153 0 b 126 26 138 0 126 13 m 406 -126 b 521 -275 456 -126 521 -161 b 396 -526 521 -411 432 -494 b 364 -525 385 -535 374 -536 l 343 -506 b 347 -474 335 -496 338 -482 b 442 -304 361 -464 440 -401 b 399 -311 440 -304 422 -311 b 306 -219 349 -311 306 -271 b 406 -126 306 -168 349 -126 "},"Ł":{"ha":719,"x_min":0,"x_max":0,"o":"m 144 425 l 113 408 b 78 418 101 401 85 406 l 68 435 b 76 469 61 446 64 463 l 144 507 l 144 946 b 171 972 144 960 156 972 l 299 972 b 325 946 313 972 325 960 l 325 613 l 446 683 b 482 674 460 690 475 685 l 492 656 b 482 621 499 644 494 629 l 325 529 l 325 167 l 679 167 b 706 140 694 167 706 154 l 706 26 b 679 0 706 13 694 0 l 171 0 b 144 26 156 0 144 13 "},"Ŀ":{"ha":801,"x_min":0,"x_max":0,"o":"m 126 946 b 153 972 126 960 138 972 l 281 972 b 307 946 294 972 307 960 l 307 167 l 661 167 b 688 140 676 167 688 154 l 688 26 b 661 0 688 13 676 0 l 153 0 b 126 26 138 0 126 13 m 668 394 b 568 494 613 394 568 439 b 668 594 568 550 613 594 b 768 494 724 594 768 550 b 668 394 768 439 724 394 "},"Ń":{"ha":1074,"x_min":0,"x_max":0,"o":"m 126 961 b 153 986 126 975 139 986 l 188 986 l 765 372 l 767 372 l 767 946 b 793 972 767 960 778 972 l 921 972 b 947 946 935 972 947 960 l 947 11 b 921 -14 947 -3 935 -14 l 888 -14 l 307 624 l 306 624 l 306 26 b 279 0 306 13 294 0 l 153 0 b 126 26 139 0 126 13 m 443 1067 b 408 1076 424 1058 414 1064 l 383 1125 b 392 1151 378 1136 385 1147 l 619 1288 b 656 1283 635 1297 649 1296 l 694 1211 b 686 1174 704 1194 699 1179 l 443 1067 "},"Ň":{"ha":1074,"x_min":0,"x_max":0,"o":"m 126 961 b 153 986 126 975 139 986 l 188 986 l 765 372 l 767 372 l 767 946 b 793 972 767 960 778 972 l 921 972 b 947 946 935 972 947 960 l 947 11 b 921 -14 947 -3 935 -14 l 888 -14 l 307 624 l 306 624 l 306 26 b 279 0 306 13 294 0 l 153 0 b 126 26 139 0 126 13 m 339 1201 b 331 1228 331 1207 324 1218 l 367 1279 b 399 1283 375 1290 382 1293 l 533 1199 l 669 1283 b 701 1279 686 1293 693 1290 l 738 1228 b 729 1201 744 1218 738 1207 l 549 1061 b 519 1061 540 1054 529 1054 "},"Ñ":{"ha":1074,"x_min":0,"x_max":0,"o":"m 126 961 b 153 986 126 975 139 986 l 188 986 l 765 372 l 767 372 l 767 946 b 793 972 767 960 778 972 l 921 972 b 947 946 935 972 947 960 l 947 11 b 921 -14 947 -3 935 -14 l 888 -14 l 307 624 l 306 624 l 306 26 b 279 0 306 13 294 0 l 153 0 b 126 26 139 0 126 13 m 329 1125 b 321 1157 319 1132 317 1147 b 465 1274 335 1182 381 1274 b 614 1197 538 1274 561 1197 b 704 1254 663 1197 664 1283 l 743 1226 b 744 1183 756 1217 754 1200 b 610 1078 729 1157 689 1078 b 458 1156 538 1078 504 1156 b 369 1096 408 1156 411 1069 "},"Ņ":{"ha":1074,"x_min":0,"x_max":0,"o":"m 126 961 b 153 986 126 975 139 986 l 188 986 l 765 372 l 767 372 l 767 946 b 793 972 767 960 778 972 l 921 972 b 947 946 935 972 947 960 l 947 11 b 921 -14 947 -3 935 -14 l 888 -14 l 307 624 l 306 624 l 306 26 b 279 0 306 13 294 0 l 153 0 b 126 26 139 0 126 13 m 554 -126 b 669 -275 604 -126 669 -161 b 544 -526 669 -411 581 -494 b 513 -525 533 -535 522 -536 l 492 -506 b 496 -474 483 -496 486 -482 b 590 -304 510 -464 589 -401 b 547 -311 589 -304 571 -311 b 454 -219 497 -311 454 -271 b 554 -126 454 -168 497 -126 "},"Ò":{"ha":1111,"x_min":0,"x_max":0,"o":"m 57 485 b 556 986 57 763 278 986 b 1056 485 833 986 1056 763 b 556 -14 1056 207 833 -14 b 57 485 278 -14 57 207 m 238 485 b 556 167 238 310 381 167 b 875 485 731 167 875 310 b 556 806 875 660 731 806 b 238 485 381 806 238 660 m 414 1174 b 406 1211 401 1179 396 1194 l 444 1283 b 481 1288 451 1296 469 1294 l 708 1151 b 717 1125 715 1147 722 1136 l 692 1076 b 657 1067 686 1064 676 1058 "},"Ó":{"ha":1111,"x_min":0,"x_max":0,"o":"m 57 485 b 556 986 57 763 278 986 b 1056 485 833 986 1056 763 b 556 -14 1056 207 833 -14 b 57 485 278 -14 57 207 m 238 485 b 556 167 238 310 381 167 b 875 485 731 167 875 310 b 556 806 875 660 731 806 b 238 485 381 806 238 660 m 460 1067 b 425 1076 440 1058 431 1064 l 400 1125 b 408 1151 394 1136 401 1147 l 636 1288 b 672 1283 651 1297 665 1296 l 711 1211 b 703 1174 721 1194 715 1179 l 460 1067 "},"Ô":{"ha":1111,"x_min":0,"x_max":0,"o":"m 57 485 b 556 986 57 763 278 986 b 1056 485 833 986 1056 763 b 556 -14 1056 207 833 -14 b 57 485 278 -14 57 207 m 238 485 b 556 167 238 310 381 167 b 875 485 731 167 875 310 b 556 806 875 660 731 806 b 238 485 381 806 238 660 m 419 1064 b 388 1068 403 1054 396 1057 l 351 1119 b 360 1146 344 1129 351 1140 l 540 1286 b 569 1286 549 1293 560 1293 l 750 1146 b 758 1119 758 1140 765 1129 l 722 1068 b 690 1064 714 1057 707 1054 l 556 1149 l 419 1064 "},"Õ":{"ha":1111,"x_min":0,"x_max":0,"o":"m 57 485 b 556 986 57 763 278 986 b 1056 485 833 986 1056 763 b 556 -14 1056 207 833 -14 b 57 485 278 -14 57 207 m 238 485 b 556 167 238 310 381 167 b 875 485 731 167 875 310 b 556 806 875 660 731 806 b 238 485 381 806 238 660 m 350 1125 b 342 1157 340 1132 338 1147 b 486 1274 356 1182 401 1274 b 635 1197 558 1274 582 1197 b 725 1254 683 1197 685 1283 l 764 1226 b 765 1183 776 1217 775 1200 b 631 1078 750 1157 710 1078 b 479 1156 558 1078 525 1156 b 390 1096 429 1156 432 1069 "},"Ö":{"ha":1111,"x_min":0,"x_max":0,"o":"m 57 485 b 556 986 57 763 278 986 b 1056 485 833 986 1056 763 b 556 -14 1056 207 833 -14 b 57 485 278 -14 57 207 m 238 485 b 556 167 238 310 381 167 b 875 485 731 167 875 310 b 556 806 875 660 731 806 b 238 485 381 806 238 660 m 726 1076 b 639 1165 678 1076 639 1117 b 726 1253 639 1214 678 1253 b 815 1165 775 1253 815 1214 b 726 1076 815 1117 775 1076 m 383 1076 b 296 1165 335 1076 296 1117 b 383 1253 296 1214 335 1253 b 472 1165 432 1253 472 1214 b 383 1076 472 1117 432 1076 "},"Ō":{"ha":1111,"x_min":0,"x_max":0,"o":"m 57 485 b 556 986 57 763 278 986 b 1056 485 833 986 1056 763 b 556 -14 1056 207 833 -14 b 57 485 278 -14 57 207 m 238 485 b 556 167 238 310 381 167 b 875 485 731 167 875 310 b 556 806 875 660 731 806 b 238 485 381 806 238 660 m 378 1122 b 351 1147 363 1122 351 1133 l 351 1194 b 378 1221 351 1210 363 1221 l 733 1221 b 760 1194 749 1221 760 1210 l 760 1147 b 733 1122 760 1133 749 1122 l 378 1122 "},"Ŏ":{"ha":1111,"x_min":0,"x_max":0,"o":"m 57 485 b 556 986 57 763 278 986 b 1056 485 833 986 1056 763 b 556 -14 1056 207 833 -14 b 57 485 278 -14 57 207 m 238 485 b 556 167 238 310 381 167 b 875 485 731 167 875 310 b 556 806 875 660 731 806 b 238 485 381 806 238 660 m 556 1064 b 361 1228 454 1064 375 1135 b 386 1257 358 1243 368 1257 l 438 1257 b 461 1238 450 1257 458 1247 b 556 1164 475 1196 510 1164 b 647 1238 597 1164 633 1200 b 671 1257 650 1250 661 1257 l 725 1257 b 750 1228 742 1257 751 1243 b 556 1064 735 1135 656 1064 "},"Ő":{"ha":1111,"x_min":0,"x_max":0,"o":"m 57 485 b 556 986 57 763 278 986 b 1056 485 833 986 1056 763 b 556 -14 1056 207 833 -14 b 57 485 278 -14 57 207 m 238 485 b 556 167 238 310 381 167 b 875 485 731 167 875 310 b 556 806 875 660 731 806 b 238 485 381 806 238 660 m 665 1067 b 639 1093 643 1067 635 1079 l 690 1289 b 717 1315 694 1303 703 1315 l 822 1315 b 847 1281 849 1315 857 1297 l 739 1088 b 714 1067 733 1076 724 1067 l 665 1067 m 435 1067 b 408 1093 413 1067 404 1079 l 460 1289 b 486 1315 464 1303 472 1315 l 592 1315 b 617 1281 618 1315 626 1299 l 508 1088 b 483 1067 503 1076 493 1067 l 435 1067 "},"Ø":{"ha":1110,"x_min":0,"x_max":0,"o":"m 88 32 b 86 68 78 42 76 58 l 176 157 b 57 485 101 244 57 358 b 556 986 57 763 278 986 b 883 864 681 986 796 939 l 978 957 b 1014 957 988 967 1004 967 l 1028 943 b 1028 907 1038 933 1038 918 l 933 813 b 1056 486 1008 725 1056 611 b 556 -14 1056 208 833 -14 b 228 107 428 -14 314 31 l 138 17 b 101 18 128 7 111 8 l 88 32 m 756 735 b 556 806 700 778 631 806 b 238 485 381 806 238 660 b 307 288 238 410 264 342 m 357 236 b 556 167 411 193 481 167 b 875 486 731 167 875 311 b 804 683 875 561 849 631 l 357 236 "},"Ǿ":{"ha":1110,"x_min":0,"x_max":0,"o":"m 88 32 b 86 68 78 42 76 58 l 176 157 b 57 485 101 244 57 358 b 556 986 57 763 278 986 b 883 864 681 986 796 939 l 978 957 b 1014 957 988 967 1004 967 l 1028 943 b 1028 907 1038 933 1038 918 l 933 813 b 1056 486 1008 725 1056 611 b 556 -14 1056 208 833 -14 b 228 107 428 -14 314 31 l 138 17 b 101 18 128 7 111 8 l 88 32 m 756 735 b 556 806 700 778 631 806 b 238 485 381 806 238 660 b 307 288 238 410 264 342 m 357 236 b 556 167 411 193 481 167 b 875 486 731 167 875 311 b 804 683 875 561 849 631 l 357 236 m 458 1067 b 424 1076 439 1058 429 1064 l 399 1125 b 407 1151 393 1136 400 1147 l 635 1288 b 671 1283 650 1297 664 1296 l 710 1211 b 701 1174 719 1194 714 1179 l 458 1067 "},"Œ":{"ha":1354,"x_min":0,"x_max":0,"o":"m 57 485 b 556 986 57 763 278 986 b 690 972 631 986 690 972 l 1256 972 b 1282 946 1271 972 1282 960 l 1282 832 b 1256 806 1282 818 1271 806 l 844 806 l 844 578 l 1188 578 b 1214 551 1201 578 1214 565 l 1214 436 b 1188 410 1214 421 1201 410 l 844 410 l 844 167 l 1256 167 b 1282 140 1271 167 1282 154 l 1282 26 b 1256 0 1282 13 1271 0 l 690 0 b 556 -14 690 0 613 -14 b 57 485 278 -14 57 207 m 238 485 b 556 164 238 310 381 164 b 664 182 593 164 629 168 l 664 789 b 556 808 629 801 593 808 b 238 485 381 808 238 660 "},"Ŕ":{"ha":925,"x_min":0,"x_max":0,"o":"m 126 946 b 153 972 126 960 138 972 l 550 972 b 853 674 717 972 853 839 b 647 393 853 546 768 442 l 838 40 b 814 0 847 22 838 0 l 668 0 b 646 13 656 0 649 7 l 461 381 l 307 381 l 307 26 b 281 0 307 13 294 0 l 153 0 b 126 26 138 0 126 13 m 535 529 b 672 671 608 529 672 593 b 535 806 672 744 608 806 l 308 806 l 308 529 m 358 1067 b 324 1076 339 1058 329 1064 l 299 1125 b 307 1151 293 1136 300 1147 l 535 1288 b 571 1283 550 1297 564 1296 l 610 1211 b 601 1174 619 1194 614 1179 l 358 1067 "},"Ř":{"ha":925,"x_min":0,"x_max":0,"o":"m 126 946 b 153 972 126 960 138 972 l 550 972 b 853 674 717 972 853 839 b 647 393 853 546 768 442 l 838 40 b 814 0 847 22 838 0 l 668 0 b 646 13 656 0 649 7 l 461 381 l 307 381 l 307 26 b 281 0 307 13 294 0 l 153 0 b 126 26 138 0 126 13 m 535 529 b 672 671 608 529 672 593 b 535 806 672 744 608 806 l 308 806 l 308 529 m 254 1201 b 246 1228 246 1207 239 1218 l 282 1279 b 314 1283 290 1290 297 1293 l 449 1199 l 585 1283 b 617 1279 601 1293 608 1290 l 653 1228 b 644 1201 660 1218 653 1207 l 464 1061 b 435 1061 456 1054 444 1054 "},"Ŗ":{"ha":925,"x_min":0,"x_max":0,"o":"m 126 946 b 153 972 126 960 138 972 l 550 972 b 853 674 717 972 853 839 b 647 393 853 546 768 442 l 838 40 b 814 0 847 22 838 0 l 668 0 b 646 13 656 0 649 7 l 461 381 l 307 381 l 307 26 b 281 0 307 13 294 0 l 153 0 b 126 26 138 0 126 13 m 535 529 b 672 671 608 529 672 593 b 535 806 672 744 608 806 l 308 806 l 308 529 m 469 -126 b 585 -275 519 -126 585 -161 b 460 -526 585 -411 496 -494 b 428 -525 449 -535 438 -536 l 407 -506 b 411 -474 399 -496 401 -482 b 506 -304 425 -464 504 -401 b 463 -311 504 -304 486 -311 b 369 -219 413 -311 369 -271 b 469 -126 369 -168 413 -126 "},"Ś":{"ha":753,"x_min":0,"x_max":0,"o":"m 76 94 b 69 136 64 107 57 114 l 119 222 b 167 232 131 242 154 242 b 376 146 174 228 286 146 b 503 253 449 146 503 193 b 326 419 503 324 443 372 b 65 719 196 472 65 556 b 378 986 65 843 157 986 b 656 893 519 986 628 914 b 664 847 669 885 674 861 l 611 768 b 563 751 600 751 579 740 b 369 828 551 758 446 828 b 247 731 290 828 247 775 b 411 575 247 665 299 621 b 701 261 546 521 701 440 b 382 -14 701 118 578 -14 b 76 94 207 -14 104 68 m 282 1067 b 247 1076 263 1058 253 1064 l 222 1125 b 231 1151 217 1136 224 1147 l 458 1288 b 494 1283 474 1297 488 1296 l 533 1211 b 525 1174 543 1194 538 1179 l 282 1067 "},"Ŝ":{"ha":753,"x_min":0,"x_max":0,"o":"m 76 94 b 69 136 64 107 57 114 l 119 222 b 167 232 131 242 154 242 b 376 146 174 228 286 146 b 503 253 449 146 503 193 b 326 419 503 324 443 372 b 65 719 196 472 65 556 b 378 986 65 843 157 986 b 656 893 519 986 628 914 b 664 847 669 885 674 861 l 611 768 b 563 751 600 751 579 740 b 369 828 551 758 446 828 b 247 731 290 828 247 775 b 411 575 247 665 299 621 b 701 261 546 521 701 440 b 382 -14 701 118 578 -14 b 76 94 207 -14 104 68 m 240 1064 b 208 1068 224 1054 217 1057 l 172 1119 b 181 1146 165 1129 172 1140 l 361 1286 b 390 1286 369 1293 381 1293 l 571 1146 b 579 1119 579 1140 586 1129 l 543 1068 b 511 1064 535 1057 528 1054 l 376 1149 l 240 1064 "},"Š":{"ha":753,"x_min":0,"x_max":0,"o":"m 76 94 b 69 136 64 107 57 114 l 119 222 b 167 232 131 242 154 242 b 376 146 174 228 286 146 b 503 253 449 146 503 193 b 326 419 503 324 443 372 b 65 719 196 472 65 556 b 378 986 65 843 157 986 b 656 893 519 986 628 914 b 664 847 669 885 674 861 l 611 768 b 563 751 600 751 579 740 b 369 828 551 758 446 828 b 247 731 290 828 247 775 b 411 575 247 665 299 621 b 701 261 546 521 701 440 b 382 -14 701 118 578 -14 b 76 94 207 -14 104 68 m 182 1201 b 174 1228 174 1207 167 1218 l 210 1279 b 242 1283 218 1290 225 1293 l 376 1199 l 513 1283 b 544 1279 529 1293 536 1290 l 581 1228 b 572 1201 588 1218 581 1207 l 392 1061 b 363 1061 383 1054 372 1054 "},"Ş":{"ha":754,"x_min":0,"x_max":0,"o":"m 76 94 b 69 136 64 107 57 114 l 119 222 b 167 232 131 242 154 242 b 376 146 174 228 286 146 b 503 253 449 146 503 193 b 326 419 503 324 443 372 b 65 719 196 472 65 556 b 378 986 65 843 157 986 b 656 893 519 986 628 914 b 664 847 669 885 674 861 l 611 768 b 563 751 600 751 579 740 b 369 828 551 758 446 828 b 247 731 290 828 247 775 b 411 575 247 665 299 621 b 701 261 546 521 701 440 b 389 -14 701 119 581 -11 l 389 -72 b 524 -215 474 -83 524 -137 b 376 -361 524 -296 458 -361 b 271 -312 335 -361 294 -340 b 275 -274 260 -300 263 -285 l 303 -250 b 332 -251 311 -242 325 -243 b 374 -268 343 -264 361 -268 b 422 -217 401 -268 422 -244 b 321 -149 422 -183 393 -154 b 297 -124 300 -146 297 -131 l 297 -7 b 76 94 174 13 99 72 "},"Ș":{"ha":753,"x_min":0,"x_max":0,"o":"m 76 94 b 69 136 64 107 57 114 l 119 222 b 167 232 131 242 154 242 b 376 146 174 228 286 146 b 503 253 449 146 503 193 b 326 419 503 324 443 372 b 65 719 196 472 65 556 b 378 986 65 843 157 986 b 656 893 519 986 628 914 b 664 847 669 885 674 861 l 611 768 b 563 751 600 751 579 740 b 369 828 551 758 446 828 b 247 731 290 828 247 775 b 411 575 247 665 299 621 b 701 261 546 521 701 440 b 382 -14 701 118 578 -14 b 76 94 207 -14 104 68 m 382 -126 b 497 -275 432 -126 497 -161 b 372 -526 497 -411 408 -494 b 340 -525 361 -535 350 -536 l 319 -506 b 324 -474 311 -496 314 -482 b 418 -304 338 -464 417 -401 b 375 -311 417 -304 399 -311 b 282 -219 325 -311 282 -271 b 382 -126 282 -168 325 -126 "},"Ť":{"ha":696,"x_min":0,"x_max":0,"o":"m 257 806 l 44 806 b 18 832 29 806 18 818 l 18 946 b 44 972 18 960 29 972 l 651 972 b 678 946 667 972 678 960 l 678 832 b 651 806 678 818 667 806 l 439 806 l 439 26 b 413 0 439 13 426 0 l 283 0 b 257 26 269 0 257 13 m 151 1201 b 143 1228 143 1207 136 1218 l 179 1279 b 211 1283 188 1290 194 1293 l 346 1199 l 482 1283 b 514 1279 499 1293 506 1290 l 550 1228 b 542 1201 557 1218 550 1207 l 361 1061 b 332 1061 353 1054 342 1054 "},"Ţ":{"ha":696,"x_min":0,"x_max":0,"o":"m 257 806 l 44 806 b 18 832 29 806 18 818 l 18 946 b 44 972 18 960 29 972 l 651 972 b 678 946 667 972 678 960 l 678 832 b 651 806 678 818 667 806 l 439 806 l 439 26 b 413 0 439 13 426 0 l 283 0 b 257 26 269 0 257 13 m 340 -126 b 456 -275 390 -126 456 -161 b 331 -526 456 -411 367 -494 b 299 -525 319 -535 308 -536 l 278 -506 b 282 -474 269 -496 272 -482 b 376 -304 296 -464 375 -401 b 333 -311 375 -304 357 -311 b 240 -219 283 -311 240 -271 b 340 -126 240 -168 283 -126 "},"Ț":{"ha":696,"x_min":0,"x_max":0,"o":"m 257 806 l 44 806 b 18 832 29 806 18 818 l 18 946 b 44 972 18 960 29 972 l 651 972 b 678 946 667 972 678 960 l 678 832 b 651 806 678 818 667 806 l 439 806 l 439 26 b 413 0 439 13 426 0 l 283 0 b 257 26 269 0 257 13 m 342 -126 b 457 -275 392 -126 457 -161 b 332 -526 457 -411 368 -494 b 300 -525 321 -535 310 -536 l 279 -506 b 283 -474 271 -496 274 -482 b 378 -304 297 -464 376 -401 b 335 -311 376 -304 358 -311 b 242 -219 285 -311 242 -271 b 342 -126 242 -168 285 -126 "},"Ŧ":{"ha":696,"x_min":0,"x_max":0,"o":"m 257 404 l 126 404 b 101 431 113 404 101 417 l 101 449 b 126 475 101 463 113 475 l 257 475 l 257 806 l 44 806 b 18 832 29 806 18 818 l 18 946 b 44 972 18 960 29 972 l 651 972 b 678 946 667 972 678 960 l 678 832 b 651 806 678 818 667 806 l 439 806 l 439 475 l 575 475 b 601 449 590 475 601 463 l 601 429 b 575 404 601 415 590 404 l 439 404 l 439 26 b 413 0 439 13 426 0 l 283 0 b 257 26 269 0 257 13 "},"Þ":{"ha":821,"x_min":0,"x_max":0,"o":"m 126 946 b 153 972 126 960 138 972 l 281 972 b 307 946 294 972 307 960 l 307 796 l 479 796 b 790 489 650 797 790 657 b 481 176 790 317 650 176 l 307 176 l 307 26 b 281 0 307 13 294 0 l 153 0 b 126 26 138 0 126 13 m 468 346 b 611 490 546 346 611 408 b 468 625 611 567 546 625 l 307 625 l 307 346 "},"Ù":{"ha":1001,"x_min":0,"x_max":0,"o":"m 114 946 b 140 972 114 960 126 972 l 272 972 b 299 946 288 972 299 960 l 299 378 b 500 167 299 260 379 167 b 703 376 621 167 703 260 l 703 946 b 729 972 703 960 714 972 l 861 972 b 888 946 875 972 888 960 l 888 368 b 500 -14 888 157 719 -14 b 114 368 282 -14 114 157 m 354 1174 b 346 1211 342 1179 336 1194 l 385 1283 b 421 1288 392 1296 410 1294 l 649 1151 b 657 1125 656 1147 663 1136 l 632 1076 b 597 1067 626 1064 617 1058 "},"Ú":{"ha":1001,"x_min":0,"x_max":0,"o":"m 114 946 b 140 972 114 960 126 972 l 272 972 b 299 946 288 972 299 960 l 299 378 b 500 167 299 260 379 167 b 703 376 621 167 703 260 l 703 946 b 729 972 703 960 714 972 l 861 972 b 888 946 875 972 888 960 l 888 368 b 500 -14 888 157 719 -14 b 114 368 282 -14 114 157 m 406 1067 b 371 1076 386 1058 376 1064 l 346 1125 b 354 1151 340 1136 347 1147 l 582 1288 b 618 1283 597 1297 611 1296 l 657 1211 b 649 1174 667 1194 661 1179 l 406 1067 "},"Û":{"ha":1001,"x_min":0,"x_max":0,"o":"m 114 946 b 140 972 114 960 126 972 l 272 972 b 299 946 288 972 299 960 l 299 378 b 500 167 299 260 379 167 b 703 376 621 167 703 260 l 703 946 b 729 972 703 960 714 972 l 861 972 b 888 946 875 972 888 960 l 888 368 b 500 -14 888 157 719 -14 b 114 368 282 -14 114 157 m 365 1064 b 333 1068 349 1054 342 1057 l 297 1119 b 306 1146 290 1129 297 1140 l 486 1286 b 515 1286 494 1293 506 1293 l 696 1146 b 704 1119 704 1140 711 1129 l 668 1068 b 636 1064 660 1057 653 1054 l 501 1149 l 365 1064 "},"Ũ":{"ha":1001,"x_min":0,"x_max":0,"o":"m 114 946 b 140 972 114 960 126 972 l 272 972 b 299 946 288 972 299 960 l 299 378 b 500 167 299 260 379 167 b 703 376 621 167 703 260 l 703 946 b 729 972 703 960 714 972 l 861 972 b 888 946 875 972 888 960 l 888 368 b 500 -14 888 157 719 -14 b 114 368 282 -14 114 157 m 294 1125 b 286 1157 285 1132 282 1147 b 431 1274 300 1182 346 1274 b 579 1197 503 1274 526 1197 b 669 1254 628 1197 629 1283 l 708 1226 b 710 1183 721 1217 719 1200 b 575 1078 694 1157 654 1078 b 424 1156 503 1078 469 1156 b 335 1096 374 1156 376 1069 "},"Ü":{"ha":1001,"x_min":0,"x_max":0,"o":"m 114 946 b 140 972 114 960 126 972 l 272 972 b 299 946 288 972 299 960 l 299 378 b 500 167 299 260 379 167 b 703 376 621 167 703 260 l 703 946 b 729 972 703 960 714 972 l 861 972 b 888 946 875 972 888 960 l 888 368 b 500 -14 888 157 719 -14 b 114 368 282 -14 114 157 m 671 1076 b 583 1165 622 1076 583 1117 b 671 1253 583 1214 622 1253 b 760 1165 719 1253 760 1214 b 671 1076 760 1117 719 1076 m 328 1076 b 240 1165 279 1076 240 1117 b 328 1253 240 1214 279 1253 b 417 1165 376 1253 417 1214 b 328 1076 417 1117 376 1076 "},"Ū":{"ha":1001,"x_min":0,"x_max":0,"o":"m 114 946 b 140 972 114 960 126 972 l 272 972 b 299 946 288 972 299 960 l 299 378 b 500 167 299 260 379 167 b 703 376 621 167 703 260 l 703 946 b 729 972 703 960 714 972 l 861 972 b 888 946 875 972 888 960 l 888 368 b 500 -14 888 157 719 -14 b 114 368 282 -14 114 157 m 324 1122 b 297 1147 308 1122 297 1133 l 297 1194 b 324 1221 297 1210 308 1221 l 679 1221 b 706 1194 694 1221 706 1210 l 706 1147 b 679 1122 706 1133 694 1122 l 324 1122 "},"Ŭ":{"ha":1001,"x_min":0,"x_max":0,"o":"m 114 946 b 140 972 114 960 126 972 l 272 972 b 299 946 288 972 299 960 l 299 378 b 500 167 299 260 379 167 b 703 376 621 167 703 260 l 703 946 b 729 972 703 960 714 972 l 861 972 b 888 946 875 972 888 960 l 888 368 b 500 -14 888 157 719 -14 b 114 368 282 -14 114 157 m 503 1064 b 308 1228 401 1064 322 1135 b 333 1257 306 1243 315 1257 l 385 1257 b 408 1238 397 1257 406 1247 b 503 1164 422 1196 457 1164 b 594 1238 544 1164 581 1200 b 618 1257 597 1250 608 1257 l 672 1257 b 697 1228 689 1257 699 1243 b 503 1064 682 1135 603 1064 "},"Ů":{"ha":1001,"x_min":0,"x_max":0,"o":"m 114 946 b 140 972 114 960 126 972 l 272 972 b 299 946 288 972 299 960 l 299 378 b 500 167 299 260 379 167 b 703 376 621 167 703 260 l 703 946 b 729 972 703 960 714 972 l 861 972 b 888 946 875 972 888 960 l 888 368 b 500 -14 888 157 719 -14 b 114 368 282 -14 114 157 m 503 1047 b 346 1204 415 1047 346 1117 b 503 1361 346 1292 415 1361 b 660 1204 589 1361 660 1292 b 503 1047 660 1117 589 1047 m 503 1135 b 569 1204 539 1135 569 1168 b 503 1271 569 1240 539 1271 b 433 1204 467 1271 433 1240 b 503 1135 433 1168 467 1135 "},"Ű":{"ha":1001,"x_min":0,"x_max":0,"o":"m 114 946 b 140 972 114 960 126 972 l 272 972 b 299 946 288 972 299 960 l 299 378 b 500 167 299 260 379 167 b 703 376 621 167 703 260 l 703 946 b 729 972 703 960 714 972 l 861 972 b 888 946 875 972 888 960 l 888 368 b 500 -14 888 157 719 -14 b 114 368 282 -14 114 157 m 600 1067 b 574 1093 578 1067 569 1079 l 625 1289 b 651 1315 629 1303 638 1315 l 757 1315 b 782 1281 783 1315 792 1297 l 674 1088 b 649 1067 668 1076 658 1067 l 600 1067 m 369 1067 b 343 1093 347 1067 339 1079 l 394 1289 b 421 1315 399 1303 407 1315 l 526 1315 b 551 1281 553 1315 561 1299 l 443 1088 b 418 1067 438 1076 428 1067 l 369 1067 "},"Ų":{"ha":1007,"x_min":0,"x_max":0,"o":"m 117 946 b 143 972 117 960 129 972 l 275 972 b 301 946 290 972 301 960 l 301 378 b 503 167 301 260 382 167 b 706 376 624 167 706 260 l 706 946 b 732 972 706 960 717 972 l 864 972 b 890 946 878 972 890 960 l 890 368 b 535 -12 890 167 739 3 b 483 -133 511 -40 483 -82 b 575 -222 483 -182 515 -222 b 639 -210 603 -222 622 -214 b 667 -233 654 -206 667 -217 l 667 -275 b 647 -301 667 -287 657 -297 b 556 -315 642 -303 597 -315 b 379 -162 460 -315 379 -267 b 446 -10 379 -93 417 -40 b 117 368 256 17 117 175 "},"Ẃ":{"ha":1249,"x_min":0,"x_max":0,"o":"m 40 939 b 65 972 35 958 46 972 l 193 972 b 218 953 204 972 215 963 l 363 399 l 368 399 l 589 971 b 613 986 592 979 599 986 l 638 986 b 661 971 651 986 658 979 l 883 399 l 889 399 l 1031 953 b 1056 972 1033 963 1044 972 l 1183 972 b 1208 939 1203 972 1214 958 l 946 6 b 921 -14 943 -6 932 -14 l 899 -14 b 875 1 886 -14 878 -7 l 626 631 l 619 631 l 374 1 b 350 -14 369 -7 364 -14 l 328 -14 b 303 6 317 -14 306 -6 m 526 1067 b 492 1076 507 1058 497 1064 l 467 1125 b 475 1151 461 1136 468 1147 l 703 1288 b 739 1283 718 1297 732 1296 l 778 1211 b 769 1174 788 1194 782 1179 l 526 1067 "},"Ŵ":{"ha":1249,"x_min":0,"x_max":0,"o":"m 40 939 b 65 972 35 958 46 972 l 193 972 b 218 953 204 972 215 963 l 363 399 l 368 399 l 589 971 b 613 986 592 979 599 986 l 638 986 b 661 971 651 986 658 979 l 883 399 l 889 399 l 1031 953 b 1056 972 1033 963 1044 972 l 1183 972 b 1208 939 1203 972 1214 958 l 946 6 b 921 -14 943 -6 932 -14 l 899 -14 b 875 1 886 -14 878 -7 l 626 631 l 619 631 l 374 1 b 350 -14 369 -7 364 -14 l 328 -14 b 303 6 317 -14 306 -6 m 489 1064 b 457 1068 472 1054 465 1057 l 421 1119 b 429 1146 414 1129 421 1140 l 610 1286 b 639 1286 618 1293 629 1293 l 819 1146 b 828 1119 828 1140 835 1129 l 792 1068 b 760 1064 783 1057 776 1054 l 625 1149 l 489 1064 "},"Ẅ":{"ha":1249,"x_min":0,"x_max":0,"o":"m 40 939 b 65 972 35 958 46 972 l 193 972 b 218 953 204 972 215 963 l 363 399 l 368 399 l 589 971 b 613 986 592 979 599 986 l 638 986 b 661 971 651 986 658 979 l 883 399 l 889 399 l 1031 953 b 1056 972 1033 963 1044 972 l 1183 972 b 1208 939 1203 972 1214 958 l 946 6 b 921 -14 943 -6 932 -14 l 899 -14 b 875 1 886 -14 878 -7 l 626 631 l 619 631 l 374 1 b 350 -14 369 -7 364 -14 l 328 -14 b 303 6 317 -14 306 -6 m 794 1076 b 707 1165 746 1076 707 1117 b 794 1253 707 1214 746 1253 b 883 1165 843 1253 883 1214 b 794 1076 883 1117 843 1076 m 451 1076 b 364 1165 403 1076 364 1117 b 451 1253 364 1214 403 1253 b 540 1165 500 1253 540 1214 b 451 1076 540 1117 500 1076 "},"Ẁ":{"ha":1249,"x_min":0,"x_max":0,"o":"m 40 939 b 65 972 35 958 46 972 l 193 972 b 218 953 204 972 215 963 l 363 399 l 368 399 l 589 971 b 613 986 592 979 599 986 l 638 986 b 661 971 651 986 658 979 l 883 399 l 889 399 l 1031 953 b 1056 972 1033 963 1044 972 l 1183 972 b 1208 939 1203 972 1214 958 l 946 6 b 921 -14 943 -6 932 -14 l 899 -14 b 875 1 886 -14 878 -7 l 626 631 l 619 631 l 374 1 b 350 -14 369 -7 364 -14 l 328 -14 b 303 6 317 -14 306 -6 m 479 1174 b 471 1211 467 1179 461 1194 l 510 1283 b 546 1288 517 1296 535 1294 l 774 1151 b 782 1125 781 1147 788 1136 l 757 1076 b 722 1067 751 1064 742 1058 "},"Ý":{"ha":810,"x_min":0,"x_max":0,"o":"m 313 468 l -4 932 b 18 972 -15 950 -4 972 l 160 972 b 182 960 171 972 178 965 l 404 640 l 626 960 b 649 972 631 965 638 972 l 792 972 b 814 932 814 972 825 950 l 493 469 l 493 26 b 467 0 493 13 481 0 l 339 0 b 313 26 324 0 313 13 m 307 1067 b 272 1076 288 1058 278 1064 l 247 1125 b 256 1151 242 1136 249 1147 l 483 1288 b 519 1283 499 1297 513 1296 l 558 1211 b 550 1174 568 1194 563 1179 l 307 1067 "},"Ŷ":{"ha":810,"x_min":0,"x_max":0,"o":"m 313 468 l -4 932 b 18 972 -15 950 -4 972 l 160 972 b 182 960 171 972 178 965 l 404 640 l 626 960 b 649 972 631 965 638 972 l 792 972 b 814 932 814 972 825 950 l 493 469 l 493 26 b 467 0 493 13 481 0 l 339 0 b 313 26 324 0 313 13 m 269 1064 b 238 1068 253 1054 246 1057 l 201 1119 b 210 1146 194 1129 201 1140 l 390 1286 b 419 1286 399 1293 410 1293 l 600 1146 b 608 1119 608 1140 615 1129 l 572 1068 b 540 1064 564 1057 557 1054 l 406 1149 l 269 1064 "},"Ÿ":{"ha":810,"x_min":0,"x_max":0,"o":"m 313 468 l -4 932 b 18 972 -15 950 -4 972 l 160 972 b 182 960 171 972 178 965 l 404 640 l 626 960 b 649 972 631 965 638 972 l 792 972 b 814 932 814 972 825 950 l 493 469 l 493 26 b 467 0 493 13 481 0 l 339 0 b 313 26 324 0 313 13 m 575 1076 b 488 1165 526 1076 488 1117 b 575 1253 488 1214 526 1253 b 664 1165 624 1253 664 1214 b 575 1076 664 1117 624 1076 m 232 1076 b 144 1165 183 1076 144 1117 b 232 1253 144 1214 183 1253 b 321 1165 281 1253 321 1214 b 232 1076 321 1117 281 1076 "},"Ỳ":{"ha":810,"x_min":0,"x_max":0,"o":"m 313 468 l -4 932 b 18 972 -15 950 -4 972 l 160 972 b 182 960 171 972 178 965 l 404 640 l 626 960 b 649 972 631 965 638 972 l 792 972 b 814 932 814 972 825 950 l 493 469 l 493 26 b 467 0 493 13 481 0 l 339 0 b 313 26 324 0 313 13 m 260 1174 b 251 1211 247 1179 242 1194 l 290 1283 b 326 1288 297 1296 315 1294 l 554 1151 b 563 1125 561 1147 568 1136 l 538 1076 b 503 1067 532 1064 522 1058 "},"Ź":{"ha":747,"x_min":0,"x_max":0,"o":"m 35 51 l 449 799 l 449 804 l 101 804 b 75 831 88 804 75 817 l 75 946 b 101 972 75 960 88 972 l 682 972 b 708 946 696 972 708 960 l 708 928 l 300 171 l 300 168 l 654 168 b 681 142 669 168 681 156 l 681 26 b 654 0 681 13 669 0 l 61 0 b 35 26 47 0 35 13 m 297 1067 b 263 1076 278 1058 268 1064 l 238 1125 b 246 1151 232 1136 239 1147 l 474 1288 b 510 1283 489 1297 503 1296 l 549 1211 b 540 1174 558 1194 553 1179 l 297 1067 "},"Ž":{"ha":747,"x_min":0,"x_max":0,"o":"m 35 51 l 449 799 l 449 804 l 101 804 b 75 831 88 804 75 817 l 75 946 b 101 972 75 960 88 972 l 682 972 b 708 946 696 972 708 960 l 708 928 l 300 171 l 300 168 l 654 168 b 681 142 669 168 681 156 l 681 26 b 654 0 681 13 669 0 l 61 0 b 35 26 47 0 35 13 m 193 1201 b 185 1228 185 1207 178 1218 l 221 1279 b 253 1283 229 1290 236 1293 l 388 1199 l 524 1283 b 556 1279 540 1293 547 1290 l 592 1228 b 583 1201 599 1218 592 1207 l 403 1061 b 374 1061 394 1054 383 1054 "},"Ż":{"ha":747,"x_min":0,"x_max":0,"o":"m 35 51 l 449 799 l 449 804 l 101 804 b 75 831 88 804 75 817 l 75 946 b 101 972 75 960 88 972 l 682 972 b 708 946 696 972 708 960 l 708 928 l 300 171 l 300 168 l 654 168 b 681 142 669 168 681 156 l 681 26 b 654 0 681 13 669 0 l 61 0 b 35 26 47 0 35 13 m 390 1085 b 290 1185 335 1085 290 1129 b 390 1285 290 1240 335 1285 b 490 1185 446 1285 490 1240 b 390 1085 490 1129 446 1085 "},"à":{"ha":592,"x_min":0,"x_max":0,"o":"m 43 176 b 265 351 43 275 124 351 b 367 336 321 351 367 336 b 294 432 368 407 346 432 b 139 411 243 432 171 421 b 107 436 119 406 110 418 l 94 508 b 114 543 90 529 101 539 b 303 569 125 547 214 569 b 517 328 476 569 517 479 l 517 26 b 490 0 517 13 504 0 l 440 0 b 417 19 431 0 424 4 l 400 57 b 231 -14 368 28 317 -14 b 43 176 119 -14 43 58 m 196 176 b 268 104 196 135 225 104 b 364 158 313 104 356 142 l 364 235 b 286 251 364 235 326 251 b 196 176 232 251 196 221 m 169 840 b 161 878 158 846 151 860 l 200 949 b 236 953 207 961 224 961 l 464 818 b 472 792 472 814 478 803 l 447 742 b 413 733 442 729 432 725 "},"á":{"ha":592,"x_min":0,"x_max":0,"o":"m 43 176 b 265 351 43 275 124 351 b 367 336 321 351 367 336 b 294 432 368 407 346 432 b 139 411 243 432 171 421 b 107 436 119 406 110 418 l 94 508 b 114 543 90 529 101 539 b 303 569 125 547 214 569 b 517 328 476 569 517 479 l 517 26 b 490 0 517 13 504 0 l 440 0 b 417 19 431 0 424 4 l 400 57 b 231 -14 368 28 317 -14 b 43 176 119 -14 43 58 m 196 176 b 268 104 196 135 225 104 b 364 158 313 104 356 142 l 364 235 b 286 251 364 235 326 251 b 196 176 232 251 196 221 m 217 733 b 181 742 196 725 188 729 l 157 792 b 165 818 151 803 157 813 l 392 953 b 428 949 404 961 421 961 l 468 878 b 460 840 476 860 471 846 l 217 733 "},"â":{"ha":592,"x_min":0,"x_max":0,"o":"m 43 176 b 265 351 43 275 124 351 b 367 336 321 351 367 336 b 294 432 368 407 346 432 b 139 411 243 432 171 421 b 107 436 119 406 110 418 l 94 508 b 114 543 90 529 101 539 b 303 569 125 547 214 569 b 517 328 476 569 517 479 l 517 26 b 490 0 517 13 504 0 l 440 0 b 417 19 431 0 424 4 l 400 57 b 231 -14 368 28 317 -14 b 43 176 119 -14 43 58 m 196 176 b 268 104 196 135 225 104 b 364 158 313 104 356 142 l 364 235 b 286 251 364 235 326 251 b 196 176 232 251 196 221 m 94 786 b 103 813 88 796 94 807 l 283 953 b 313 953 292 960 303 960 l 493 813 b 501 786 501 807 508 796 l 465 735 b 433 731 457 724 450 721 l 299 815 l 163 731 b 131 735 146 721 139 724 "},"ã":{"ha":592,"x_min":0,"x_max":0,"o":"m 43 176 b 265 351 43 275 124 351 b 367 336 321 351 367 336 b 294 432 368 407 346 432 b 139 411 243 432 171 421 b 107 436 119 406 110 418 l 94 508 b 114 543 90 529 101 539 b 303 569 125 547 214 569 b 517 328 476 569 517 479 l 517 26 b 490 0 517 13 504 0 l 440 0 b 417 19 431 0 424 4 l 400 57 b 231 -14 368 28 317 -14 b 43 176 119 -14 43 58 m 196 176 b 268 104 196 135 225 104 b 364 158 313 104 356 142 l 364 235 b 286 251 364 235 326 251 b 196 176 232 251 196 221 m 94 810 b 86 842 85 817 82 832 b 231 958 100 867 146 958 b 379 882 303 958 326 882 b 469 939 428 882 429 968 l 508 911 b 510 868 521 901 519 885 b 375 763 494 842 454 763 b 224 840 303 763 269 840 b 135 781 174 840 176 754 "},"ä":{"ha":592,"x_min":0,"x_max":0,"o":"m 43 176 b 265 351 43 275 124 351 b 367 336 321 351 367 336 b 294 432 368 407 346 432 b 139 411 243 432 171 421 b 107 436 119 406 110 418 l 94 508 b 114 543 90 529 101 539 b 303 569 125 547 214 569 b 517 328 476 569 517 479 l 517 26 b 490 0 517 13 504 0 l 440 0 b 417 19 431 0 424 4 l 400 57 b 231 -14 368 28 317 -14 b 43 176 119 -14 43 58 m 196 176 b 268 104 196 135 225 104 b 364 158 313 104 356 142 l 364 235 b 286 251 364 235 326 251 b 196 176 232 251 196 221 m 443 765 b 356 854 394 765 356 806 b 443 942 356 903 394 942 b 532 854 492 942 532 903 b 443 765 532 806 492 765 m 164 765 b 76 854 115 765 76 806 b 164 942 76 903 115 942 b 253 854 213 942 253 903 b 164 765 253 806 213 765 "},"ā":{"ha":592,"x_min":0,"x_max":0,"o":"m 43 176 b 265 351 43 275 124 351 b 367 336 321 351 367 336 b 294 432 368 407 346 432 b 139 411 243 432 171 421 b 107 436 119 406 110 418 l 94 508 b 114 543 90 529 101 539 b 303 569 125 547 214 569 b 517 328 476 569 517 479 l 517 26 b 490 0 517 13 504 0 l 440 0 b 417 19 431 0 424 4 l 400 57 b 231 -14 368 28 317 -14 b 43 176 119 -14 43 58 m 196 176 b 268 104 196 135 225 104 b 364 158 313 104 356 142 l 364 235 b 286 251 364 235 326 251 b 196 176 232 251 196 221 m 124 792 b 97 817 108 792 97 803 l 97 864 b 124 890 97 879 108 890 l 479 890 b 506 864 494 890 506 879 l 506 817 b 479 792 506 803 494 792 l 124 792 "},"ă":{"ha":592,"x_min":0,"x_max":0,"o":"m 43 176 b 265 351 43 275 124 351 b 367 336 321 351 367 336 b 294 432 368 407 346 432 b 139 411 243 432 171 421 b 107 436 119 406 110 418 l 94 508 b 114 543 90 529 101 539 b 303 569 125 547 214 569 b 517 328 476 569 517 479 l 517 26 b 490 0 517 13 504 0 l 440 0 b 417 19 431 0 424 4 l 400 57 b 231 -14 368 28 317 -14 b 43 176 119 -14 43 58 m 196 176 b 268 104 196 135 225 104 b 364 158 313 104 356 142 l 364 235 b 286 251 364 235 326 251 b 196 176 232 251 196 221 m 311 733 b 117 897 210 733 131 804 b 142 928 114 914 124 928 l 193 928 b 217 908 206 928 214 918 b 311 835 231 865 265 835 b 403 908 353 835 389 869 b 426 928 406 919 417 928 l 481 928 b 506 897 497 928 507 914 b 311 733 490 804 411 733 "},"å":{"ha":592,"x_min":0,"x_max":0,"o":"m 43 176 b 265 351 43 275 124 351 b 367 336 321 351 367 336 b 294 432 368 407 346 432 b 139 411 243 432 171 421 b 107 436 119 406 110 418 l 94 508 b 114 543 90 529 101 539 b 303 569 125 547 214 569 b 517 328 476 569 517 479 l 517 26 b 490 0 517 13 504 0 l 440 0 b 417 19 431 0 424 4 l 400 57 b 231 -14 368 28 317 -14 b 43 176 119 -14 43 58 m 196 176 b 268 104 196 135 225 104 b 364 158 313 104 356 142 l 364 235 b 286 251 364 235 326 251 b 196 176 232 251 196 221 m 306 672 b 149 829 218 672 149 742 b 306 986 149 917 218 986 b 463 829 392 986 463 917 b 306 672 463 742 392 672 m 306 760 b 372 829 342 760 372 793 b 306 896 372 865 342 896 b 236 829 269 896 236 865 b 306 760 236 793 269 760 "},"ǻ":{"ha":592,"x_min":0,"x_max":0,"o":"m 43 176 b 265 351 43 275 124 351 b 367 336 321 351 367 336 b 294 432 368 407 346 432 b 139 411 243 432 171 421 b 107 436 119 406 110 418 l 94 508 b 114 543 90 529 101 539 b 303 569 125 547 214 569 b 517 328 476 569 517 479 l 517 26 b 490 0 517 13 504 0 l 440 0 b 417 19 431 0 424 4 l 400 57 b 231 -14 368 28 317 -14 b 43 176 119 -14 43 58 m 196 176 b 268 104 196 135 225 104 b 364 158 313 104 356 142 l 364 235 b 286 251 364 235 326 251 b 196 176 232 251 196 221 m 304 593 b 147 750 217 593 147 663 b 304 907 147 838 217 907 b 461 750 390 907 461 838 b 304 593 461 663 390 593 m 304 681 b 371 750 340 681 371 714 b 304 817 371 786 340 817 b 235 750 268 817 235 786 b 304 681 235 714 268 681 m 206 919 b 169 928 185 911 176 915 l 146 978 b 154 1004 140 989 146 999 l 381 1139 b 417 1135 393 1147 410 1147 l 457 1064 b 449 1026 465 1046 460 1032 l 206 919 "},"ą":{"ha":592,"x_min":0,"x_max":0,"o":"m 42 176 b 264 351 42 275 122 351 b 365 336 319 351 365 336 b 285 443 367 407 349 443 b 138 421 233 443 169 428 b 106 446 118 417 108 428 l 93 508 b 113 543 89 529 100 539 b 301 569 124 547 213 569 b 515 328 475 569 515 479 l 515 26 b 489 0 515 13 503 0 l 483 0 b 421 -133 458 -25 421 -74 b 513 -222 421 -182 453 -222 b 576 -210 540 -222 560 -214 b 604 -233 592 -206 604 -217 l 604 -275 b 585 -301 604 -287 594 -297 b 493 -315 579 -303 535 -315 b 317 -162 397 -315 317 -267 b 415 18 317 -53 410 15 l 399 57 b 229 -14 367 28 315 -14 b 42 176 118 -14 42 58 m 194 176 b 267 101 194 135 224 101 b 363 163 311 101 354 140 l 363 235 b 285 251 363 235 325 251 b 194 176 231 251 194 221 "},"æ":{"ha":931,"x_min":0,"x_max":0,"o":"m 42 176 b 258 351 42 276 122 351 b 364 340 315 351 364 340 b 288 442 361 411 349 442 b 136 419 233 442 168 428 b 104 442 122 418 107 428 l 92 517 b 114 544 90 531 101 542 b 303 569 114 544 217 569 b 471 513 390 569 442 550 b 638 569 517 549 574 569 b 897 311 779 569 897 464 b 868 250 897 285 897 250 l 514 250 b 646 128 521 193 568 128 b 756 164 689 128 729 146 b 792 164 768 172 782 176 l 847 99 b 846 63 856 88 860 74 b 639 -14 800 19 729 -14 b 431 76 554 -14 481 17 b 233 -14 407 46 336 -14 b 42 176 119 -14 42 60 m 735 349 b 633 442 732 401 686 442 b 526 349 578 442 533 401 m 194 181 b 272 106 194 135 231 106 b 364 164 333 106 364 164 l 364 236 b 278 254 364 236 326 254 b 194 181 233 254 194 225 "},"ǽ":{"ha":931,"x_min":0,"x_max":0,"o":"m 42 176 b 258 351 42 276 122 351 b 364 340 315 351 364 340 b 288 442 361 411 349 442 b 136 419 233 442 168 428 b 104 442 122 418 107 428 l 92 517 b 114 544 90 531 101 542 b 303 569 114 544 217 569 b 471 513 390 569 442 550 b 638 569 517 549 574 569 b 897 311 779 569 897 464 b 868 250 897 285 897 250 l 514 250 b 646 128 521 193 568 128 b 756 164 689 128 729 146 b 792 164 768 172 782 176 l 847 99 b 846 63 856 88 860 74 b 639 -14 800 19 729 -14 b 431 76 554 -14 481 17 b 233 -14 407 46 336 -14 b 42 176 119 -14 42 60 m 735 349 b 633 442 732 401 686 442 b 526 349 578 442 533 401 m 194 181 b 272 106 194 135 231 106 b 364 164 333 106 364 164 l 364 236 b 278 254 364 236 326 254 b 194 181 233 254 194 225 m 432 733 b 396 742 411 725 403 729 l 372 792 b 381 818 367 803 372 813 l 607 953 b 643 949 619 961 636 961 l 683 878 b 675 840 692 860 686 846 l 432 733 "},"ć":{"ha":592,"x_min":0,"x_max":0,"o":"m 40 278 b 336 569 40 442 181 569 b 542 471 422 569 489 535 b 535 432 551 458 549 442 l 471 371 b 436 375 458 360 446 367 b 340 419 414 400 379 419 b 204 278 265 419 204 356 b 339 136 204 199 264 136 b 450 189 399 136 425 165 b 485 193 460 199 474 201 l 544 142 b 554 103 558 131 564 117 b 335 -14 507 29 433 -14 b 40 278 178 -14 40 111 m 238 733 b 201 742 217 725 208 729 l 178 792 b 186 818 172 803 178 813 l 413 953 b 449 949 425 961 442 961 l 489 878 b 481 840 497 860 492 846 l 238 733 "},"ĉ":{"ha":592,"x_min":0,"x_max":0,"o":"m 40 278 b 336 569 40 442 181 569 b 542 471 422 569 489 535 b 535 432 551 458 549 442 l 471 371 b 436 375 458 360 446 367 b 340 419 414 400 379 419 b 204 278 265 419 204 356 b 339 136 204 199 264 136 b 450 189 399 136 425 165 b 485 193 460 199 474 201 l 544 142 b 554 103 558 131 564 117 b 335 -14 507 29 433 -14 b 40 278 178 -14 40 111 m 132 786 b 140 813 125 796 132 807 l 321 953 b 350 953 329 960 340 960 l 531 813 b 539 786 539 807 546 796 l 503 735 b 471 731 494 724 488 721 l 336 815 l 200 731 b 168 735 183 721 176 724 "},"č":{"ha":592,"x_min":0,"x_max":0,"o":"m 40 278 b 336 569 40 442 181 569 b 542 471 422 569 489 535 b 535 432 551 458 549 442 l 471 371 b 436 375 458 360 446 367 b 340 419 414 400 379 419 b 204 278 265 419 204 356 b 339 136 204 199 264 136 b 450 189 399 136 425 165 b 485 193 460 199 474 201 l 544 142 b 554 103 558 131 564 117 b 335 -14 507 29 433 -14 b 40 278 178 -14 40 111 m 140 868 b 132 894 132 874 125 885 l 168 946 b 200 950 176 957 183 960 l 335 865 l 471 950 b 503 946 488 960 494 957 l 539 894 b 531 868 546 885 539 874 l 350 728 b 321 728 342 721 331 721 "},"ċ":{"ha":592,"x_min":0,"x_max":0,"o":"m 40 278 b 336 569 40 442 181 569 b 542 471 422 569 489 535 b 535 432 551 458 549 442 l 471 371 b 436 375 458 360 446 367 b 340 419 414 400 379 419 b 204 278 265 419 204 356 b 339 136 204 199 264 136 b 450 189 399 136 425 165 b 485 193 460 199 474 201 l 544 142 b 554 103 558 131 564 117 b 335 -14 507 29 433 -14 b 40 278 178 -14 40 111 m 336 744 b 236 844 281 744 236 789 b 336 944 236 900 281 944 b 436 844 392 944 436 900 b 336 744 436 789 392 744 "},"ç":{"ha":594,"x_min":0,"x_max":0,"o":"m 250 0 b 42 278 132 35 42 142 b 338 569 42 442 182 569 b 543 471 424 569 490 535 b 536 432 553 458 550 442 l 472 371 b 438 375 460 360 447 367 b 342 419 415 400 381 419 b 206 278 267 419 206 356 b 340 136 206 199 265 136 b 451 189 400 136 426 165 b 486 193 461 199 475 201 l 546 142 b 556 103 560 131 565 117 b 342 -14 508 31 438 -12 l 342 -71 b 476 -214 426 -82 476 -136 b 329 -360 476 -294 411 -360 b 224 -311 288 -360 247 -339 b 228 -272 213 -299 215 -283 l 256 -249 b 285 -250 264 -240 278 -242 b 326 -267 296 -262 314 -267 b 375 -215 354 -267 375 -243 b 274 -147 375 -182 346 -153 b 250 -122 253 -144 250 -129 l 250 0 "},"ď":{"ha":736,"x_min":0,"x_max":0,"o":"m 42 278 b 317 569 42 440 151 569 b 440 544 372 569 415 554 l 440 946 b 467 972 440 960 453 972 l 585 972 b 611 946 599 972 611 960 l 611 26 b 585 0 611 13 599 0 l 531 0 b 504 26 518 0 508 11 l 490 69 b 308 -14 490 69 425 -14 b 42 278 157 -14 42 118 m 203 278 b 329 136 203 200 256 136 b 446 226 403 136 436 193 l 446 388 b 338 419 446 388 407 419 b 203 278 260 419 203 356 m 781 607 b 783 639 771 617 774 631 b 878 808 797 649 878 711 b 836 801 876 808 858 801 b 743 893 785 801 743 842 b 842 986 743 944 785 986 b 957 838 892 986 957 951 b 832 586 957 701 868 618 b 800 588 821 578 811 576 "},"đ":{"ha":694,"x_min":0,"x_max":0,"o":"m 42 278 b 317 569 42 440 151 569 b 440 544 372 569 415 554 l 440 740 l 281 740 b 254 765 265 740 254 751 l 254 785 b 281 811 254 799 265 811 l 440 811 l 440 946 b 467 972 440 960 453 972 l 585 972 b 611 946 599 972 611 960 l 611 811 l 657 811 b 682 785 671 811 682 799 l 682 767 b 657 740 682 753 671 740 l 611 740 l 611 26 b 585 0 611 13 599 0 l 531 0 b 504 26 518 0 508 11 l 490 69 b 308 -14 490 69 425 -14 b 42 278 157 -14 42 118 m 203 278 b 329 136 203 200 256 136 b 446 226 403 136 436 193 l 446 385 b 338 417 446 385 407 417 b 203 278 260 417 203 356 "},"ð":{"ha":733,"x_min":0,"x_max":0,"o":"m 40 304 b 324 606 40 503 185 606 b 482 567 389 606 458 581 b 336 750 460 643 400 704 l 224 685 b 189 693 211 678 196 682 l 179 711 b 188 746 172 722 175 739 l 268 792 b 176 833 231 813 196 826 b 151 874 150 842 144 857 l 183 956 b 222 975 189 974 203 981 b 413 876 264 958 336 928 l 508 932 b 544 921 522 939 538 933 l 554 906 b 546 869 561 893 558 876 l 474 828 b 685 369 585 733 685 586 b 354 -14 685 161 572 -14 b 40 304 183 -14 40 129 m 197 307 b 356 144 197 219 268 144 b 518 349 468 144 518 254 b 357 469 503 399 449 469 b 197 307 268 469 197 396 "},"è":{"ha":618,"x_min":0,"x_max":0,"o":"m 42 278 b 325 569 42 435 160 569 b 585 311 468 569 585 461 b 582 274 585 301 583 283 b 556 250 581 260 568 250 l 200 250 b 333 129 204 193 253 129 b 442 164 376 129 417 146 b 478 164 456 172 468 175 l 535 99 b 533 63 544 89 547 74 b 326 -14 488 19 417 -14 b 42 278 160 -14 42 118 m 422 347 b 321 442 418 399 374 442 b 213 347 265 442 219 400 m 176 840 b 168 878 165 846 158 860 l 207 949 b 243 953 214 961 231 961 l 471 818 b 479 792 479 814 485 803 l 454 742 b 419 733 449 729 439 725 "},"é":{"ha":618,"x_min":0,"x_max":0,"o":"m 42 278 b 325 569 42 435 160 569 b 585 311 468 569 585 461 b 582 274 585 301 583 283 b 556 250 581 260 568 250 l 200 250 b 333 129 204 193 253 129 b 442 164 376 129 417 146 b 478 164 456 172 468 175 l 535 99 b 533 63 544 89 547 74 b 326 -14 488 19 417 -14 b 42 278 160 -14 42 118 m 422 347 b 321 442 418 399 374 442 b 213 347 265 442 219 400 m 222 733 b 186 742 201 725 193 729 l 163 792 b 171 818 157 803 163 813 l 397 953 b 433 949 410 961 426 961 l 474 878 b 465 840 482 860 476 846 l 222 733 "},"ê":{"ha":618,"x_min":0,"x_max":0,"o":"m 42 278 b 325 569 42 435 160 569 b 585 311 468 569 585 461 b 582 274 585 301 583 283 b 556 250 581 260 568 250 l 200 250 b 333 129 204 193 253 129 b 442 164 376 129 417 146 b 478 164 456 172 468 175 l 535 99 b 533 63 544 89 547 74 b 326 -14 488 19 417 -14 b 42 278 160 -14 42 118 m 422 347 b 321 442 418 399 374 442 b 213 347 265 442 219 400 m 118 786 b 126 813 111 796 118 807 l 307 953 b 336 953 315 960 326 960 l 517 813 b 525 786 525 807 532 796 l 489 735 b 457 731 481 724 474 721 l 322 815 l 186 731 b 154 735 169 721 163 724 "},"ě":{"ha":618,"x_min":0,"x_max":0,"o":"m 42 278 b 325 569 42 435 160 569 b 585 311 468 569 585 461 b 582 274 585 301 583 283 b 556 250 581 260 568 250 l 200 250 b 333 129 204 193 253 129 b 442 164 376 129 417 146 b 478 164 456 172 468 175 l 535 99 b 533 63 544 89 547 74 b 326 -14 488 19 417 -14 b 42 278 160 -14 42 118 m 422 347 b 321 442 418 399 374 442 b 213 347 265 442 219 400 m 126 868 b 118 894 118 874 111 885 l 154 946 b 186 950 163 957 169 960 l 321 865 l 457 950 b 489 946 474 960 481 957 l 525 894 b 517 868 532 885 525 874 l 336 728 b 307 728 328 721 317 721 "},"ë":{"ha":618,"x_min":0,"x_max":0,"o":"m 42 278 b 325 569 42 435 160 569 b 585 311 468 569 585 461 b 582 274 585 301 583 283 b 556 250 581 260 568 250 l 200 250 b 333 129 204 193 253 129 b 442 164 376 129 417 146 b 478 164 456 172 468 175 l 535 99 b 533 63 544 89 547 74 b 326 -14 488 19 417 -14 b 42 278 160 -14 42 118 m 422 347 b 321 442 418 399 374 442 b 213 347 265 442 219 400 m 461 765 b 374 854 413 765 374 806 b 461 942 374 903 413 942 b 550 854 510 942 550 903 b 461 765 550 806 510 765 m 182 765 b 94 854 133 765 94 806 b 182 942 94 903 133 942 b 271 854 231 942 271 903 b 182 765 271 806 231 765 "},"ē":{"ha":618,"x_min":0,"x_max":0,"o":"m 42 278 b 325 569 42 435 160 569 b 585 311 468 569 585 461 b 582 274 585 301 583 283 b 556 250 581 260 568 250 l 200 250 b 333 129 204 193 253 129 b 442 164 376 129 417 146 b 478 164 456 172 468 175 l 535 99 b 533 63 544 89 547 74 b 326 -14 488 19 417 -14 b 42 278 160 -14 42 118 m 422 347 b 321 442 418 399 374 442 b 213 347 265 442 219 400 m 143 792 b 117 817 128 792 117 803 l 117 864 b 143 890 117 879 128 890 l 499 890 b 525 864 514 890 525 879 l 525 817 b 499 792 525 803 514 792 l 143 792 "},"ĕ":{"ha":618,"x_min":0,"x_max":0,"o":"m 42 278 b 325 569 42 435 160 569 b 585 311 468 569 585 461 b 582 274 585 301 583 283 b 556 250 581 260 568 250 l 200 250 b 333 129 204 193 253 129 b 442 164 376 129 417 146 b 478 164 456 172 468 175 l 535 99 b 533 63 544 89 547 74 b 326 -14 488 19 417 -14 b 42 278 160 -14 42 118 m 422 347 b 321 442 418 399 374 442 b 213 347 265 442 219 400 m 322 733 b 128 897 221 733 142 804 b 153 928 125 914 135 928 l 204 928 b 228 908 217 928 225 918 b 322 835 242 865 276 835 b 414 908 364 835 400 869 b 438 928 417 919 428 928 l 492 928 b 517 897 508 928 518 914 b 322 733 501 804 422 733 "},"ė":{"ha":618,"x_min":0,"x_max":0,"o":"m 42 278 b 325 569 42 435 160 569 b 585 311 468 569 585 461 b 582 274 585 301 583 283 b 556 250 581 260 568 250 l 200 250 b 333 129 204 193 253 129 b 442 164 376 129 417 146 b 478 164 456 172 468 175 l 535 99 b 533 63 544 89 547 74 b 326 -14 488 19 417 -14 b 42 278 160 -14 42 118 m 422 347 b 321 442 418 399 374 442 b 213 347 265 442 219 400 m 322 744 b 222 844 267 744 222 789 b 322 944 222 900 267 944 b 422 844 378 944 422 900 b 322 744 422 789 378 744 "},"ę":{"ha":619,"x_min":0,"x_max":0,"o":"m 213 -162 b 279 -10 213 -93 250 -40 b 42 278 138 13 42 133 b 325 569 42 435 160 569 b 585 311 468 569 585 461 b 582 274 585 301 583 283 b 556 250 581 260 568 250 l 200 250 b 333 128 204 193 253 128 b 442 164 376 128 417 146 b 478 164 456 172 469 176 b 535 99 500 140 513 122 b 533 63 544 89 547 74 b 369 -11 494 26 439 -1 b 317 -133 346 -37 317 -81 b 408 -222 317 -182 349 -222 b 472 -210 436 -222 456 -214 b 500 -233 488 -206 500 -217 l 500 -275 b 481 -301 500 -287 490 -297 b 389 -315 475 -303 431 -315 b 213 -162 293 -315 213 -267 m 422 347 b 321 442 418 399 374 442 b 213 347 265 442 219 400 "},"ĝ":{"ha":642,"x_min":0,"x_max":0,"o":"m 25 42 b 129 197 25 150 129 197 b 88 328 129 197 88 244 b 329 569 88 457 192 569 l 582 569 b 608 543 597 569 608 558 l 608 497 b 593 474 608 488 603 476 l 515 449 b 571 307 515 449 571 406 b 333 89 571 197 479 89 b 222 100 281 89 244 100 b 171 47 203 100 171 81 b 226 0 171 18 196 0 l 404 0 b 633 -194 531 0 633 -72 b 329 -431 633 -322 531 -431 b 46 -240 124 -431 46 -329 b 129 -108 46 -157 115 -117 l 129 -104 b 25 42 106 -97 25 -60 m 236 321 b 333 221 236 263 278 221 b 429 321 390 221 429 263 b 333 421 429 379 390 421 b 236 321 278 421 236 379 m 206 -210 b 328 -292 206 -258 253 -292 b 457 -204 406 -292 457 -257 b 356 -136 457 -179 438 -136 b 265 -142 325 -136 294 -137 b 206 -210 249 -147 206 -167 m 143 786 b 151 813 136 796 143 807 l 332 953 b 361 953 340 960 351 960 l 542 813 b 550 786 550 807 557 796 l 514 735 b 482 731 506 724 499 721 l 347 815 l 211 731 b 179 735 194 721 188 724 "},"ğ":{"ha":642,"x_min":0,"x_max":0,"o":"m 25 42 b 129 197 25 150 129 197 b 88 328 129 197 88 244 b 329 569 88 457 192 569 l 582 569 b 608 543 597 569 608 558 l 608 497 b 593 474 608 488 603 476 l 515 449 b 571 307 515 449 571 406 b 333 89 571 197 479 89 b 222 100 281 89 244 100 b 171 47 203 100 171 81 b 226 0 171 18 196 0 l 404 0 b 633 -194 531 0 633 -72 b 329 -431 633 -322 531 -431 b 46 -240 124 -431 46 -329 b 129 -108 46 -157 115 -117 l 129 -104 b 25 42 106 -97 25 -60 m 236 321 b 333 221 236 263 278 221 b 429 321 390 221 429 263 b 333 421 429 379 390 421 b 236 321 278 421 236 379 m 206 -210 b 328 -292 206 -258 253 -292 b 457 -204 406 -292 457 -257 b 356 -136 457 -179 438 -136 b 265 -142 325 -136 294 -137 b 206 -210 249 -147 206 -167 m 346 733 b 151 897 244 733 165 804 b 176 928 149 914 158 928 l 228 928 b 251 908 240 928 249 918 b 346 835 265 865 300 835 b 438 908 388 835 424 869 b 461 928 440 919 451 928 l 515 928 b 540 897 532 928 542 914 b 346 733 525 804 446 733 "},"ġ":{"ha":642,"x_min":0,"x_max":0,"o":"m 25 42 b 129 197 25 150 129 197 b 88 328 129 197 88 244 b 329 569 88 457 192 569 l 582 569 b 608 543 597 569 608 558 l 608 497 b 593 474 608 488 603 476 l 515 449 b 571 307 515 449 571 406 b 333 89 571 197 479 89 b 222 100 281 89 244 100 b 171 47 203 100 171 81 b 226 0 171 18 196 0 l 404 0 b 633 -194 531 0 633 -72 b 329 -431 633 -322 531 -431 b 46 -240 124 -431 46 -329 b 129 -108 46 -157 115 -117 l 129 -104 b 25 42 106 -97 25 -60 m 236 321 b 333 221 236 263 278 221 b 429 321 390 221 429 263 b 333 421 429 379 390 421 b 236 321 278 421 236 379 m 206 -210 b 328 -292 206 -258 253 -292 b 457 -204 406 -292 457 -257 b 356 -136 457 -179 438 -136 b 265 -142 325 -136 294 -137 b 206 -210 249 -147 206 -167 m 343 744 b 243 844 288 744 243 789 b 343 944 243 900 288 944 b 443 844 399 944 443 900 b 343 744 443 789 399 744 "},"ģ":{"ha":642,"x_min":0,"x_max":0,"o":"m 350 735 b 235 883 300 735 235 769 b 360 1135 235 1019 324 1103 b 392 1133 371 1143 382 1144 l 413 1114 b 408 1082 421 1104 418 1090 b 314 913 394 1072 315 1010 b 357 919 315 913 333 919 b 450 828 407 919 450 879 b 350 735 450 776 407 735 m 25 42 b 129 197 25 150 129 197 b 88 328 129 197 88 244 b 329 569 88 457 192 569 l 582 569 b 608 543 597 569 608 558 l 608 497 b 593 474 608 488 603 476 l 515 449 b 571 307 515 449 571 406 b 333 89 571 197 479 89 b 222 100 281 89 244 100 b 171 47 203 100 171 81 b 226 0 171 18 196 0 l 404 0 b 633 -194 531 0 633 -72 b 329 -431 633 -322 531 -431 b 46 -240 124 -431 46 -329 b 129 -108 46 -157 115 -117 l 129 -104 b 25 42 106 -97 25 -60 m 236 321 b 333 221 236 263 278 221 b 429 321 390 221 429 263 b 333 421 429 379 390 421 b 236 321 278 421 236 379 m 206 -210 b 328 -292 206 -258 253 -292 b 457 -204 406 -292 457 -257 b 356 -136 457 -179 438 -136 b 265 -142 325 -136 294 -137 b 206 -210 249 -147 206 -167 "},"ĥ":{"ha":722,"x_min":0,"x_max":0,"o":"m 83 946 b 110 972 83 960 96 972 l 228 972 b 254 946 242 972 254 960 l 254 524 b 401 569 282 544 336 569 b 650 293 578 569 650 433 l 650 26 b 624 0 650 13 638 0 l 511 0 b 485 26 496 0 485 13 l 485 294 b 375 419 485 371 442 419 b 254 321 311 419 268 378 l 254 26 b 225 0 254 11 246 0 l 110 0 b 83 26 96 0 83 13 m -39 1088 b -31 1114 -46 1097 -39 1108 l 150 1254 b 179 1254 158 1261 169 1261 l 360 1114 b 368 1088 368 1108 375 1097 l 332 1036 b 300 1032 324 1025 317 1022 l 165 1117 l 29 1032 b -3 1036 13 1022 6 1025 "},"ħ":{"ha":722,"x_min":0,"x_max":0,"o":"m 83 740 l 40 740 b 15 767 26 740 15 753 l 15 785 b 40 811 15 799 26 811 l 83 811 l 83 946 b 110 972 83 960 96 972 l 228 972 b 254 946 242 972 254 960 l 254 811 l 415 811 b 442 785 431 811 442 799 l 442 765 b 415 740 442 751 431 740 l 254 740 l 254 524 b 401 569 282 544 336 569 b 650 293 578 569 650 433 l 650 26 b 624 0 650 13 638 0 l 511 0 b 485 26 496 0 485 13 l 485 292 b 375 417 485 368 442 417 b 254 318 311 417 268 375 l 254 26 b 225 0 254 11 246 0 l 110 0 b 83 26 96 0 83 13 "},"ı":{"ha":335,"x_min":0,"x_max":0,"o":"m 83 529 b 110 556 83 544 96 556 l 225 556 b 251 529 239 556 251 544 l 251 26 b 225 0 251 13 239 0 l 110 0 b 83 26 96 0 83 13 "},"ì":{"ha":335,"x_min":0,"x_max":0,"o":"m 19 840 b 11 878 8 846 1 860 l 50 949 b 86 953 57 961 74 961 l 314 818 b 322 792 322 814 328 803 l 297 742 b 263 733 292 729 282 725 m 83 529 b 110 556 83 544 96 556 l 225 556 b 251 529 239 556 251 544 l 251 26 b 225 0 251 13 239 0 l 110 0 b 83 26 96 0 83 13 "},"í":{"ha":335,"x_min":0,"x_max":0,"o":"m 67 733 b 31 742 46 725 38 729 l 7 792 b 15 818 1 803 7 813 l 242 953 b 278 949 254 961 271 961 l 318 878 b 310 840 326 860 321 846 l 67 733 m 83 529 b 110 556 83 544 96 556 l 225 556 b 251 529 239 556 251 544 l 251 26 b 225 0 251 13 239 0 l 110 0 b 83 26 96 0 83 13 "},"ĭ":{"ha":335,"x_min":0,"x_max":0,"o":"m 168 733 b -26 897 67 733 -12 804 b -1 928 -29 914 -19 928 l 50 928 b 74 908 63 928 71 918 b 168 835 88 865 122 835 b 260 908 210 835 246 869 b 283 928 263 919 274 928 l 338 928 b 363 897 354 928 364 914 b 168 733 347 804 268 733 m 83 529 b 110 556 83 544 96 556 l 225 556 b 251 529 239 556 251 544 l 251 26 b 225 0 251 13 239 0 l 110 0 b 83 26 96 0 83 13 "},"î":{"ha":335,"x_min":0,"x_max":0,"o":"m 83 529 b 110 556 83 544 96 556 l 225 556 b 251 529 239 556 251 544 l 251 26 b 225 0 251 13 239 0 l 110 0 b 83 26 96 0 83 13 m -39 786 b -31 813 -46 796 -39 807 l 150 953 b 179 953 158 960 169 960 l 360 813 b 368 786 368 807 375 796 l 332 735 b 300 731 324 724 317 721 l 165 815 l 29 731 b -3 735 13 721 6 724 "},"ĩ":{"ha":335,"x_min":0,"x_max":0,"o":"m -39 810 b -47 842 -49 817 -51 832 b 97 958 -33 867 13 958 b 246 882 169 958 193 882 b 336 939 294 882 296 968 l 375 911 b 376 868 388 901 386 885 b 242 763 361 842 321 763 b 90 840 169 763 136 840 b 1 781 40 840 43 754 m 83 529 b 110 556 83 544 96 556 l 225 556 b 251 529 239 556 251 544 l 251 26 b 225 0 251 13 239 0 l 110 0 b 83 26 96 0 83 13 "},"ï":{"ha":335,"x_min":0,"x_max":0,"o":"m 306 765 b 218 854 257 765 218 806 b 306 942 218 903 257 942 b 394 854 354 942 394 903 b 306 765 394 806 354 765 m 26 765 b -61 854 -22 765 -61 806 b 26 942 -61 903 -22 942 b 115 854 75 942 115 903 b 26 765 115 806 75 765 m 83 529 b 110 556 83 544 96 556 l 225 556 b 251 529 239 556 251 544 l 251 26 b 225 0 251 13 239 0 l 110 0 b 83 26 96 0 83 13 "},"ī":{"ha":335,"x_min":0,"x_max":0,"o":"m -10 792 b -36 817 -25 792 -36 803 l -36 864 b -10 890 -36 879 -25 890 l 346 890 b 372 864 361 890 372 879 l 372 817 b 346 792 372 803 361 792 l -10 792 m 83 529 b 110 556 83 544 96 556 l 225 556 b 251 529 239 556 251 544 l 251 26 b 225 0 251 13 239 0 l 110 0 b 83 26 96 0 83 13 "},"į":{"ha":335,"x_min":0,"x_max":0,"o":"m 165 753 b 71 849 113 753 71 796 b 165 944 71 901 113 944 b 263 849 219 944 263 901 b 165 753 263 796 219 753 m 83 529 b 110 556 83 544 96 556 l 225 556 b 251 529 239 556 251 544 l 251 26 b 225 0 251 13 239 0 l 200 0 b 138 -133 175 -25 138 -74 b 229 -222 138 -182 169 -222 b 293 -210 257 -222 276 -214 b 321 -233 308 -206 321 -217 l 321 -275 b 301 -301 321 -287 311 -297 b 210 -315 296 -303 251 -315 b 33 -162 114 -315 33 -267 b 110 0 33 -85 79 -28 b 83 26 96 0 83 13 "},"ȷ":{"ha":336,"x_min":0,"x_max":0,"o":"m 83 529 b 110 556 83 544 96 556 l 226 556 b 253 529 240 556 253 544 l 253 -150 b -6 -431 253 -333 142 -431 b -169 -376 -79 -431 -146 -399 b -175 -344 -179 -369 -181 -354 l -129 -256 b -96 -249 -124 -244 -108 -242 b -14 -276 -78 -260 -44 -276 b 83 -150 49 -276 83 -231 "},"ĵ":{"ha":336,"x_min":0,"x_max":0,"o":"m 83 529 b 110 556 83 544 96 556 l 226 556 b 253 529 240 556 253 544 l 253 -150 b -6 -431 253 -333 142 -431 b -169 -376 -79 -431 -146 -399 b -175 -344 -179 -369 -181 -354 l -129 -256 b -96 -249 -124 -244 -108 -242 b -14 -276 -78 -260 -44 -276 b 83 -150 49 -276 83 -231 m -37 786 b -29 813 -44 796 -37 807 l 151 953 b 181 953 160 960 171 960 l 361 813 b 369 786 369 807 376 796 l 333 735 b 301 731 325 724 318 721 l 167 815 l 31 731 b -1 735 14 721 7 724 "},"ķ":{"ha":679,"x_min":0,"x_max":0,"o":"m 83 946 b 110 972 83 960 96 972 l 228 972 b 254 946 242 972 254 960 l 254 344 l 446 539 b 481 556 456 547 465 556 l 607 556 b 625 515 631 556 639 531 l 418 304 l 665 39 b 647 0 679 24 671 0 l 497 0 b 474 11 489 0 478 6 l 254 261 l 254 26 b 228 0 254 13 242 0 l 110 0 b 83 26 96 0 83 13 m 361 -126 b 476 -275 411 -126 476 -161 b 351 -526 476 -411 388 -494 b 319 -525 340 -535 329 -536 l 299 -506 b 303 -474 290 -496 293 -482 b 397 -304 317 -464 396 -401 b 354 -311 396 -304 378 -311 b 261 -219 304 -311 261 -271 b 361 -126 261 -168 304 -126 "},"ĸ":{"ha":685,"x_min":0,"x_max":0,"o":"m 83 529 b 110 556 83 543 96 556 l 228 556 b 254 529 242 556 254 543 l 254 308 l 464 539 b 499 556 472 549 483 556 l 625 556 b 643 515 649 556 657 531 l 413 271 l 665 39 b 647 0 679 24 671 0 l 497 0 b 474 11 489 0 479 7 l 254 225 l 254 26 b 228 0 254 13 242 0 l 110 0 b 83 26 96 0 83 13 "},"ĺ":{"ha":336,"x_min":0,"x_max":0,"o":"m 83 946 b 110 972 83 960 96 972 l 226 972 b 253 946 240 972 253 960 l 253 26 b 226 0 253 13 240 0 l 110 0 b 83 26 96 0 83 13 m 68 1035 b 32 1043 47 1026 39 1031 l 8 1093 b 17 1119 3 1104 8 1114 l 243 1254 b 279 1250 256 1263 272 1263 l 319 1179 b 311 1142 328 1161 322 1147 l 68 1035 "},"ľ":{"ha":378,"x_min":0,"x_max":0,"o":"m 83 946 b 110 972 83 960 96 972 l 226 972 b 253 946 240 972 253 960 l 253 26 b 226 0 253 13 240 0 l 110 0 b 83 26 96 0 83 13 m 422 607 b 425 639 413 617 415 631 b 519 808 439 649 519 711 b 478 801 518 808 500 801 b 385 893 426 801 385 842 b 483 986 385 944 426 986 b 599 838 533 986 599 951 b 474 586 599 701 510 618 b 442 588 463 578 453 576 "},"ļ":{"ha":336,"x_min":0,"x_max":0,"o":"m 83 946 b 110 972 83 960 96 972 l 226 972 b 253 946 240 972 253 960 l 253 26 b 226 0 253 13 240 0 l 110 0 b 83 26 96 0 83 13 m 163 -126 b 278 -275 213 -126 278 -161 b 153 -526 278 -411 189 -494 b 121 -525 142 -535 131 -536 l 100 -506 b 104 -474 92 -496 94 -482 b 199 -304 118 -464 197 -401 b 156 -311 197 -304 179 -311 b 63 -219 106 -311 63 -271 b 163 -126 63 -168 106 -126 "},"ł":{"ha":357,"x_min":0,"x_max":0,"o":"m 103 432 l 56 406 b 19 415 39 396 26 403 l 11 432 b 19 467 4 443 7 460 l 103 514 l 103 946 b 129 972 103 960 115 972 l 246 972 b 272 946 260 972 272 960 l 272 614 l 360 665 b 396 656 374 674 389 668 l 406 638 b 396 603 413 626 408 610 l 272 531 l 272 26 b 246 0 272 13 260 0 l 129 0 b 103 26 115 0 103 13 "},"ŀ":{"ha":549,"x_min":0,"x_max":0,"o":"m 83 946 b 110 972 83 960 96 972 l 226 972 b 253 946 240 972 253 960 l 253 26 b 226 0 253 13 240 0 l 110 0 b 83 26 96 0 83 13 m 442 400 b 342 500 386 400 342 444 b 442 600 342 556 386 600 b 542 500 497 600 542 556 b 442 400 542 444 497 400 "},"ń":{"ha":721,"x_min":0,"x_max":0,"o":"m 83 529 b 110 556 83 544 96 556 l 163 556 b 186 539 175 556 182 549 l 206 488 b 401 569 226 510 294 569 b 649 293 578 569 649 438 l 649 26 b 622 0 649 13 636 0 l 508 0 b 482 26 493 0 482 13 l 482 301 b 378 419 482 374 444 419 b 247 332 306 419 261 369 l 247 26 b 213 0 247 7 239 0 l 110 0 b 83 26 96 0 83 13 m 275 733 b 239 742 254 725 246 729 l 215 792 b 224 818 210 803 215 813 l 450 953 b 486 949 463 961 479 961 l 526 878 b 518 840 535 860 529 846 l 275 733 "},"ň":{"ha":721,"x_min":0,"x_max":0,"o":"m 83 529 b 110 556 83 544 96 556 l 163 556 b 186 539 175 556 182 549 l 206 488 b 401 569 226 510 294 569 b 649 293 578 569 649 438 l 649 26 b 622 0 649 13 636 0 l 508 0 b 482 26 493 0 482 13 l 482 301 b 378 419 482 374 444 419 b 247 332 306 419 261 369 l 247 26 b 213 0 247 7 239 0 l 110 0 b 83 26 96 0 83 13 m 179 868 b 171 894 171 874 164 885 l 207 946 b 239 950 215 957 222 960 l 374 865 l 510 950 b 542 946 526 960 533 957 l 578 894 b 569 868 585 885 578 874 l 389 728 b 360 728 381 721 369 721 "},"ñ":{"ha":721,"x_min":0,"x_max":0,"o":"m 83 529 b 110 556 83 544 96 556 l 163 556 b 186 539 175 556 182 549 l 206 488 b 401 569 226 510 294 569 b 649 293 578 569 649 438 l 649 26 b 622 0 649 13 636 0 l 508 0 b 482 26 493 0 482 13 l 482 301 b 378 419 482 374 444 419 b 247 332 306 419 261 369 l 247 26 b 213 0 247 7 239 0 l 110 0 b 83 26 96 0 83 13 m 165 810 b 157 842 156 817 153 832 b 301 958 171 867 217 958 b 450 882 374 958 397 882 b 540 939 499 882 500 968 l 579 911 b 581 868 592 901 590 885 b 446 763 565 842 525 763 b 294 840 374 763 340 840 b 206 781 244 840 247 754 "},"ņ":{"ha":722,"x_min":0,"x_max":0,"o":"m 83 529 b 110 556 83 544 96 556 l 163 556 b 186 539 175 556 182 549 l 206 488 b 401 569 226 510 294 569 b 649 293 578 569 649 438 l 649 26 b 622 0 649 13 636 0 l 508 0 b 482 26 493 0 482 13 l 482 301 b 378 419 482 374 444 419 b 247 332 306 419 261 369 l 247 26 b 213 0 247 7 239 0 l 110 0 b 83 26 96 0 83 13 m 360 -126 b 475 -275 410 -126 475 -161 b 350 -526 475 -411 386 -494 b 318 -525 339 -535 328 -536 l 297 -506 b 301 -474 289 -496 292 -482 b 396 -304 315 -464 394 -401 b 353 -311 394 -304 376 -311 b 260 -219 303 -311 260 -271 b 360 -126 260 -168 303 -126 "},"ŉ":{"ha":721,"x_min":0,"x_max":0,"o":"m 83 529 b 110 556 83 544 96 556 l 163 556 b 186 539 175 556 182 549 l 206 488 b 401 569 226 510 294 569 b 649 293 578 569 649 438 l 649 26 b 622 0 649 13 636 0 l 508 0 b 482 26 493 0 482 13 l 482 301 b 378 419 482 374 444 419 b 247 332 306 419 261 369 l 247 26 b 213 0 247 7 239 0 l 110 0 b 83 26 96 0 83 13 m -118 986 b -3 838 -68 986 -3 951 b -128 586 -3 701 -92 618 b -160 588 -139 578 -150 576 l -181 607 b -176 639 -189 617 -186 631 b -82 808 -162 649 -83 711 b -125 801 -83 808 -101 801 b -218 893 -175 801 -218 842 b -118 986 -218 944 -175 986 "},"ò":{"ha":650,"x_min":0,"x_max":0,"o":"m 40 279 b 325 569 40 436 168 569 b 610 279 482 569 610 436 b 325 -14 610 119 482 -14 b 40 279 168 -14 40 119 m 192 279 b 325 136 192 200 250 136 b 458 279 399 136 458 200 b 325 419 458 357 399 419 b 192 279 250 419 192 357 m 182 840 b 174 878 171 846 164 860 l 213 949 b 249 953 219 961 236 961 l 476 818 b 485 792 485 814 490 803 l 460 742 b 425 733 454 729 444 725 "},"ó":{"ha":650,"x_min":0,"x_max":0,"o":"m 40 279 b 325 569 40 436 168 569 b 610 279 482 569 610 436 b 325 -14 610 119 482 -14 b 40 279 168 -14 40 119 m 192 279 b 325 136 192 200 250 136 b 458 279 399 136 458 200 b 325 419 458 357 399 419 b 192 279 250 419 192 357 m 226 733 b 190 742 206 725 197 729 l 167 792 b 175 818 161 803 167 813 l 401 953 b 438 949 414 961 431 961 l 478 878 b 469 840 486 860 481 846 l 226 733 "},"ô":{"ha":650,"x_min":0,"x_max":0,"o":"m 40 279 b 325 569 40 436 168 569 b 610 279 482 569 610 436 b 325 -14 610 119 482 -14 b 40 279 168 -14 40 119 m 192 279 b 325 136 192 200 250 136 b 458 279 399 136 458 200 b 325 419 458 357 399 419 b 192 279 250 419 192 357 m 119 786 b 128 813 113 796 119 807 l 308 953 b 338 953 317 960 328 960 l 518 813 b 526 786 526 807 533 796 l 490 735 b 458 731 482 724 475 721 l 324 815 l 188 731 b 156 735 171 721 164 724 "},"õ":{"ha":650,"x_min":0,"x_max":0,"o":"m 40 279 b 325 569 40 436 168 569 b 610 279 482 569 610 436 b 325 -14 610 119 482 -14 b 40 279 168 -14 40 119 m 192 279 b 325 136 192 200 250 136 b 458 279 399 136 458 200 b 325 419 458 357 399 419 b 192 279 250 419 192 357 m 117 810 b 108 842 107 817 104 832 b 253 958 122 867 168 958 b 401 882 325 958 349 882 b 492 939 450 882 451 968 l 531 911 b 532 868 543 901 542 885 b 397 763 517 842 476 763 b 246 840 325 763 292 840 b 157 781 196 840 199 754 "},"ö":{"ha":650,"x_min":0,"x_max":0,"o":"m 40 279 b 325 569 40 436 168 569 b 610 279 482 569 610 436 b 325 -14 610 119 482 -14 b 40 279 168 -14 40 119 m 192 279 b 325 136 192 200 250 136 b 458 279 399 136 458 200 b 325 419 458 357 399 419 b 192 279 250 419 192 357 m 463 765 b 375 854 414 765 375 806 b 463 942 375 903 414 942 b 551 854 511 942 551 903 b 463 765 551 806 511 765 m 183 765 b 96 854 135 765 96 806 b 183 942 96 903 135 942 b 272 854 232 942 272 903 b 183 765 272 806 232 765 "},"ō":{"ha":650,"x_min":0,"x_max":0,"o":"m 40 279 b 325 569 40 436 168 569 b 610 279 482 569 610 436 b 325 -14 610 119 482 -14 b 40 279 168 -14 40 119 m 192 279 b 325 136 192 200 250 136 b 458 279 399 136 458 200 b 325 419 458 357 399 419 b 192 279 250 419 192 357 m 147 792 b 121 817 132 792 121 803 l 121 864 b 147 890 121 879 132 890 l 503 890 b 529 864 518 890 529 879 l 529 817 b 503 792 529 803 518 792 l 147 792 "},"ŏ":{"ha":650,"x_min":0,"x_max":0,"o":"m 40 279 b 325 569 40 436 168 569 b 610 279 482 569 610 436 b 325 -14 610 119 482 -14 b 40 279 168 -14 40 119 m 192 279 b 325 136 192 200 250 136 b 458 279 399 136 458 200 b 325 419 458 357 399 419 b 192 279 250 419 192 357 m 326 733 b 132 897 225 733 146 804 b 157 928 129 914 139 928 l 208 928 b 232 908 221 928 229 918 b 326 835 246 865 281 835 b 418 908 368 835 404 869 b 442 928 421 919 432 928 l 496 928 b 521 897 513 928 522 914 b 326 733 506 804 426 733 "},"ő":{"ha":650,"x_min":0,"x_max":0,"o":"m 40 279 b 325 569 40 436 168 569 b 610 279 482 569 610 436 b 325 -14 610 119 482 -14 b 40 279 168 -14 40 119 m 192 279 b 325 136 192 200 250 136 b 458 279 399 136 458 200 b 325 419 458 357 399 419 b 192 279 250 419 192 357 m 422 724 b 396 750 400 724 392 736 l 447 946 b 474 972 451 960 460 972 l 579 972 b 604 938 606 972 614 954 l 496 744 b 471 724 490 733 481 724 l 422 724 m 192 724 b 165 750 169 724 161 736 l 217 946 b 243 972 221 960 229 972 l 349 972 b 374 938 375 972 383 956 l 265 744 b 240 724 260 733 250 724 l 192 724 "},"ø":{"ha":650,"x_min":0,"x_max":0,"o":"m 71 33 b 69 69 61 43 60 60 l 100 100 b 42 281 64 149 42 214 b 326 569 42 438 169 569 b 501 506 392 569 454 544 l 538 542 b 574 542 547 553 564 551 l 588 528 b 588 492 599 518 599 503 l 551 456 b 610 281 588 407 610 346 b 326 -14 610 121 483 -14 b 150 49 260 -14 199 10 l 121 18 b 83 19 111 8 93 8 l 71 33 m 394 399 b 326 419 375 413 351 419 b 193 281 251 419 193 358 b 208 211 193 254 199 231 m 257 156 b 326 136 276 143 300 136 b 458 281 400 136 458 201 b 443 346 458 304 453 326 l 257 156 "},"ǿ":{"ha":650,"x_min":0,"x_max":0,"o":"m 226 733 b 190 742 206 725 197 729 l 167 792 b 175 818 161 803 167 813 l 401 953 b 438 949 414 961 431 961 l 478 878 b 469 840 486 860 481 846 l 226 733 m 71 33 b 69 69 61 43 60 60 l 100 100 b 42 281 64 149 42 214 b 326 569 42 438 169 569 b 501 506 392 569 454 544 l 538 542 b 574 542 547 553 564 551 l 588 528 b 588 492 599 518 599 503 l 551 456 b 610 281 588 407 610 346 b 326 -14 610 121 483 -14 b 150 49 260 -14 199 10 l 121 18 b 83 19 111 8 93 8 l 71 33 m 394 399 b 326 419 375 413 351 419 b 193 281 251 419 193 358 b 208 211 193 254 199 231 m 257 156 b 326 136 276 143 300 136 b 458 281 400 136 458 201 b 443 346 458 304 453 326 l 257 156 "},"œ":{"ha":1017,"x_min":0,"x_max":0,"o":"m 40 281 b 325 569 40 438 168 569 b 524 482 403 569 474 535 b 724 569 572 536 642 569 b 983 311 864 569 983 464 b 981 274 983 301 982 283 b 954 250 979 260 967 250 l 600 250 b 732 128 607 193 654 128 b 842 164 775 128 815 146 b 878 164 854 172 868 176 l 933 99 b 932 63 942 88 946 74 b 725 -14 888 19 815 -14 b 524 74 643 -14 574 19 b 325 -14 474 19 403 -14 b 40 281 168 -14 40 121 m 821 347 b 719 440 818 400 772 440 b 613 347 664 440 619 400 m 192 281 b 325 136 192 201 250 136 b 458 281 400 136 458 201 b 325 419 458 358 400 419 b 192 281 250 419 192 358 "},"ŕ":{"ha":474,"x_min":0,"x_max":0,"o":"m 83 529 b 110 556 83 544 96 556 l 163 556 b 188 538 175 556 183 549 l 207 483 b 364 569 226 511 278 569 b 471 514 429 569 488 549 l 419 424 b 388 411 413 411 399 406 b 347 419 383 413 363 419 b 249 363 292 419 258 382 l 249 26 b 217 0 249 7 236 0 l 110 0 b 83 26 96 0 83 13 m 150 733 b 114 742 129 725 121 729 l 90 792 b 99 818 85 803 90 813 l 325 953 b 361 949 338 961 354 961 l 401 878 b 393 840 410 860 404 846 l 150 733 "},"ř":{"ha":474,"x_min":0,"x_max":0,"o":"m 83 529 b 110 556 83 544 96 556 l 163 556 b 188 538 175 556 183 549 l 207 483 b 364 569 226 511 278 569 b 471 514 429 569 488 549 l 419 424 b 388 411 413 411 399 406 b 347 419 383 413 363 419 b 249 363 292 419 258 382 l 249 26 b 217 0 249 7 236 0 l 110 0 b 83 26 96 0 83 13 m 47 868 b 39 894 39 874 32 885 l 75 946 b 107 950 83 957 90 960 l 242 865 l 378 950 b 410 946 394 960 401 957 l 446 894 b 438 868 453 885 446 874 l 257 728 b 228 728 249 721 238 721 "},"ŗ":{"ha":474,"x_min":0,"x_max":0,"o":"m 83 529 b 110 556 83 544 96 556 l 163 556 b 188 538 175 556 183 549 l 207 483 b 364 569 226 511 278 569 b 471 514 429 569 488 549 l 419 424 b 388 411 413 411 399 406 b 347 419 383 413 363 419 b 249 363 292 419 258 382 l 249 26 b 217 0 249 7 236 0 l 110 0 b 83 26 96 0 83 13 m 157 -126 b 272 -275 207 -126 272 -161 b 147 -526 272 -411 183 -494 b 115 -525 136 -535 125 -536 l 94 -506 b 99 -474 86 -496 89 -482 b 193 -304 113 -464 192 -401 b 150 -311 192 -304 174 -311 b 57 -219 100 -311 57 -271 b 157 -126 57 -168 100 -126 "},"ś":{"ha":506,"x_min":0,"x_max":0,"o":"m 61 38 b 53 67 53 44 47 56 l 90 142 b 122 151 96 156 110 158 b 249 118 122 151 185 118 b 296 153 276 118 296 129 b 203 222 296 178 276 193 b 46 406 96 264 46 321 b 250 569 46 490 108 569 b 421 526 332 569 392 546 b 433 489 433 518 440 503 l 399 418 b 365 408 392 406 376 404 b 250 438 365 408 303 438 b 203 406 217 438 203 424 b 279 351 203 381 228 372 b 467 156 386 310 467 264 b 246 -14 467 64 386 -14 b 61 38 154 -14 90 15 m 160 733 b 124 742 139 725 131 729 l 100 792 b 108 818 94 803 100 813 l 335 953 b 371 949 347 961 364 961 l 411 878 b 403 840 419 860 414 846 l 160 733 "},"ŝ":{"ha":506,"x_min":0,"x_max":0,"o":"m 61 38 b 53 67 53 44 47 56 l 90 142 b 122 151 96 156 110 158 b 249 118 122 151 185 118 b 296 153 276 118 296 129 b 203 222 296 178 276 193 b 46 406 96 264 46 321 b 250 569 46 490 108 569 b 421 526 332 569 392 546 b 433 489 433 518 440 503 l 399 418 b 365 408 392 406 376 404 b 250 438 365 408 303 438 b 203 406 217 438 203 424 b 279 351 203 381 228 372 b 467 156 386 310 467 264 b 246 -14 467 64 386 -14 b 61 38 154 -14 90 15 m 47 786 b 56 813 40 796 47 807 l 236 953 b 265 953 244 960 256 960 l 446 813 b 454 786 454 807 461 796 l 418 735 b 386 731 410 724 403 721 l 251 815 l 115 731 b 83 735 99 721 92 724 "},"š":{"ha":506,"x_min":0,"x_max":0,"o":"m 61 38 b 53 67 53 44 47 56 l 90 142 b 122 151 96 156 110 158 b 249 118 122 151 185 118 b 296 153 276 118 296 129 b 203 222 296 178 276 193 b 46 406 96 264 46 321 b 250 569 46 490 108 569 b 421 526 332 569 392 546 b 433 489 433 518 440 503 l 399 418 b 365 408 392 406 376 404 b 250 438 365 408 303 438 b 203 406 217 438 203 424 b 279 351 203 381 228 372 b 467 156 386 310 467 264 b 246 -14 467 64 386 -14 b 61 38 154 -14 90 15 m 63 868 b 54 894 54 874 47 885 l 90 946 b 122 950 99 957 106 960 l 257 865 l 393 950 b 425 946 410 960 417 957 l 461 894 b 453 868 468 885 461 874 l 272 728 b 243 728 264 721 253 721 "},"ş":{"ha":508,"x_min":0,"x_max":0,"o":"m 63 38 b 54 67 54 44 49 56 l 92 142 b 124 151 97 156 111 158 b 250 118 124 151 186 118 b 297 153 278 118 297 129 b 204 222 297 178 278 193 b 47 406 97 264 47 321 b 251 569 47 490 110 569 b 422 526 333 569 393 546 b 435 489 435 518 442 503 l 400 418 b 367 408 393 406 378 404 b 251 438 367 408 304 438 b 204 406 218 438 204 424 b 281 351 204 381 229 372 b 468 156 388 310 468 264 b 264 -12 468 67 393 -7 l 264 -72 b 399 -215 349 -83 399 -137 b 251 -361 399 -296 333 -361 b 146 -312 210 -361 169 -340 b 150 -274 135 -300 138 -285 l 178 -250 b 207 -251 186 -242 200 -243 b 249 -268 218 -264 236 -268 b 297 -217 276 -268 297 -244 b 196 -149 297 -183 268 -154 b 172 -124 175 -146 172 -131 l 172 -7 b 63 38 119 3 82 22 "},"ș":{"ha":506,"x_min":0,"x_max":0,"o":"m 61 38 b 53 67 53 44 47 56 l 90 142 b 122 151 96 156 110 158 b 249 118 122 151 185 118 b 296 153 276 118 296 129 b 203 222 296 178 276 193 b 46 406 96 264 46 321 b 250 569 46 490 108 569 b 421 526 332 569 392 546 b 433 489 433 518 440 503 l 399 418 b 365 408 392 406 376 404 b 250 438 365 408 303 438 b 203 406 217 438 203 424 b 279 351 203 381 228 372 b 467 156 386 310 467 264 b 246 -14 467 64 386 -14 b 61 38 154 -14 90 15 m 256 -126 b 371 -275 306 -126 371 -161 b 246 -526 371 -411 282 -494 b 214 -525 235 -535 224 -536 l 193 -506 b 197 -474 185 -496 188 -482 b 292 -304 211 -464 290 -401 b 249 -311 290 -304 272 -311 b 156 -219 199 -311 156 -271 b 256 -126 156 -168 199 -126 "},"ß":{"ha":718,"x_min":0,"x_max":0,"o":"m 83 572 b 413 986 83 850 214 986 b 646 768 526 986 646 919 b 536 486 646 643 536 557 b 678 200 536 426 678 349 b 450 -14 678 47 560 -14 b 389 14 429 -14 393 -14 l 376 107 b 400 133 375 119 385 135 b 504 204 450 131 504 153 b 360 461 504 293 360 354 b 472 761 360 557 472 664 b 396 836 472 806 439 836 b 254 569 331 836 254 774 l 254 26 b 228 0 254 13 242 0 l 110 0 b 83 26 96 0 83 13 "},"ť":{"ha":479,"x_min":0,"x_max":0,"o":"m 113 410 l 65 410 b 40 436 51 410 40 422 l 40 529 b 65 556 40 544 51 556 l 113 556 l 113 710 b 139 736 113 724 125 736 l 253 738 b 278 711 267 738 278 725 l 278 556 l 400 556 b 426 529 415 556 426 544 l 426 436 b 400 410 426 422 415 410 l 278 410 l 278 188 b 321 143 278 149 299 143 b 389 158 344 143 374 153 b 419 143 404 164 415 157 l 447 56 b 432 22 453 42 446 28 b 267 -14 425 18 335 -14 b 113 165 160 -14 113 53 m 533 607 b 536 639 524 617 526 631 b 631 808 550 649 631 711 b 589 801 629 808 611 801 b 496 893 538 801 496 842 b 594 986 496 944 538 986 b 710 838 644 986 710 951 b 585 586 710 701 621 618 b 553 588 574 578 564 576 "},"ţ":{"ha":481,"x_min":0,"x_max":0,"o":"m 113 410 l 65 410 b 40 436 51 410 40 422 l 40 529 b 65 556 40 544 51 556 l 113 556 l 113 710 b 139 736 113 724 125 736 l 253 738 b 278 711 267 738 278 725 l 278 556 l 400 556 b 426 529 415 556 426 544 l 426 436 b 400 410 426 422 415 410 l 278 410 l 278 188 b 321 143 278 149 299 143 b 389 158 344 143 374 153 b 419 143 404 164 415 157 l 447 56 b 432 22 453 42 446 28 b 267 -14 425 18 335 -14 b 113 165 160 -14 113 53 m 268 -126 b 383 -275 318 -126 383 -161 b 258 -526 383 -411 294 -494 b 226 -525 247 -535 236 -536 l 206 -506 b 210 -474 197 -496 200 -482 b 304 -304 224 -464 303 -401 b 261 -311 303 -304 285 -311 b 168 -219 211 -311 168 -271 b 268 -126 168 -168 211 -126 "},"ț":{"ha":481,"x_min":0,"x_max":0,"o":"m 113 410 l 65 410 b 40 436 51 410 40 422 l 40 529 b 65 556 40 544 51 556 l 113 556 l 113 710 b 139 736 113 724 125 736 l 253 738 b 278 711 267 738 278 725 l 278 556 l 400 556 b 426 529 415 556 426 544 l 426 436 b 400 410 426 422 415 410 l 278 410 l 278 188 b 321 143 278 149 299 143 b 389 158 344 143 374 153 b 419 143 404 164 415 157 l 447 56 b 432 22 453 42 446 28 b 267 -14 425 18 335 -14 b 113 165 160 -14 113 53 m 268 -126 b 383 -275 318 -126 383 -161 b 258 -526 383 -411 294 -494 b 226 -525 247 -535 236 -536 l 206 -506 b 210 -474 197 -496 200 -482 b 304 -304 224 -464 303 -401 b 261 -311 303 -304 285 -311 b 168 -219 211 -311 168 -271 b 268 -126 168 -168 211 -126 "},"ŧ":{"ha":479,"x_min":0,"x_max":0,"o":"m 113 236 l 69 236 b 44 263 56 236 44 249 l 44 281 b 69 307 44 294 56 307 l 113 307 l 113 410 l 65 410 b 40 436 51 410 40 422 l 40 529 b 65 556 40 544 51 556 l 113 556 l 113 710 b 139 736 113 724 125 736 l 253 738 b 278 711 267 738 278 725 l 278 556 l 400 556 b 426 529 415 556 426 544 l 426 436 b 400 410 426 422 415 410 l 278 410 l 278 307 l 390 307 b 417 281 406 307 417 294 l 417 261 b 390 236 417 247 406 236 l 278 236 l 278 189 b 321 144 278 150 299 144 b 389 158 344 144 374 153 b 419 143 404 164 415 157 l 447 56 b 432 22 451 42 446 28 b 267 -14 425 18 335 -14 b 113 165 160 -14 113 53 "},"þ":{"ha":694,"x_min":0,"x_max":0,"o":"m 254 -392 b 228 -418 254 -406 242 -418 l 110 -418 b 83 -392 96 -418 83 -406 l 83 946 b 110 972 83 960 96 972 l 228 972 b 254 946 242 972 254 960 l 254 529 b 385 568 276 543 321 568 b 653 278 538 568 653 436 b 371 -14 653 113 528 -14 b 254 17 324 -14 276 6 m 254 175 b 357 138 268 158 306 138 b 492 278 435 138 492 199 b 360 419 492 354 439 419 b 254 367 296 419 260 383 l 254 175 "},"ù":{"ha":699,"x_min":0,"x_max":0,"o":"m 74 529 b 100 556 74 544 86 556 l 214 556 b 240 529 228 556 240 544 l 240 256 b 342 136 240 182 278 136 b 453 240 400 136 444 190 l 453 529 b 483 556 453 550 461 556 l 589 556 b 615 529 603 556 615 544 l 615 26 b 589 0 615 13 603 0 l 538 0 b 511 21 524 0 515 10 l 494 67 b 308 -14 469 44 418 -14 b 74 260 136 -14 74 118 m 207 840 b 199 878 196 846 189 860 l 238 949 b 274 953 244 961 261 961 l 501 818 b 510 792 510 814 515 803 l 485 742 b 450 733 479 729 469 725 "},"ú":{"ha":699,"x_min":0,"x_max":0,"o":"m 74 529 b 100 556 74 544 86 556 l 214 556 b 240 529 228 556 240 544 l 240 256 b 342 136 240 182 278 136 b 453 240 400 136 444 190 l 453 529 b 483 556 453 550 461 556 l 589 556 b 615 529 603 556 615 544 l 615 26 b 589 0 615 13 603 0 l 538 0 b 511 21 524 0 515 10 l 494 67 b 308 -14 469 44 418 -14 b 74 260 136 -14 74 118 m 253 733 b 217 742 232 725 224 729 l 193 792 b 201 818 188 803 193 813 l 428 953 b 464 949 440 961 457 961 l 504 878 b 496 840 513 860 507 846 l 253 733 "},"û":{"ha":699,"x_min":0,"x_max":0,"o":"m 74 529 b 100 556 74 544 86 556 l 214 556 b 240 529 228 556 240 544 l 240 256 b 342 136 240 182 278 136 b 453 240 400 136 444 190 l 453 529 b 483 556 453 550 461 556 l 589 556 b 615 529 603 556 615 544 l 615 26 b 589 0 615 13 603 0 l 538 0 b 511 21 524 0 515 10 l 494 67 b 308 -14 469 44 418 -14 b 74 260 136 -14 74 118 m 143 786 b 151 813 136 796 143 807 l 332 953 b 361 953 340 960 351 960 l 542 813 b 550 786 550 807 557 796 l 514 735 b 482 731 506 724 499 721 l 347 815 l 211 731 b 179 735 194 721 188 724 "},"ũ":{"ha":699,"x_min":0,"x_max":0,"o":"m 74 529 b 100 556 74 544 86 556 l 214 556 b 240 529 228 556 240 544 l 240 256 b 342 136 240 182 278 136 b 453 240 400 136 444 190 l 453 529 b 483 556 453 550 461 556 l 589 556 b 615 529 603 556 615 544 l 615 26 b 589 0 615 13 603 0 l 538 0 b 511 21 524 0 515 10 l 494 67 b 308 -14 469 44 418 -14 b 74 260 136 -14 74 118 m 144 810 b 136 842 135 817 132 832 b 281 958 150 867 196 958 b 429 882 353 958 376 882 b 519 939 478 882 479 968 l 558 911 b 560 868 571 901 569 885 b 425 763 544 842 504 763 b 274 840 353 763 319 840 b 185 781 224 840 226 754 "},"ü":{"ha":699,"x_min":0,"x_max":0,"o":"m 74 529 b 100 556 74 544 86 556 l 214 556 b 240 529 228 556 240 544 l 240 256 b 342 136 240 182 278 136 b 453 240 400 136 444 190 l 453 529 b 483 556 453 550 461 556 l 589 556 b 615 529 603 556 615 544 l 615 26 b 589 0 615 13 603 0 l 538 0 b 511 21 524 0 515 10 l 494 67 b 308 -14 469 44 418 -14 b 74 260 136 -14 74 118 m 496 765 b 408 854 447 765 408 806 b 496 942 408 903 447 942 b 585 854 544 942 585 903 b 496 765 585 806 544 765 m 217 765 b 129 854 168 765 129 806 b 217 942 129 903 168 942 b 306 854 265 942 306 903 b 217 765 306 806 265 765 "},"ū":{"ha":699,"x_min":0,"x_max":0,"o":"m 74 529 b 100 556 74 544 86 556 l 214 556 b 240 529 228 556 240 544 l 240 256 b 342 136 240 182 278 136 b 453 240 400 136 444 190 l 453 529 b 483 556 453 550 461 556 l 589 556 b 615 529 603 556 615 544 l 615 26 b 589 0 615 13 603 0 l 538 0 b 511 21 524 0 515 10 l 494 67 b 308 -14 469 44 418 -14 b 74 260 136 -14 74 118 m 174 792 b 147 817 158 792 147 803 l 147 864 b 174 890 147 879 158 890 l 529 890 b 556 864 544 890 556 879 l 556 817 b 529 792 556 803 544 792 l 174 792 "},"ŭ":{"ha":699,"x_min":0,"x_max":0,"o":"m 74 529 b 100 556 74 544 86 556 l 214 556 b 240 529 228 556 240 544 l 240 256 b 342 136 240 182 278 136 b 453 240 400 136 444 190 l 453 529 b 483 556 453 550 461 556 l 589 556 b 615 529 603 556 615 544 l 615 26 b 589 0 615 13 603 0 l 538 0 b 511 21 524 0 515 10 l 494 67 b 308 -14 469 44 418 -14 b 74 260 136 -14 74 118 m 353 733 b 158 897 251 733 172 804 b 183 928 156 914 165 928 l 235 928 b 258 908 247 928 256 918 b 353 835 272 865 307 835 b 444 908 394 835 431 869 b 468 928 447 919 458 928 l 522 928 b 547 897 539 928 549 914 b 353 733 532 804 453 733 "},"ů":{"ha":699,"x_min":0,"x_max":0,"o":"m 74 529 b 100 556 74 544 86 556 l 214 556 b 240 529 228 556 240 544 l 240 256 b 342 136 240 182 278 136 b 453 240 400 136 444 190 l 453 529 b 483 556 453 550 461 556 l 589 556 b 615 529 603 556 615 544 l 615 26 b 589 0 615 13 603 0 l 538 0 b 511 21 524 0 515 10 l 494 67 b 308 -14 469 44 418 -14 b 74 260 136 -14 74 118 m 350 672 b 193 829 263 672 193 742 b 350 986 193 917 263 986 b 507 829 436 986 507 917 b 350 672 507 742 436 672 m 350 760 b 417 829 386 760 417 793 b 350 896 417 865 386 896 b 281 829 314 896 281 865 b 350 760 281 793 314 760 "},"ű":{"ha":699,"x_min":0,"x_max":0,"o":"m 74 529 b 100 556 74 544 86 556 l 214 556 b 240 529 228 556 240 544 l 240 256 b 342 136 240 182 278 136 b 453 240 400 136 444 190 l 453 529 b 483 556 453 550 461 556 l 589 556 b 615 529 603 556 615 544 l 615 26 b 589 0 615 13 603 0 l 538 0 b 511 21 524 0 515 10 l 494 67 b 308 -14 469 44 418 -14 b 74 260 136 -14 74 118 m 451 724 b 425 750 429 724 421 736 l 476 946 b 503 972 481 960 489 972 l 608 972 b 633 938 635 972 643 954 l 525 744 b 500 724 519 733 510 724 l 451 724 m 221 724 b 194 750 199 724 190 736 l 246 946 b 272 972 250 960 258 972 l 378 972 b 403 938 404 972 413 956 l 294 744 b 269 724 289 733 279 724 l 221 724 "},"ų":{"ha":699,"x_min":0,"x_max":0,"o":"m 74 529 b 100 556 74 544 86 556 l 214 556 b 240 529 228 556 240 544 l 240 264 b 342 144 240 190 278 144 b 453 249 400 144 444 199 l 453 529 b 483 556 453 550 461 556 l 589 556 b 615 529 603 556 615 544 l 615 26 b 589 0 615 13 603 0 l 581 0 b 518 -133 556 -25 518 -74 b 610 -222 518 -182 550 -222 b 674 -210 638 -222 657 -214 b 701 -233 689 -206 701 -217 l 701 -275 b 682 -301 701 -287 692 -297 b 590 -315 676 -303 632 -315 b 414 -162 494 -315 414 -267 b 513 18 414 -53 506 14 l 494 67 b 308 -14 469 44 418 -14 b 74 260 136 -14 74 118 "},"ẃ":{"ha":856,"x_min":0,"x_max":0,"o":"m 25 524 b 49 556 17 542 29 556 l 149 556 b 174 539 157 556 171 549 l 257 290 b 258 290 257 290 258 290 l 400 557 b 422 569 403 563 410 569 l 433 569 b 456 557 446 569 451 564 l 596 290 b 597 290 596 290 597 290 l 681 539 b 713 556 686 554 697 556 l 803 556 b 828 524 822 556 835 542 l 654 1 b 629 -14 651 -7 643 -14 l 624 -14 b 601 -1 613 -14 606 -8 l 426 322 b 425 322 426 322 425 322 l 251 -1 b 229 -14 247 -8 240 -14 l 222 -14 b 199 1 210 -14 201 -7 m 329 733 b 293 742 308 725 300 729 l 269 792 b 278 818 264 803 269 813 l 504 953 b 540 949 517 961 533 961 l 581 878 b 572 840 589 860 583 846 l 329 733 "},"ŵ":{"ha":856,"x_min":0,"x_max":0,"o":"m 25 524 b 49 556 17 542 29 556 l 149 556 b 174 539 157 556 171 549 l 257 290 b 258 290 257 290 258 290 l 400 557 b 422 569 403 563 410 569 l 433 569 b 456 557 446 569 451 564 l 596 290 b 597 290 596 290 597 290 l 681 539 b 713 556 686 554 697 556 l 803 556 b 828 524 822 556 835 542 l 654 1 b 629 -14 651 -7 643 -14 l 624 -14 b 601 -1 613 -14 606 -8 l 426 322 b 425 322 426 322 425 322 l 251 -1 b 229 -14 247 -8 240 -14 l 222 -14 b 199 1 210 -14 201 -7 m 222 786 b 231 813 215 796 222 807 l 411 953 b 440 953 419 960 431 960 l 621 813 b 629 786 629 807 636 796 l 593 735 b 561 731 585 724 578 721 l 426 815 l 290 731 b 258 735 274 721 267 724 "},"ẅ":{"ha":856,"x_min":0,"x_max":0,"o":"m 25 524 b 49 556 17 542 29 556 l 149 556 b 174 539 157 556 171 549 l 257 290 b 258 290 257 290 258 290 l 400 557 b 422 569 403 563 410 569 l 433 569 b 456 557 446 569 451 564 l 596 290 b 597 290 596 290 597 290 l 681 539 b 713 556 686 554 697 556 l 803 556 b 828 524 822 556 835 542 l 654 1 b 629 -14 651 -7 643 -14 l 624 -14 b 601 -1 613 -14 606 -8 l 426 322 b 425 322 426 322 425 322 l 251 -1 b 229 -14 247 -8 240 -14 l 222 -14 b 199 1 210 -14 201 -7 m 565 765 b 478 854 517 765 478 806 b 565 942 478 903 517 942 b 654 854 614 942 654 903 b 565 765 654 806 614 765 m 286 765 b 199 854 238 765 199 806 b 286 942 199 903 238 942 b 375 854 335 942 375 903 b 286 765 375 806 335 765 "},"ẁ":{"ha":856,"x_min":0,"x_max":0,"o":"m 25 524 b 49 556 17 542 29 556 l 149 556 b 174 539 157 556 171 549 l 257 290 b 258 290 257 290 258 290 l 400 557 b 422 569 403 563 410 569 l 433 569 b 456 557 446 569 451 564 l 596 290 b 597 290 596 290 597 290 l 681 539 b 713 556 686 554 697 556 l 803 556 b 828 524 822 556 835 542 l 654 1 b 629 -14 651 -7 643 -14 l 624 -14 b 601 -1 613 -14 606 -8 l 426 322 b 425 322 426 322 425 322 l 251 -1 b 229 -14 247 -8 240 -14 l 222 -14 b 199 1 210 -14 201 -7 m 281 840 b 272 878 269 846 263 860 l 311 949 b 347 953 318 961 335 961 l 575 818 b 583 792 583 814 589 803 l 558 742 b 524 733 553 729 543 725 "},"ý":{"ha":643,"x_min":0,"x_max":0,"o":"m 11 519 b 35 556 3 538 14 556 l 160 556 b 183 540 172 556 179 549 l 324 226 l 325 226 l 464 540 b 497 556 471 554 481 556 l 608 556 b 632 519 631 556 642 538 l 207 -400 b 183 -417 203 -408 194 -417 l 64 -417 b 40 -379 43 -417 31 -399 l 238 39 m 228 733 b 192 742 207 725 199 729 l 168 792 b 176 818 163 803 168 813 l 403 953 b 439 949 415 961 432 961 l 479 878 b 471 840 488 860 482 846 l 228 733 "},"ŷ":{"ha":643,"x_min":0,"x_max":0,"o":"m 11 519 b 35 556 3 538 14 556 l 160 556 b 183 540 172 556 179 549 l 324 226 l 325 226 l 464 540 b 497 556 471 554 481 556 l 608 556 b 632 519 631 556 642 538 l 207 -400 b 183 -417 203 -408 194 -417 l 64 -417 b 40 -379 43 -417 31 -399 l 238 39 m 119 786 b 128 813 113 796 119 807 l 308 953 b 338 953 317 960 328 960 l 518 813 b 526 786 526 807 533 796 l 490 735 b 458 731 482 724 475 721 l 324 815 l 188 731 b 156 735 171 721 164 724 "},"ÿ":{"ha":643,"x_min":0,"x_max":0,"o":"m 11 519 b 35 556 3 538 14 556 l 160 556 b 183 540 172 556 179 549 l 324 226 l 325 226 l 464 540 b 497 556 471 554 481 556 l 608 556 b 632 519 631 556 642 538 l 207 -400 b 183 -417 203 -408 194 -417 l 64 -417 b 40 -379 43 -417 31 -399 l 238 39 m 463 765 b 375 854 414 765 375 806 b 463 942 375 903 414 942 b 551 854 511 942 551 903 b 463 765 551 806 511 765 m 183 765 b 96 854 135 765 96 806 b 183 942 96 903 135 942 b 272 854 232 942 272 903 b 183 765 272 806 232 765 "},"ỳ":{"ha":643,"x_min":0,"x_max":0,"o":"m 11 519 b 35 556 3 538 14 556 l 160 556 b 183 540 172 556 179 549 l 324 226 l 325 226 l 464 540 b 497 556 471 554 481 556 l 608 556 b 632 519 631 556 642 538 l 207 -400 b 183 -417 203 -408 194 -417 l 64 -417 b 40 -379 43 -417 31 -399 l 238 39 m 178 840 b 169 878 167 846 160 860 l 208 949 b 244 953 215 961 232 961 l 472 818 b 481 792 481 814 486 803 l 456 742 b 421 733 450 729 440 725 "},"ź":{"ha":508,"x_min":0,"x_max":0,"o":"m 42 40 l 239 404 l 239 407 l 81 407 b 56 433 67 407 56 419 l 56 529 b 81 556 56 544 67 556 l 447 556 b 471 518 468 556 482 536 l 269 151 l 269 147 l 419 147 b 446 121 435 147 446 136 l 446 26 b 419 0 446 13 435 0 l 68 0 b 42 26 54 0 42 13 m 171 733 b 135 742 150 725 142 729 l 111 792 b 119 818 106 803 111 813 l 346 953 b 382 949 358 961 375 961 l 422 878 b 414 840 431 860 425 846 l 171 733 "},"ž":{"ha":508,"x_min":0,"x_max":0,"o":"m 42 40 l 239 404 l 239 407 l 81 407 b 56 433 67 407 56 419 l 56 529 b 81 556 56 544 67 556 l 447 556 b 471 518 468 556 482 536 l 269 151 l 269 147 l 419 147 b 446 121 435 147 446 136 l 446 26 b 419 0 446 13 435 0 l 68 0 b 42 26 54 0 42 13 m 69 868 b 61 894 61 874 54 885 l 97 946 b 129 950 106 957 113 960 l 264 865 l 400 950 b 432 946 417 960 424 957 l 468 894 b 460 868 475 885 468 874 l 279 728 b 250 728 271 721 260 721 "},"ż":{"ha":508,"x_min":0,"x_max":0,"o":"m 42 40 l 239 404 l 239 407 l 81 407 b 56 433 67 407 56 419 l 56 529 b 81 556 56 544 67 556 l 447 556 b 471 518 468 556 482 536 l 269 151 l 269 147 l 419 147 b 446 121 435 147 446 136 l 446 26 b 419 0 446 13 435 0 l 68 0 b 42 26 54 0 42 13 m 271 744 b 171 844 215 744 171 789 b 271 944 171 900 215 944 b 371 844 326 944 371 900 b 271 744 371 789 326 744 "},"Ĳ":{"ha":1042,"x_min":0,"x_max":0,"o":"m 126 946 b 153 972 126 960 139 972 l 282 972 b 308 946 296 972 308 960 l 308 26 b 282 0 308 13 296 0 l 153 0 b 126 26 139 0 126 13 m 439 88 b 442 122 432 99 433 113 l 514 196 b 556 194 529 210 543 207 b 647 150 574 175 601 150 b 758 290 701 150 758 194 l 758 946 b 785 972 758 960 769 972 l 915 972 b 942 946 931 972 942 960 l 942 290 b 650 -14 942 97 813 -14 b 439 88 529 -14 463 58 "},"ĳ":{"ha":694,"x_min":0,"x_max":0,"o":"m 165 753 b 71 849 113 753 71 796 b 165 944 71 901 113 944 b 263 849 219 944 263 901 b 165 753 263 796 219 753 m 83 529 b 110 556 83 544 96 556 l 225 556 b 251 529 239 556 251 544 l 251 26 b 225 0 251 13 239 0 l 110 0 b 83 26 96 0 83 13 m 525 753 b 431 849 472 753 431 796 b 525 944 431 901 472 944 b 622 849 579 944 622 901 b 525 753 622 796 579 753 m 442 529 b 468 556 442 544 454 556 l 585 556 b 611 529 599 556 611 544 l 611 -150 b 353 -431 611 -333 500 -431 b 189 -376 279 -431 213 -399 b 183 -344 179 -369 178 -354 l 229 -256 b 263 -249 235 -244 250 -242 b 344 -276 281 -260 314 -276 b 442 -150 407 -276 442 -231 "},"ﬁ":{"ha":774,"x_min":0,"x_max":0,"o":"m 117 410 l 69 410 b 43 436 54 410 43 422 l 43 529 b 69 556 43 544 54 556 l 117 556 l 117 707 b 390 986 117 876 235 986 b 603 926 482 986 568 946 b 611 890 615 919 618 903 l 564 803 b 526 790 554 783 543 782 b 392 829 521 793 447 829 b 290 706 342 829 290 792 l 290 556 l 664 556 b 690 529 678 556 690 544 l 690 26 b 664 0 690 13 678 0 l 549 0 b 522 26 533 0 522 13 l 522 410 l 290 410 l 290 26 b 238 0 290 0 258 0 l 143 0 b 117 26 129 0 117 13 "},"ﬂ":{"ha":792,"x_min":0,"x_max":0,"o":"m 117 411 l 67 411 b 40 436 51 411 40 422 l 40 528 b 67 556 40 543 51 556 l 117 556 l 117 707 b 390 986 117 888 242 986 b 589 908 511 986 589 908 l 604 947 b 638 972 611 963 619 972 l 682 972 b 708 946 696 972 708 960 l 708 26 b 682 0 708 13 696 0 l 565 0 b 539 26 551 0 539 13 l 539 760 b 406 828 532 769 481 828 b 289 706 347 828 289 792 l 289 556 l 406 556 b 432 529 419 556 432 544 l 432 438 b 406 411 432 424 419 411 l 289 411 l 289 26 b 263 0 289 13 276 0 l 142 0 b 117 26 128 0 117 13 "},"´":{"ha":419,"x_min":0,"x_max":0,"o":"m 124 733 b 88 742 103 725 94 729 l 64 792 b 72 818 58 803 64 813 l 299 953 b 335 949 311 961 328 961 l 375 878 b 367 840 383 860 378 846 l 124 733 "},"ˆ":{"ha":518,"x_min":0,"x_max":0,"o":"m 51 786 b 60 813 44 796 51 807 l 240 953 b 269 953 249 960 260 960 l 450 813 b 458 786 458 807 465 796 l 422 735 b 390 731 414 724 407 721 l 256 815 l 119 731 b 88 735 103 721 96 724 "},"ˇ":{"ha":518,"x_min":0,"x_max":0,"o":"m 61 868 b 53 894 53 874 46 885 l 89 946 b 121 950 97 957 104 960 l 256 865 l 392 950 b 424 946 408 960 415 957 l 460 894 b 451 868 467 885 460 874 l 271 728 b 242 728 263 721 251 721 "},"˜":{"ha":528,"x_min":0,"x_max":0,"o":"m 57 810 b 49 842 47 817 44 832 b 193 958 63 867 108 958 b 342 882 265 958 289 882 b 432 939 390 882 392 968 l 471 911 b 472 868 483 901 482 885 b 338 763 457 842 417 763 b 186 840 265 763 232 840 b 97 781 136 840 139 754 "},"¨":{"ha":575,"x_min":0,"x_max":0,"o":"m 435 765 b 347 854 386 765 347 806 b 435 942 347 903 386 942 b 524 854 483 942 524 903 b 435 765 524 806 483 765 m 156 765 b 68 854 107 765 68 806 b 156 942 68 903 107 942 b 244 854 204 942 244 903 b 156 765 244 806 204 765 "},"¯":{"ha":575,"x_min":0,"x_max":0,"o":"m 110 792 b 83 817 94 792 83 803 l 83 864 b 110 890 83 879 94 890 l 465 890 b 492 864 481 890 492 879 l 492 817 b 465 792 492 803 481 792 l 110 792 "},"ˉ":{"ha":575,"x_min":0,"x_max":0,"o":"m 110 792 b 83 817 94 792 83 803 l 83 864 b 110 890 83 879 94 890 l 465 890 b 492 864 481 890 492 879 l 492 817 b 465 792 492 803 481 792 l 110 792 "},"˘":{"ha":481,"x_min":0,"x_max":0,"o":"m 240 733 b 46 897 139 733 60 804 b 71 928 43 914 53 928 l 122 928 b 146 908 135 928 143 918 b 240 835 160 865 194 835 b 332 908 282 835 318 869 b 356 928 335 919 346 928 l 410 928 b 435 897 426 928 436 914 b 240 733 419 804 340 733 "},"˚":{"ha":403,"x_min":0,"x_max":0,"o":"m 201 672 b 44 829 114 672 44 742 b 201 986 44 917 114 986 b 358 829 288 986 358 917 b 201 672 358 742 288 672 m 201 760 b 268 829 238 760 268 793 b 201 896 268 865 238 896 b 132 829 165 896 132 865 b 201 760 132 793 165 760 "},"˝":{"ha":544,"x_min":0,"x_max":0,"o":"m 311 724 b 285 750 289 724 281 736 l 336 946 b 363 972 340 960 349 972 l 468 972 b 493 938 494 972 503 954 l 385 744 b 360 724 379 733 369 724 l 311 724 m 81 724 b 54 750 58 724 50 736 l 106 946 b 132 972 110 960 118 972 l 238 972 b 263 938 264 972 272 956 l 154 744 b 129 724 149 733 139 724 l 81 724 "},"˙":{"ha":304,"x_min":0,"x_max":0,"o":"m 151 744 b 51 844 96 744 51 789 b 151 944 51 900 96 944 b 251 844 207 944 251 900 b 151 744 251 789 207 744 "},"¸":{"ha":343,"x_min":0,"x_max":0,"o":"m 167 0 l 167 -72 b 301 -215 251 -83 301 -137 b 154 -361 301 -296 236 -361 b 49 -312 113 -361 72 -340 b 53 -274 38 -300 40 -285 l 81 -250 b 110 -251 89 -242 103 -243 b 151 -268 121 -264 139 -268 b 200 -217 179 -268 200 -244 b 99 -149 200 -183 171 -154 b 75 -124 78 -146 75 -131 l 75 0 "},"˛":{"ha":383,"x_min":0,"x_max":0,"o":"m 238 19 b 153 -133 238 19 153 -47 b 244 -222 153 -182 185 -222 b 308 -210 272 -222 292 -214 b 336 -233 324 -206 336 -217 l 336 -275 b 317 -301 336 -287 326 -297 b 225 -315 311 -303 267 -315 b 49 -162 129 -315 49 -267 b 149 19 49 -50 149 19 "},"…":{"ha":928,"x_min":0,"x_max":0,"o":"m 663 86 b 763 186 663 142 707 186 b 863 86 818 186 863 142 b 763 -14 863 32 818 -14 b 663 86 707 -14 663 32 m 367 86 b 465 186 367 142 411 186 b 567 86 521 186 567 142 b 465 -14 567 32 521 -14 b 367 86 411 -14 367 32 m 65 86 b 164 186 65 142 110 186 b 265 86 219 186 265 142 b 164 -14 265 32 219 -14 b 65 86 110 -14 65 32 "},"­":{"ha":482,"x_min":0,"x_max":0,"o":"m 86 267 b 60 292 71 267 60 278 l 60 385 b 86 411 60 400 71 411 l 396 411 b 422 385 411 411 422 400 l 422 292 b 396 267 422 278 411 267 l 86 267 "},"¡":{"ha":369,"x_min":0,"x_max":0,"o":"m 186 340 b 71 456 122 340 71 393 b 186 569 71 518 122 569 b 299 456 247 569 299 518 b 186 340 299 393 247 340 m 136 156 b 163 178 138 167 150 178 l 207 178 b 233 156 219 178 232 167 l 288 -232 l 288 -390 b 261 -417 288 -404 275 -417 l 108 -417 b 82 -390 94 -417 82 -404 l 82 -235 l 136 156 "},"¿":{"ha":603,"x_min":0,"x_max":0,"o":"m 322 340 b 207 456 260 340 207 393 b 322 569 207 518 260 569 b 436 456 385 569 436 518 b 322 340 436 393 385 340 m 26 -197 b 238 103 26 -29 238 19 l 238 149 b 265 178 238 165 247 178 l 378 178 b 404 151 392 178 404 167 l 404 93 b 211 -186 404 -39 211 -89 b 322 -279 211 -236 253 -279 b 472 -207 407 -279 444 -225 b 503 -208 483 -200 493 -200 l 568 -272 b 568 -308 579 -282 578 -299 b 296 -431 568 -308 474 -431 b 26 -197 150 -431 26 -333 "},"‘":{"ha":275,"x_min":0,"x_max":0,"o":"m 147 575 b 33 725 97 575 33 611 b 158 976 33 860 122 944 b 189 975 169 985 179 986 l 210 954 b 206 924 218 944 217 932 b 111 754 190 910 113 850 b 154 761 114 754 131 761 b 247 668 204 761 247 719 b 147 575 247 618 204 575 "},"’":{"ha":272,"x_min":0,"x_max":0,"o":"m 67 607 b 69 639 57 617 60 631 b 164 808 83 649 164 711 b 122 801 163 808 144 801 b 29 893 71 801 29 842 b 128 986 29 944 71 986 b 243 838 178 986 243 951 b 118 586 243 701 154 618 b 86 588 107 578 97 576 "},"“":{"ha":544,"x_min":0,"x_max":0,"o":"m 415 578 b 300 726 365 578 300 613 b 425 978 300 861 389 946 b 457 976 436 986 447 988 l 478 957 b 474 925 486 947 483 933 b 379 756 458 913 381 853 b 422 763 381 756 399 763 b 515 671 472 763 515 722 b 415 578 515 619 472 578 m 147 578 b 33 726 97 578 33 613 b 158 978 33 861 122 946 b 189 976 169 986 179 988 l 210 957 b 206 925 218 947 217 933 b 111 756 190 913 113 853 b 154 763 114 756 131 763 b 247 671 204 763 247 722 b 147 578 247 619 204 578 "},"”":{"ha":540,"x_min":0,"x_max":0,"o":"m 333 607 b 338 639 325 617 328 631 b 432 808 351 649 431 711 b 389 801 431 808 413 801 b 296 893 339 801 296 842 b 396 986 296 944 339 986 b 511 838 446 986 511 951 b 386 586 511 701 422 618 b 354 588 375 578 364 576 m 67 607 b 69 639 57 617 60 631 b 164 808 83 649 164 711 b 122 801 163 808 144 801 b 29 893 71 801 29 842 b 128 986 29 944 71 986 b 243 838 178 986 243 951 b 118 586 243 701 154 618 b 86 588 107 578 97 576 "},"‚":{"ha":317,"x_min":0,"x_max":0,"o":"m 51 79 b 151 172 51 129 94 172 b 267 22 201 172 267 136 b 142 -229 267 -112 178 -197 b 110 -228 131 -237 119 -239 l 89 -207 b 93 -176 81 -197 83 -185 b 188 -7 107 -167 186 -103 b 144 -14 186 -7 168 -14 b 51 79 94 -14 51 28 "},"„":{"ha":585,"x_min":0,"x_max":0,"o":"m 319 79 b 419 172 319 129 363 172 b 535 22 469 172 535 136 b 410 -229 535 -112 446 -197 b 378 -228 399 -237 388 -239 l 357 -207 b 361 -176 349 -197 351 -185 b 456 -7 375 -167 454 -103 b 413 -14 454 -7 436 -14 b 319 79 363 -14 319 28 m 53 79 b 151 172 53 129 94 172 b 267 22 201 172 267 136 b 142 -229 267 -112 178 -197 b 110 -228 131 -237 121 -239 l 90 -207 b 93 -176 81 -197 83 -185 b 188 -7 107 -167 188 -103 b 146 -14 186 -7 168 -14 b 53 79 94 -14 53 28 "},"‹":{"ha":376,"x_min":0,"x_max":0,"o":"m 36 269 b 36 303 28 281 31 294 l 188 508 b 213 525 192 515 201 525 l 292 525 b 313 482 315 525 324 504 l 218 289 l 308 85 b 288 43 318 63 311 43 l 201 43 b 181 54 192 43 185 49 "},"›":{"ha":376,"x_min":0,"x_max":0,"o":"m 88 43 b 67 85 64 43 57 63 l 157 289 l 63 482 b 83 525 51 504 60 525 l 163 525 b 188 508 174 525 183 515 l 339 303 b 339 269 344 294 347 281 l 194 54 b 174 43 190 49 183 43 l 88 43 "},"«":{"ha":654,"x_min":0,"x_max":0,"o":"m 314 269 b 314 303 306 281 308 294 l 465 508 b 490 525 469 515 479 525 l 569 525 b 590 482 593 525 601 504 l 496 289 l 586 85 b 565 43 596 63 589 43 l 479 43 b 458 54 469 43 463 49 l 314 269 m 36 269 b 36 303 28 281 31 294 l 188 508 b 213 525 192 515 201 525 l 292 525 b 313 482 315 525 324 504 l 218 289 l 308 85 b 288 43 318 63 311 43 l 201 43 b 181 54 192 43 185 49 "},"»":{"ha":654,"x_min":0,"x_max":0,"o":"m 435 289 l 340 482 b 361 525 329 504 338 525 l 440 525 b 465 508 451 525 461 515 l 617 303 b 617 269 622 294 625 281 l 472 54 b 451 43 468 49 461 43 l 365 43 b 344 85 342 43 335 63 m 88 43 b 67 85 64 43 57 63 l 157 289 l 63 482 b 83 525 51 504 60 525 l 163 525 b 188 508 174 525 183 515 l 339 303 b 339 269 344 294 347 281 l 194 54 b 174 43 190 49 183 43 l 88 43 "},"–":{"ha":749,"x_min":0,"x_max":0,"o":"m 100 292 b 74 317 85 292 74 303 l 74 368 b 100 394 74 383 85 394 l 649 394 b 675 368 664 394 675 383 l 675 317 b 649 292 675 303 664 292 l 100 292 "},"—":{"ha":1054,"x_min":0,"x_max":0,"o":"m 100 292 b 74 317 85 292 74 303 l 74 368 b 100 394 74 383 85 394 l 954 394 b 981 368 969 394 981 383 l 981 317 b 954 292 981 303 969 292 l 100 292 "},"•":{"ha":540,"x_min":0,"x_max":0,"o":"m 267 132 b 88 311 171 132 88 214 b 267 496 88 413 171 496 b 451 311 368 496 451 413 b 267 132 451 214 368 132 "},"·":{"ha":358,"x_min":0,"x_max":0,"o":"m 178 232 b 54 356 111 232 54 289 b 178 483 54 426 111 483 b 306 356 249 483 306 426 b 178 232 306 289 249 232 "},"∙":{"ha":540,"x_min":0,"x_max":0,"o":"m 268 232 b 144 356 201 232 144 289 b 268 483 144 426 201 483 b 396 356 339 483 396 426 b 268 232 396 289 339 232 "},"†":{"ha":858,"x_min":0,"x_max":0,"o":"m 96 397 b 69 424 82 397 69 410 l 69 529 b 96 556 69 543 82 556 l 332 556 l 332 946 b 358 972 332 960 344 972 l 492 972 b 518 946 506 972 518 960 l 518 556 l 764 556 b 789 529 778 556 789 543 l 789 424 b 764 397 789 410 778 397 l 508 397 l 464 -394 b 438 -417 464 -406 450 -417 l 413 -417 b 386 -394 400 -417 386 -406 l 342 397 l 96 397 "},"‡":{"ha":858,"x_min":0,"x_max":0,"o":"m 111 132 b 138 158 111 146 124 158 l 353 158 l 332 553 l 332 554 l 96 554 b 69 581 82 554 69 567 l 69 686 b 96 713 69 700 82 713 l 332 713 l 332 946 b 358 972 332 960 344 972 l 492 972 b 518 946 506 972 518 960 l 518 713 l 764 713 b 789 686 778 713 789 700 l 789 581 b 764 554 789 567 778 554 l 518 554 l 497 158 l 722 158 b 747 132 736 158 747 146 l 747 28 b 722 1 747 14 736 1 l 486 1 l 464 -394 b 438 -417 464 -406 450 -417 l 413 -417 b 386 -394 400 -417 386 -406 l 363 1 l 138 1 b 111 28 124 1 111 14 "},"§":{"ha":711,"x_min":0,"x_max":0,"o":"m 99 -122 b 147 -111 110 -104 126 -96 b 347 -192 157 -115 258 -192 b 465 -97 404 -192 465 -162 b 299 65 465 -17 378 32 b 49 349 174 117 49 201 b 149 538 49 439 106 501 b 49 735 113 571 49 636 b 347 986 49 854 135 986 b 613 897 483 986 588 915 b 622 854 625 890 632 869 l 565 772 b 519 765 554 756 540 751 b 340 835 501 778 413 835 b 221 746 261 835 221 789 b 378 600 221 686 271 643 b 658 308 510 547 658 472 b 557 115 658 221 596 150 b 658 -87 592 83 658 17 b 353 -346 658 -224 540 -346 b 63 -243 183 -346 86 -265 b 56 -196 49 -229 40 -218 l 99 -122 m 215 361 b 419 192 215 278 299 247 b 475 303 419 192 475 226 b 265 465 475 378 386 428 b 215 361 257 457 215 425 "},"¶":{"ha":974,"x_min":0,"x_max":0,"o":"m 315 390 b 26 682 158 390 26 518 b 296 972 26 840 144 972 l 929 971 b 956 944 943 971 956 958 l 956 881 b 929 854 956 865 943 854 l 821 854 l 821 -390 b 794 -417 821 -404 810 -417 l 719 -417 b 693 -390 706 -417 693 -404 l 693 854 l 504 854 l 504 -390 b 478 -417 504 -404 492 -417 l 403 -417 b 376 -390 389 -417 376 -404 l 376 390 l 315 390 "},"©":{"ha":1117,"x_min":0,"x_max":0,"o":"m 58 486 b 557 986 58 761 282 986 b 1057 486 832 986 1057 761 b 557 -12 1057 211 832 -12 b 58 486 282 -12 58 211 m 167 486 b 557 96 167 271 342 96 b 947 486 774 96 947 271 b 557 876 947 703 774 876 b 167 486 342 876 167 703 m 310 483 b 569 744 310 629 426 744 b 725 692 625 744 679 728 b 728 651 738 681 739 664 l 681 599 b 646 596 672 588 657 589 b 571 618 622 613 597 618 b 443 488 497 618 443 558 b 571 357 443 414 497 357 b 644 379 597 357 621 364 b 679 376 656 388 671 386 l 729 321 b 728 282 739 310 739 293 b 569 224 679 240 629 224 b 310 483 426 224 310 340 "},"®":{"ha":1117,"x_min":0,"x_max":0,"o":"m 58 486 b 557 986 58 761 282 986 b 1057 486 832 986 1057 761 b 557 -12 1057 211 832 -12 b 58 486 282 -12 58 211 m 167 486 b 557 96 167 271 342 96 b 947 486 774 96 947 271 b 557 876 947 703 774 876 b 167 486 342 876 167 703 m 371 715 b 397 742 371 729 382 742 l 613 742 b 783 569 699 742 783 678 b 685 415 783 478 728 436 l 749 271 b 725 233 757 251 744 233 l 650 233 b 625 253 639 233 629 243 l 564 408 l 492 408 l 492 260 b 465 233 492 246 481 233 l 397 233 b 371 260 382 233 371 246 m 597 511 b 654 568 631 511 654 536 b 597 625 654 601 631 625 l 488 625 l 488 511 "},"™":{"ha":1001,"x_min":0,"x_max":0,"o":"m 469 535 b 443 567 451 535 440 550 l 515 958 b 542 979 517 969 525 979 l 547 979 b 571 964 560 979 568 971 l 692 707 l 815 964 b 839 979 819 974 828 979 l 844 979 b 871 958 858 979 869 969 l 944 565 b 918 535 947 549 935 535 l 864 535 b 838 558 851 535 840 546 l 807 732 l 718 543 b 696 531 715 536 707 531 l 688 531 b 664 544 675 531 668 536 l 579 732 l 546 557 b 519 535 544 546 531 535 l 469 535 m 201 535 b 175 561 186 535 175 547 l 175 869 l 86 869 b 60 896 72 869 60 881 l 60 946 b 86 972 60 960 72 972 l 371 972 b 397 946 386 972 397 960 l 397 896 b 371 869 397 881 386 869 l 282 869 l 282 561 b 256 535 282 547 269 535 l 201 535 "},"¤":{"ha":633,"x_min":0,"x_max":0,"o":"m 79 279 b 79 317 69 289 69 307 l 146 383 b 147 539 124 433 124 490 l 81 606 b 81 643 71 615 71 633 l 136 697 b 174 697 146 707 164 707 l 239 632 b 394 632 288 656 346 656 l 460 697 b 497 697 469 707 486 707 l 551 642 b 553 606 561 632 563 615 l 488 540 b 489 382 510 490 511 432 l 554 317 b 554 279 564 307 564 290 l 499 225 b 463 224 489 215 472 214 l 396 290 b 238 290 346 267 288 267 l 171 224 b 133 224 161 214 143 214 m 315 390 b 388 461 357 390 388 421 b 315 533 388 503 357 533 b 244 461 275 533 244 503 b 315 390 244 421 275 390 "},"€":{"ha":997,"x_min":0,"x_max":0,"o":"m 53 347 b 28 374 39 347 28 360 l 28 392 b 53 418 28 406 39 418 l 107 418 b 103 485 104 440 103 461 b 104 514 103 494 103 504 l 53 514 b 28 540 39 514 28 526 l 28 558 b 53 585 28 572 39 585 l 113 585 b 604 986 158 814 361 986 b 940 857 744 986 846 942 b 942 818 953 846 953 829 l 858 732 b 821 732 849 721 832 721 b 608 813 763 785 686 813 b 313 585 464 813 350 715 l 636 585 b 663 558 651 585 663 572 l 663 538 b 636 513 663 524 651 513 l 299 513 b 299 489 299 504 299 497 b 306 418 299 465 300 442 l 581 418 b 607 392 596 418 607 406 l 607 372 b 581 347 607 358 596 347 l 331 347 b 610 168 379 242 483 168 b 822 247 693 168 764 200 b 857 247 833 257 849 256 l 943 158 b 942 121 954 149 951 131 b 604 -14 847 29 728 -14 b 122 347 375 -14 182 138 l 53 347 "},"¢":{"ha":572,"x_min":0,"x_max":0,"o":"m 214 6 b 26 278 106 47 26 150 b 322 569 26 442 167 569 b 365 567 336 569 351 568 l 381 624 b 413 642 385 638 399 646 l 429 638 b 447 606 443 635 451 621 l 431 547 b 528 471 468 531 500 504 b 521 432 538 458 535 442 l 457 371 b 422 375 444 360 432 367 b 392 400 414 385 403 393 l 321 138 b 436 189 385 138 411 165 b 471 193 446 199 460 201 l 531 142 b 540 103 544 131 550 117 b 321 -14 493 29 419 -14 b 281 -11 307 -14 293 -12 l 244 -144 b 213 -162 242 -158 226 -165 l 197 -158 b 178 -128 183 -156 175 -142 l 214 6 m 325 418 b 190 278 250 417 190 354 b 254 157 190 225 215 182 "},"£":{"ha":674,"x_min":0,"x_max":0,"o":"m 92 51 b 143 404 161 182 163 300 l 83 404 b 58 431 69 404 58 417 l 58 449 b 83 475 58 463 69 475 l 126 475 b 85 692 111 538 85 613 b 379 986 85 876 217 986 b 617 888 508 986 582 918 b 619 851 628 879 629 863 l 551 769 b 514 765 542 756 525 757 b 381 829 514 765 442 829 b 258 699 317 829 258 779 b 311 475 258 629 296 550 l 472 475 b 499 449 488 475 499 463 l 499 429 b 472 404 499 415 488 404 l 325 404 b 306 154 333 338 332 239 l 578 154 b 603 128 592 154 603 143 l 603 26 b 578 0 603 13 592 0 l 118 0 b 92 26 104 0 92 13 "},"ƒ":{"ha":515,"x_min":0,"x_max":0,"o":"m 154 411 l 50 411 b 24 438 35 411 24 424 l 24 529 b 50 556 24 544 35 556 l 154 556 l 154 707 b 422 986 154 888 267 986 b 576 932 501 986 553 951 b 582 899 585 924 589 908 l 531 813 b 497 806 522 801 508 799 b 424 829 490 811 451 829 b 328 706 374 829 328 792 l 328 556 l 467 556 b 493 529 482 556 493 544 l 493 438 b 467 411 493 424 482 411 l 328 411 l 328 -151 b 58 -431 328 -332 213 -431 b -96 -376 -21 -431 -72 -396 b -101 -343 -104 -368 -107 -353 l -49 -257 b -15 -250 -42 -246 -28 -243 b 57 -274 -10 -256 29 -274 b 154 -150 107 -274 154 -236 "},"¥":{"ha":879,"x_min":0,"x_max":0,"o":"m 193 167 b 168 193 179 167 168 179 l 168 211 b 193 238 168 225 179 238 l 347 238 l 347 333 l 193 333 b 168 360 179 333 168 346 l 168 378 b 193 404 168 392 179 404 l 347 404 l 347 468 l 31 932 b 53 972 19 950 31 972 l 196 972 b 218 960 206 972 214 965 l 440 640 l 663 960 b 685 972 667 965 672 972 l 826 972 b 849 932 849 972 860 950 l 528 469 l 528 404 l 679 404 b 706 378 694 404 706 392 l 706 358 b 679 333 706 344 694 333 l 528 333 l 528 238 l 679 238 b 706 211 694 238 706 225 l 706 192 b 679 167 706 178 694 167 l 528 167 l 528 26 b 501 0 528 13 515 0 l 374 0 b 347 26 358 0 347 13 l 347 167 l 193 167 "},"ª":{"ha":432,"x_min":0,"x_max":0,"o":"m 168 553 b 29 694 88 553 29 608 b 193 825 29 768 89 825 b 268 814 236 825 268 814 b 210 889 268 865 258 889 b 101 872 172 889 125 878 b 78 893 89 869 81 876 l 69 939 b 82 965 67 953 72 961 b 222 986 90 969 157 986 b 381 807 346 986 381 925 l 381 583 b 361 564 381 572 371 564 l 324 564 b 304 578 315 564 310 567 b 293 607 301 588 296 597 b 168 553 268 583 233 553 m 196 642 b 267 690 228 642 258 667 l 267 736 b 204 751 257 744 226 751 b 143 696 169 751 143 728 b 196 642 143 665 164 642 "},"º":{"ha":419,"x_min":0,"x_max":0,"o":"m 211 547 b 35 767 96 547 35 631 b 211 986 35 904 96 986 b 385 767 325 986 385 904 b 211 547 385 631 325 547 m 211 644 b 272 767 249 644 272 688 b 211 889 272 846 249 889 b 150 767 172 889 150 846 b 211 644 150 688 172 644 "},"¹":{"ha":272,"x_min":0,"x_max":0,"o":"m 115 700 b 101 713 107 700 101 706 l 101 981 l 33 975 b 21 988 26 975 21 979 l 18 1031 b 28 1046 18 1038 21 1040 l 131 1111 l 201 1111 b 214 1099 208 1111 214 1106 l 214 713 b 201 700 214 706 208 700 l 115 700 "},"²":{"ha":385,"x_min":0,"x_max":0,"o":"m 51 700 b 38 713 43 700 38 704 l 38 736 l 190 911 b 225 981 214 938 225 961 b 169 1029 225 1008 203 1029 b 108 1001 144 1029 119 1014 b 86 1006 100 996 93 996 l 56 1049 b 60 1078 47 1060 44 1067 b 190 1125 68 1085 118 1125 b 338 997 278 1125 338 1074 b 286 878 338 956 318 917 l 211 789 l 322 789 b 335 776 329 789 335 783 l 335 713 b 322 700 335 706 331 700 l 51 700 "},"³":{"ha":368,"x_min":0,"x_max":0,"o":"m 169 686 b 38 732 90 686 50 721 b 36 757 29 740 29 747 l 67 797 b 90 800 74 807 82 806 b 156 778 92 800 119 778 b 214 821 192 778 214 794 b 149 867 214 847 192 867 l 108 867 b 88 886 94 867 88 871 l 88 929 b 108 949 88 943 96 949 l 149 949 b 206 992 183 949 206 967 b 153 1033 206 1017 183 1033 b 99 1011 132 1033 111 1022 b 78 1015 90 1007 86 1004 l 44 1056 b 46 1081 38 1063 36 1075 b 169 1125 46 1081 92 1125 b 319 1010 258 1125 319 1081 b 249 913 319 960 281 926 l 249 911 b 332 806 281 899 332 867 b 169 686 332 729 258 686 "},"⁄":{"ha":171,"x_min":0,"x_max":0,"o":"m -83 14 b -107 0 -86 8 -96 0 l -174 0 b -197 38 -194 0 -207 19 l 279 958 b 303 972 283 967 292 972 l 372 972 b 396 935 393 972 406 953 l -83 14 "},"∕":{"ha":171,"x_min":0,"x_max":0,"o":"m -83 14 b -107 0 -86 8 -96 0 l -174 0 b -197 38 -194 0 -207 19 l 279 958 b 303 972 283 967 292 972 l 372 972 b 396 935 393 972 406 953 l -83 14 "},"½":{"ha":918,"x_min":0,"x_max":0,"o":"m 600 958 b 624 972 604 967 613 972 l 693 972 b 717 935 714 972 726 953 l 238 14 b 214 0 235 8 225 0 l 147 0 b 124 38 126 0 114 19 m 126 561 b 113 574 118 561 113 567 l 113 842 l 44 836 b 32 849 38 836 32 840 l 29 892 b 39 907 29 899 32 901 l 142 972 l 213 972 b 225 960 219 972 225 967 l 225 574 b 213 561 225 567 219 561 l 126 561 m 543 36 l 696 211 b 731 281 719 238 731 261 b 675 329 731 308 708 329 b 614 301 650 329 625 314 b 592 306 606 296 599 296 l 561 349 b 565 378 553 360 550 367 b 696 425 574 385 624 425 b 843 297 783 425 843 374 b 792 178 843 256 824 217 l 717 89 l 828 89 b 840 76 835 89 840 83 l 840 13 b 828 0 840 6 836 0 l 557 0 b 543 13 549 0 543 4 "},"⅓":{"ha":953,"x_min":0,"x_max":0,"o":"m 640 958 b 664 972 644 967 653 972 l 733 972 b 757 935 754 972 767 953 l 278 14 b 254 0 275 8 265 0 l 188 0 b 164 38 167 0 154 19 m 167 561 b 153 574 158 561 153 567 l 153 842 l 85 836 b 72 849 78 836 72 840 l 69 892 b 79 907 69 899 72 901 l 182 972 l 253 972 b 265 960 260 972 265 967 l 265 574 b 253 561 265 567 260 561 l 167 561 m 600 32 b 599 57 592 40 592 47 l 629 97 b 653 100 636 107 644 106 b 718 78 654 100 682 78 b 776 121 754 78 776 94 b 711 167 776 147 754 167 l 671 167 b 650 186 657 167 650 171 l 650 229 b 671 249 650 243 658 249 l 711 249 b 768 292 746 249 768 267 b 715 333 768 317 746 333 b 661 311 694 333 674 322 b 640 315 653 307 649 304 l 607 356 b 608 381 600 363 599 375 b 732 425 608 381 654 425 b 882 310 821 425 882 381 b 811 213 882 260 843 226 l 811 211 b 894 106 843 199 894 167 b 732 -14 894 29 821 -14 b 600 32 653 -14 613 21 "},"¼":{"ha":922,"x_min":0,"x_max":0,"o":"m 600 958 b 624 972 604 967 613 972 l 693 972 b 717 935 714 972 726 953 l 238 14 b 214 0 235 8 225 0 l 147 0 b 124 38 126 0 114 19 m 126 561 b 113 574 118 561 113 567 l 113 842 l 44 836 b 32 849 38 836 32 840 l 29 892 b 39 907 29 899 32 901 l 142 972 l 213 972 b 225 960 219 972 225 967 l 225 574 b 213 561 225 567 219 561 l 126 561 m 488 161 l 714 407 b 725 411 717 410 722 411 l 782 411 b 794 399 789 411 794 406 l 794 163 l 850 163 b 863 151 857 163 863 157 l 863 92 b 850 79 863 85 857 79 l 794 79 l 794 13 b 782 0 794 6 789 0 l 704 0 b 690 13 697 0 690 6 l 690 79 l 500 79 b 488 90 493 79 488 85 m 692 161 l 692 276 l 589 161 "},"⅛":{"ha":972,"x_min":0,"x_max":0,"o":"m 640 958 b 664 972 644 967 653 972 l 733 972 b 757 935 754 972 767 953 l 278 14 b 254 0 275 8 265 0 l 188 0 b 164 38 167 0 154 19 m 167 561 b 153 574 158 561 153 567 l 153 842 l 85 836 b 72 849 78 836 72 840 l 69 892 b 79 907 69 899 72 901 l 182 972 l 253 972 b 265 960 260 972 265 967 l 265 574 b 253 561 265 567 260 561 l 167 561 m 597 106 b 681 211 597 171 669 207 l 681 213 b 610 310 653 224 610 256 b 764 425 610 381 679 425 b 921 310 851 425 921 381 b 849 213 921 257 876 224 l 849 211 b 933 106 882 201 933 168 b 764 -14 933 38 867 -14 b 597 106 664 -14 597 38 m 719 296 b 765 253 719 272 736 256 b 810 296 793 256 810 275 b 764 339 810 318 790 339 b 719 296 739 339 719 318 m 711 117 b 765 72 711 90 738 72 b 818 117 793 72 818 89 b 765 167 818 140 799 164 b 711 117 733 164 711 140 "},"⅔":{"ha":953,"x_min":0,"x_max":0,"o":"m 24 561 b 10 574 15 561 10 565 l 10 597 l 163 772 b 197 842 186 799 197 822 b 142 890 197 869 175 890 b 81 863 117 890 92 875 b 58 867 72 857 65 857 l 28 910 b 32 939 19 921 17 928 b 163 986 40 946 90 986 b 310 858 250 986 310 935 b 258 739 310 817 290 778 l 183 650 l 294 650 b 307 638 301 650 307 644 l 307 574 b 294 561 307 567 303 561 l 24 561 m 640 958 b 664 972 644 967 653 972 l 733 972 b 757 935 754 972 767 953 l 278 14 b 254 0 275 8 265 0 l 188 0 b 164 38 167 0 154 19 m 600 32 b 599 57 592 40 592 47 l 629 97 b 653 100 636 107 644 106 b 718 78 654 100 682 78 b 776 121 754 78 776 94 b 711 167 776 147 754 167 l 671 167 b 650 186 657 167 650 171 l 650 229 b 671 249 650 243 658 249 l 711 249 b 768 292 746 249 768 267 b 715 333 768 317 746 333 b 661 311 694 333 674 322 b 640 315 653 307 649 304 l 607 356 b 608 381 600 363 599 375 b 732 425 608 381 654 425 b 882 310 821 425 882 381 b 811 213 882 260 843 226 l 811 211 b 894 106 843 199 894 167 b 732 -14 894 29 821 -14 b 600 32 653 -14 613 21 "},"¾":{"ha":974,"x_min":0,"x_max":0,"o":"m 178 547 b 46 593 99 547 58 582 b 44 618 38 601 38 608 l 75 658 b 99 661 82 668 90 667 b 164 639 100 661 128 639 b 222 682 200 639 222 656 b 157 728 222 708 200 728 l 117 728 b 96 747 103 728 96 732 l 96 790 b 117 810 96 804 104 810 l 157 810 b 214 853 192 810 214 828 b 161 894 214 878 192 894 b 107 872 140 894 119 883 b 86 876 99 868 94 865 l 53 917 b 54 942 46 924 44 936 b 178 986 54 942 100 986 b 328 871 267 986 328 942 b 257 774 328 821 289 788 l 257 772 b 340 667 289 760 340 728 b 178 547 340 590 267 547 m 651 958 b 675 972 656 967 664 972 l 744 972 b 768 935 765 972 778 953 l 289 14 b 265 0 286 8 276 0 l 199 0 b 175 38 178 0 165 19 m 539 161 l 765 407 b 776 411 768 410 774 411 l 833 411 b 846 399 840 411 846 406 l 846 163 l 901 163 b 914 151 908 163 914 157 l 914 92 b 901 79 914 85 908 79 l 846 79 l 846 13 b 833 0 846 6 840 0 l 756 0 b 742 13 749 0 742 6 l 742 79 l 551 79 b 539 90 544 79 539 85 m 743 161 l 743 276 l 640 161 "},"⅜":{"ha":972,"x_min":0,"x_max":0,"o":"m 167 547 b 35 593 88 547 47 582 b 33 618 26 601 26 608 l 64 658 b 88 661 71 668 79 667 b 153 639 89 661 117 639 b 211 682 189 639 211 656 b 146 728 211 708 189 728 l 106 728 b 85 747 92 728 85 732 l 85 790 b 106 810 85 804 93 810 l 146 810 b 203 853 181 810 203 828 b 150 894 203 878 181 894 b 96 872 129 894 108 883 b 75 876 88 868 83 865 l 42 917 b 43 942 35 924 33 936 b 167 986 43 942 89 986 b 317 871 256 986 317 942 b 246 774 317 821 278 788 l 246 772 b 329 667 278 760 329 728 b 167 547 329 590 256 547 m 640 958 b 664 972 644 967 653 972 l 733 972 b 757 935 754 972 767 953 l 278 14 b 254 0 275 8 265 0 l 188 0 b 164 38 167 0 154 19 m 597 106 b 681 211 597 171 669 207 l 681 213 b 610 310 653 224 610 256 b 764 425 610 381 679 425 b 921 310 851 425 921 381 b 849 213 921 257 876 224 l 849 211 b 933 106 882 201 933 168 b 764 -14 933 38 867 -14 b 597 106 664 -14 597 38 m 719 296 b 765 253 719 272 736 256 b 810 296 793 256 810 275 b 764 339 810 318 790 339 b 719 296 739 339 719 318 m 711 117 b 765 72 711 90 738 72 b 818 117 793 72 818 89 b 765 167 818 140 799 164 b 711 117 733 164 711 140 "},"⅝":{"ha":972,"x_min":0,"x_max":0,"o":"m 642 958 b 665 972 646 967 654 972 l 735 972 b 758 935 756 972 768 953 l 279 14 b 256 0 276 8 267 0 l 189 0 b 165 38 168 0 156 19 m 168 547 b 35 600 97 547 51 581 b 33 621 28 607 26 613 l 71 667 b 92 669 78 676 85 676 b 171 640 93 668 124 640 b 233 693 203 640 233 663 b 167 744 233 724 208 744 l 64 744 b 43 767 50 744 43 756 l 43 960 b 56 972 43 967 49 972 l 278 972 b 290 960 285 972 290 967 l 290 899 b 278 886 290 892 285 886 l 135 886 l 135 832 l 183 832 b 342 694 283 832 342 781 b 168 547 342 610 272 547 m 599 106 b 682 211 599 171 671 207 l 682 213 b 611 310 654 224 611 256 b 765 425 611 381 681 425 b 922 310 853 425 922 381 b 850 213 922 257 878 224 l 850 211 b 935 106 883 201 935 168 b 765 -14 935 38 868 -14 b 599 106 665 -14 599 38 m 721 296 b 767 253 721 272 738 256 b 811 296 794 256 811 275 b 765 339 811 318 792 339 b 721 296 740 339 721 318 m 713 117 b 767 72 713 90 739 72 b 819 117 794 72 819 89 b 767 167 819 140 800 164 b 713 117 735 164 713 140 "},"⅞":{"ha":972,"x_min":0,"x_max":0,"o":"m 640 958 b 664 972 644 967 653 972 l 733 972 b 757 935 754 972 767 953 l 278 14 b 254 0 275 8 265 0 l 188 0 b 164 38 167 0 154 19 m 104 561 b 89 572 94 561 89 564 l 89 581 l 250 883 l 99 883 b 85 894 92 883 85 889 l 85 960 b 99 972 85 967 92 972 l 375 972 b 388 960 382 972 388 967 l 388 940 l 204 574 b 183 561 199 564 193 561 l 104 561 m 597 106 b 681 211 597 171 669 207 l 681 213 b 610 310 653 224 610 256 b 764 425 610 381 679 425 b 921 310 851 425 921 381 b 849 213 921 257 876 224 l 849 211 b 933 106 882 201 933 168 b 764 -14 933 38 867 -14 b 597 106 664 -14 597 38 m 719 296 b 765 253 719 272 736 256 b 810 296 793 256 810 275 b 764 339 810 318 790 339 b 719 296 739 339 719 318 m 711 117 b 765 72 711 90 738 72 b 818 117 793 72 818 89 b 765 167 818 140 799 164 b 711 117 733 164 711 140 "},"‰":{"ha":1369,"x_min":0,"x_max":0,"o":"m 247 611 b 60 799 143 611 60 694 b 247 986 60 903 143 986 b 435 799 350 986 435 903 b 247 611 435 694 350 611 m 650 958 b 674 972 654 967 663 972 l 743 972 b 767 935 764 972 776 953 l 288 14 b 264 0 285 8 275 0 l 197 0 b 174 38 176 0 164 19 m 247 731 b 314 799 283 731 314 761 b 247 865 314 835 283 865 b 179 799 210 865 179 835 b 247 731 179 761 210 731 m 938 174 b 1125 361 938 278 1022 361 b 1314 174 1229 361 1314 278 b 1125 -14 1314 69 1229 -14 b 938 174 1022 -14 938 69 m 517 174 b 704 361 517 278 601 361 b 893 174 808 361 893 278 b 704 -14 893 69 808 -14 b 517 174 601 -14 517 69 m 1058 174 b 1125 106 1058 136 1089 106 b 1193 174 1163 106 1193 136 b 1125 240 1193 210 1163 240 b 1058 174 1089 240 1058 210 m 636 174 b 704 106 636 136 667 106 b 772 174 740 106 772 136 b 704 240 772 210 740 240 b 636 174 667 240 636 210 "},"−":{"ha":739,"x_min":0,"x_max":0,"o":"m 96 417 b 69 443 82 417 69 429 l 69 521 b 96 547 69 535 82 547 l 643 547 b 668 521 657 547 668 535 l 668 443 b 643 417 668 429 657 417 l 96 417 "},"±":{"ha":778,"x_min":0,"x_max":0,"o":"m 324 504 l 115 504 b 89 531 101 504 89 517 l 89 608 b 115 635 89 622 101 635 l 324 635 l 324 840 b 350 865 324 854 336 865 l 428 865 b 454 840 442 865 454 854 l 454 635 l 663 635 b 688 608 676 635 688 622 l 688 531 b 663 504 688 517 676 504 l 454 504 l 454 361 b 428 336 454 347 442 336 l 350 336 b 324 361 336 336 324 347 m 89 169 b 115 196 89 183 101 196 l 663 196 b 688 169 676 196 688 183 l 688 92 b 663 65 688 78 676 65 l 115 65 b 89 92 101 65 89 78 "},"×":{"ha":644,"x_min":0,"x_max":0,"o":"m 83 299 b 83 335 74 308 74 325 l 231 482 l 83 629 b 83 667 74 639 74 657 l 138 722 b 175 722 147 732 165 732 l 322 575 l 469 724 b 506 722 479 733 496 732 l 561 667 b 563 631 571 657 572 640 l 415 482 l 563 335 b 561 297 572 324 571 307 l 506 243 b 469 242 496 233 479 232 l 322 390 l 175 243 b 139 243 165 233 149 233 "},"÷":{"ha":701,"x_min":0,"x_max":0,"o":"m 347 654 b 251 750 294 654 251 699 b 347 846 251 803 294 846 b 443 750 400 846 443 803 b 347 654 443 699 400 654 m 78 415 b 51 442 64 415 51 428 l 51 519 b 78 546 51 533 64 546 l 625 546 b 650 519 639 546 650 533 l 650 442 b 625 415 650 428 639 415 l 78 415 m 251 222 b 346 317 251 275 293 317 b 442 222 399 317 442 275 b 346 126 442 169 399 126 b 251 222 293 126 251 169 "},"≠":{"ha":644,"x_min":0,"x_max":0,"o":"m 171 71 b 157 104 158 76 151 92 l 190 176 l 96 176 b 69 203 81 176 69 189 l 69 282 b 96 308 69 296 81 308 l 253 308 l 326 469 l 96 469 b 69 496 81 469 69 482 l 69 574 b 96 600 69 588 81 600 l 388 600 l 436 704 b 471 717 442 718 458 722 l 488 708 b 500 675 501 703 508 688 l 465 600 l 549 600 b 575 574 564 600 575 588 l 575 496 b 549 469 575 482 564 469 l 404 469 l 331 308 l 549 308 b 575 282 564 308 575 296 l 575 203 b 549 176 575 189 564 176 l 269 176 l 222 74 b 188 63 217 61 200 57 l 171 71 "},"≈":{"ha":643,"x_min":0,"x_max":0,"o":"m 60 482 b 57 510 51 489 50 503 b 226 625 57 510 135 625 b 336 575 276 625 308 594 b 415 540 357 561 383 540 b 494 606 453 540 481 582 b 526 608 503 617 515 617 l 578 564 b 579 535 585 557 586 543 b 413 421 579 535 504 421 b 297 475 360 421 326 454 b 226 504 276 489 256 504 b 144 440 189 504 158 463 b 114 436 138 428 122 428 m 60 207 b 57 235 53 214 50 226 b 226 349 57 235 135 349 b 336 299 276 349 308 319 b 415 264 357 285 383 264 b 494 329 453 264 481 307 b 526 332 503 340 515 340 l 578 288 b 579 258 585 281 586 267 b 413 144 579 258 504 144 b 297 199 360 144 326 178 b 226 228 276 213 256 228 b 144 164 189 228 158 188 b 114 161 138 151 122 151 "},"≤":{"ha":633,"x_min":0,"x_max":0,"o":"m 32 529 b 18 553 24 533 18 539 l 18 569 b 32 592 18 581 24 588 l 581 853 b 615 832 599 861 615 853 l 615 732 b 604 713 615 722 611 715 l 257 565 l 604 424 b 615 404 611 419 615 413 l 615 303 b 581 282 615 282 597 272 l 32 529 m 42 65 b 15 92 28 65 15 78 l 15 169 b 42 196 15 183 28 196 l 589 196 b 614 169 603 196 614 183 l 614 92 b 589 65 614 78 603 65 l 42 65 "},"≥":{"ha":633,"x_min":0,"x_max":0,"o":"m 50 282 b 15 303 33 272 15 282 l 15 404 b 26 424 15 413 19 419 l 374 565 l 26 713 b 15 732 19 715 15 722 l 15 832 b 50 853 15 853 32 861 l 599 592 b 613 569 607 588 613 581 l 613 553 b 599 529 613 539 607 533 l 50 282 m 42 65 b 17 92 28 65 17 78 l 17 169 b 42 196 17 183 28 196 l 589 196 b 615 169 603 196 615 183 l 615 92 b 589 65 615 78 603 65 l 42 65 "},"¬":{"ha":700,"x_min":0,"x_max":0,"o":"m 58 417 b 32 443 44 417 32 429 l 32 521 b 58 547 32 535 44 547 l 604 547 b 631 521 619 547 631 533 l 631 207 b 604 182 631 193 618 182 l 526 182 b 500 207 513 182 500 193 l 500 417 l 58 417 "},"∆":{"ha":976,"x_min":0,"x_max":0,"o":"m 461 974 b 483 988 465 982 475 988 l 496 988 b 518 974 504 988 514 982 l 938 57 b 910 0 950 29 944 0 l 76 0 b 40 60 40 0 22 19 m 700 165 l 488 638 l 486 638 l 278 165 "},"Δ":{"ha":976,"x_min":0,"x_max":0,"o":"m 461 974 b 483 988 465 982 475 988 l 496 988 b 518 974 504 988 514 982 l 938 57 b 910 0 950 29 944 0 l 76 0 b 40 60 40 0 22 19 m 700 165 l 488 638 l 486 638 l 278 165 "},"Ω":{"ha":1085,"x_min":0,"x_max":0,"o":"m 46 147 b 71 172 46 160 57 172 l 190 172 b 42 494 101 232 42 371 b 542 986 42 772 264 986 b 1042 494 819 986 1042 772 b 890 172 1042 371 981 232 l 1013 172 b 1038 147 1026 172 1038 160 l 1038 25 b 1013 0 1038 11 1026 0 l 638 0 b 614 25 624 0 614 11 l 614 100 b 647 153 614 136 625 140 b 858 485 781 218 858 354 b 542 804 858 657 714 804 b 224 485 368 804 224 657 b 435 153 224 354 303 218 b 469 100 458 140 469 136 l 469 25 b 444 0 469 11 460 0 l 71 0 b 46 25 57 0 46 11 "},"Ω":{"ha":1085,"x_min":0,"x_max":0,"o":"m 46 147 b 71 172 46 160 57 172 l 190 172 b 42 494 101 232 42 371 b 542 986 42 772 264 986 b 1042 494 819 986 1042 772 b 890 172 1042 371 981 232 l 1013 172 b 1038 147 1026 172 1038 160 l 1038 25 b 1013 0 1038 11 1026 0 l 638 0 b 614 25 624 0 614 11 l 614 100 b 647 153 614 136 625 140 b 858 485 781 218 858 354 b 542 804 858 657 714 804 b 224 485 368 804 224 657 b 435 153 224 354 303 218 b 469 100 458 140 469 136 l 469 25 b 444 0 469 11 460 0 l 71 0 b 46 25 57 0 46 11 "},"µ":{"ha":728,"x_min":0,"x_max":0,"o":"m 251 -390 b 225 -417 251 -404 239 -417 l 111 -417 b 85 -390 97 -417 85 -404 l 85 529 b 111 556 85 544 97 556 l 225 556 b 251 529 239 556 251 544 l 251 253 b 353 144 254 185 292 144 b 464 249 411 144 456 199 l 464 529 b 494 556 464 550 472 556 l 600 556 b 626 529 614 556 626 544 l 626 26 b 600 0 626 13 614 0 l 549 0 b 522 21 535 0 526 10 l 506 67 b 319 -14 481 44 429 -14 b 251 -6 294 -14 272 -11 "},"μ":{"ha":728,"x_min":0,"x_max":0,"o":"m 251 -390 b 225 -417 251 -404 239 -417 l 111 -417 b 85 -390 97 -417 85 -404 l 85 529 b 111 556 85 544 97 556 l 225 556 b 251 529 239 556 251 544 l 251 253 b 353 144 254 185 292 144 b 464 249 411 144 456 199 l 464 529 b 494 556 464 550 472 556 l 600 556 b 626 529 614 556 626 544 l 626 26 b 600 0 626 13 614 0 l 549 0 b 522 21 535 0 526 10 l 506 67 b 319 -14 481 44 429 -14 b 251 -6 294 -14 272 -11 "},"π":{"ha":946,"x_min":0,"x_max":0,"o":"m 168 410 l 61 410 b 36 435 47 410 36 422 l 36 531 b 61 556 36 544 47 556 l 857 556 b 881 532 871 556 881 546 l 881 435 b 857 410 881 421 871 410 l 742 410 l 742 25 b 717 0 742 11 731 0 l 593 0 b 568 25 581 0 568 11 l 568 410 l 342 410 l 342 25 b 317 0 342 11 329 0 l 193 0 b 168 25 179 0 168 11 "},"°":{"ha":431,"x_min":0,"x_max":0,"o":"m 215 611 b 28 799 111 611 28 694 b 215 986 28 903 111 986 b 403 799 318 986 403 903 b 215 611 403 694 318 611 m 215 728 b 283 799 251 728 283 761 b 215 867 283 835 251 867 b 144 799 178 867 144 835 b 215 728 144 761 178 728 "},"ℓ":{"ha":701,"x_min":0,"x_max":0,"o":"m 131 214 b 136 292 131 240 133 265 b 75 276 117 286 90 279 b 54 292 63 275 56 279 l 47 344 b 68 372 46 356 44 368 b 157 393 99 378 129 383 b 179 511 164 433 171 471 b 467 986 239 814 322 986 b 626 793 568 986 626 910 b 236 325 626 551 438 401 b 224 217 229 290 224 254 b 328 81 224 147 251 81 b 532 142 410 81 478 108 b 568 135 553 154 558 150 l 588 106 b 585 68 600 88 601 83 b 328 -14 569 56 463 -14 b 131 214 186 -14 131 96 m 254 422 b 533 793 410 490 533 613 b 467 890 533 853 508 890 b 268 496 378 890 314 742 l 254 422 "},"℮":{"ha":1143,"x_min":0,"x_max":0,"o":"m 208 233 b 538 76 278 135 408 76 b 818 189 635 76 736 118 b 857 192 831 201 842 207 l 886 161 b 878 121 897 149 893 136 b 538 -14 781 31 663 -14 b 33 485 256 -14 33 204 b 538 986 33 767 256 986 b 1043 481 818 986 1040 763 b 1010 440 1043 450 1033 440 l 208 440 l 208 233 m 869 528 l 869 736 b 538 894 794 833 674 894 b 208 739 400 894 283 838 l 208 528 "},"ŋ":{"ha":721,"x_min":0,"x_max":0,"o":"m 83 529 b 110 556 83 544 96 556 l 163 556 b 186 539 175 556 182 549 l 206 488 b 401 569 226 510 294 569 b 649 293 578 569 649 438 l 649 -150 b 390 -431 649 -333 538 -431 b 226 -376 317 -431 250 -399 b 221 -344 217 -369 215 -354 l 267 -256 b 300 -249 272 -244 288 -242 b 382 -276 318 -260 351 -276 b 482 -150 444 -276 482 -231 l 482 293 b 378 411 482 365 444 411 b 247 324 306 411 261 361 l 247 26 b 213 0 247 7 239 0 l 110 0 b 83 26 96 0 83 13 "},"Ŋ":{"ha":1074,"x_min":0,"x_max":0,"o":"m 126 961 b 153 986 126 975 139 986 l 188 986 l 765 372 l 767 372 l 767 946 b 793 972 767 960 778 972 l 921 972 b 947 946 935 972 947 960 l 947 -150 b 689 -431 947 -333 836 -431 b 525 -376 615 -431 549 -399 b 519 -344 515 -369 514 -354 l 565 -256 b 599 -249 571 -244 586 -242 b 681 -276 617 -260 650 -276 b 774 -150 743 -276 774 -231 l 774 110 l 307 624 l 306 624 l 306 26 b 279 0 306 13 294 0 l 153 0 b 126 26 139 0 126 13 "},"∞":{"ha":824,"x_min":0,"x_max":0,"o":"m 264 217 b 69 411 157 217 69 304 b 264 606 69 519 157 606 b 410 529 322 606 376 571 b 558 606 446 571 500 606 b 754 411 667 606 754 519 b 558 217 754 304 667 217 b 410 293 500 217 446 250 b 264 217 376 250 322 217 m 481 411 b 553 339 481 371 513 339 b 626 411 593 339 626 371 b 553 483 626 451 593 483 b 481 411 513 483 481 451 m 268 339 b 342 411 308 339 342 371 b 268 483 342 451 308 483 b 197 411 229 483 197 451 b 268 339 197 371 229 339 "},"∂":{"ha":792,"x_min":0,"x_max":0,"o":"m 74 304 b 357 606 74 503 218 606 b 515 567 422 606 492 581 b 210 833 472 719 275 813 b 185 874 183 842 178 857 l 217 956 b 256 975 222 974 236 981 b 718 369 375 936 718 775 b 388 -14 718 161 606 -14 b 74 304 217 -14 74 129 m 231 307 b 389 144 231 219 301 144 b 551 349 501 144 551 254 b 390 469 536 399 482 469 b 231 307 301 469 231 396 "},"∫":{"ha":546,"x_min":0,"x_max":0,"o":"m 168 707 b 436 986 168 888 281 986 b 590 932 515 986 567 951 b 596 899 599 924 603 908 l 544 813 b 511 806 536 801 522 799 b 438 829 504 811 465 829 b 342 706 388 829 342 792 l 342 -151 b 72 -431 342 -332 226 -431 b -82 -376 -7 -431 -58 -396 b -87 -343 -90 -368 -93 -353 l -35 -257 b -1 -250 -28 -246 -14 -243 b 71 -274 4 -256 43 -274 b 168 -150 121 -274 168 -236 "},"√":{"ha":954,"x_min":0,"x_max":0,"o":"m 83 524 b 104 556 75 540 85 556 l 235 556 b 256 542 244 556 254 547 l 349 329 l 356 329 l 639 957 b 663 972 642 964 651 972 l 924 972 b 947 947 938 972 947 961 l 947 847 b 924 822 947 833 938 822 l 758 822 l 379 1 b 357 -14 375 -7 364 -14 l 344 -14 b 322 1 338 -14 326 -7 "},"∑":{"ha":758,"x_min":0,"x_max":0,"o":"m 69 81 l 456 492 l 69 900 l 69 947 b 93 972 69 961 79 972 l 664 972 b 689 947 678 972 689 961 l 689 825 b 664 800 689 811 678 800 l 364 800 l 596 582 b 621 532 606 574 621 558 l 621 454 b 596 407 621 431 606 417 l 364 172 l 664 172 b 689 147 678 172 689 161 l 689 25 b 664 0 689 11 678 0 l 93 0 b 69 25 79 0 69 11 "},"∏":{"ha":953,"x_min":0,"x_max":0,"o":"m 68 947 b 93 972 68 961 79 972 l 860 972 b 883 947 872 972 883 961 l 883 25 b 860 0 883 11 872 0 l 724 0 b 700 25 710 0 700 11 l 700 800 l 253 800 l 253 25 b 228 0 253 11 242 0 l 93 0 b 68 25 79 0 68 11 "},"◊":{"ha":976,"x_min":0,"x_max":0,"o":"m 128 433 b 110 510 108 458 104 482 b 135 558 114 526 121 539 l 461 974 b 483 988 465 982 475 988 l 496 988 b 518 974 504 988 514 982 l 844 560 b 869 479 867 531 875 508 b 843 426 867 461 858 447 l 518 14 b 496 0 514 6 504 0 l 483 0 b 461 14 475 0 465 7 l 128 433 m 488 232 b 490 232 489 232 489 232 l 689 493 l 490 757 b 488 757 489 757 489 757 l 289 493 l 488 232 "},"":{"ha":832,"x_min":0,"x_max":0,"o":"m 69 931 b 111 972 69 960 82 972 l 721 972 b 763 931 750 972 763 960 l 763 42 b 721 0 763 13 750 0 l 111 0 b 69 42 82 0 69 13 m 364 436 b 383 419 364 426 374 419 l 433 419 b 454 438 446 419 454 425 l 454 474 b 600 682 454 540 600 561 b 426 836 600 772 525 836 b 246 751 306 836 246 751 b 246 726 240 743 238 733 l 276 696 b 300 696 285 690 292 690 b 417 753 318 713 350 753 b 501 681 472 753 501 718 b 364 476 501 593 364 581 l 364 436 m 340 217 b 407 150 340 181 371 150 b 475 217 444 150 475 181 b 407 283 475 253 444 283 b 340 217 371 283 340 253 "},"⁰":{"ha":496,"x_min":0,"x_max":0,"o":"m 249 686 b 72 906 133 686 72 769 b 249 1125 72 1043 133 1125 b 422 906 363 1125 422 1043 b 249 686 422 769 363 686 m 249 783 b 310 906 286 783 310 826 b 249 1028 310 985 286 1028 b 188 906 210 1028 188 985 b 249 783 188 826 210 783 "},"⁴":{"ha":514,"x_min":0,"x_max":0,"o":"m 286 700 b 272 713 279 700 272 706 l 272 779 l 82 779 b 69 790 75 779 69 785 l 69 861 l 296 1107 b 307 1111 299 1110 304 1111 l 364 1111 b 376 1099 371 1111 376 1106 l 376 863 l 432 863 b 444 851 439 863 444 857 l 444 792 b 432 779 444 785 439 779 l 376 779 l 376 713 b 364 700 376 706 371 700 l 286 700 m 274 861 l 274 976 l 171 861 "},"⁵":{"ha":453,"x_min":0,"x_max":0,"o":"m 211 686 b 78 739 140 686 94 719 b 76 760 71 746 69 751 l 114 806 b 135 808 121 815 128 815 b 214 779 136 807 167 779 b 276 832 246 779 276 801 b 210 883 276 863 251 883 l 107 883 b 86 906 93 883 86 894 l 86 1099 b 99 1111 86 1106 92 1111 l 321 1111 b 333 1099 328 1111 333 1106 l 333 1038 b 321 1025 333 1031 328 1025 l 178 1025 l 178 971 l 226 971 b 385 833 326 971 385 919 b 211 686 385 749 315 686 "},"⁶":{"ha":464,"x_min":0,"x_max":0,"o":"m 236 686 b 69 858 131 686 69 761 b 300 1131 69 1040 250 1115 b 325 1119 313 1135 321 1129 l 343 1072 b 331 1050 346 1064 344 1054 b 186 947 297 1040 208 1003 b 263 965 189 949 218 965 b 394 831 328 965 394 921 b 236 686 394 751 322 686 m 236 782 b 292 835 267 782 292 806 b 236 889 292 865 267 889 b 174 847 206 889 181 864 b 236 782 175 815 200 782 "},"⁷":{"ha":447,"x_min":0,"x_max":0,"o":"m 94 700 b 79 711 85 700 79 703 l 79 719 l 240 1022 l 89 1022 b 75 1033 82 1022 75 1028 l 75 1099 b 89 1111 75 1106 82 1111 l 365 1111 b 378 1099 372 1111 378 1106 l 378 1079 l 194 713 b 174 700 189 703 183 700 l 94 700 "},"⁸":{"ha":475,"x_min":0,"x_max":0,"o":"m 236 686 b 69 806 136 686 69 738 b 153 911 69 871 142 907 l 153 913 b 82 1010 125 924 82 956 b 236 1125 82 1081 151 1125 b 393 1010 324 1125 393 1081 b 321 913 393 957 349 924 l 321 911 b 406 806 354 901 406 868 b 236 686 406 738 339 686 m 238 953 b 282 996 265 956 282 975 b 236 1039 282 1018 263 1039 b 192 996 211 1039 192 1018 b 238 953 192 972 208 956 m 238 772 b 290 817 265 772 290 789 b 238 867 290 840 271 864 b 183 817 206 864 183 840 b 238 772 183 790 210 772 "},"⁹":{"ha":464,"x_min":0,"x_max":0,"o":"m 164 678 b 139 689 151 674 143 679 l 121 736 b 133 758 118 744 119 754 b 278 861 167 768 256 806 b 201 843 275 860 246 843 b 69 978 136 843 69 888 b 228 1122 69 1057 142 1122 b 394 950 333 1122 394 1047 b 164 678 394 768 214 693 m 228 919 b 290 961 258 919 283 944 b 228 1026 289 993 264 1026 b 172 974 197 1026 172 1003 b 228 919 172 943 197 919 "},"₀":{"ha":496,"x_min":0,"x_max":0,"o":"m 72 -3 b 249 217 72 135 133 217 b 422 -3 363 217 422 135 b 249 -222 422 -139 363 -222 b 72 -3 133 -222 72 -139 m 188 -3 b 249 -125 188 -82 210 -125 b 310 -3 286 -125 310 -82 b 249 119 310 76 286 119 b 188 -3 210 119 188 76 "},"₁":{"ha":335,"x_min":0,"x_max":0,"o":"m 69 122 b 79 138 69 129 72 132 l 182 203 l 253 203 b 265 190 260 203 265 197 l 265 -196 b 253 -208 265 -203 260 -208 l 167 -208 b 153 -196 158 -208 153 -203 l 153 72 l 85 67 b 72 79 78 67 72 71 "},"₂":{"ha":439,"x_min":0,"x_max":0,"o":"m 88 140 b 92 169 79 151 76 158 b 222 217 100 176 150 217 b 369 89 310 217 369 165 b 318 -31 369 47 350 8 l 243 -119 l 354 -119 b 367 -132 361 -119 367 -125 l 367 -196 b 354 -208 367 -203 363 -208 l 83 -208 b 69 -196 75 -208 69 -204 l 69 -172 l 222 3 b 257 72 246 29 257 53 b 201 121 257 100 235 121 b 140 93 176 121 151 106 b 118 97 132 88 125 88 "},"₃":{"ha":440,"x_min":0,"x_max":0,"o":"m 126 21 b 147 40 126 35 135 40 l 188 40 b 244 83 222 40 244 58 b 192 125 244 108 222 125 b 138 103 171 125 150 114 b 117 107 129 99 125 96 l 83 147 b 85 172 76 154 75 167 b 208 217 85 172 131 217 b 358 101 297 217 358 172 b 288 4 358 51 319 18 l 288 3 b 371 -103 319 -10 371 -42 b 208 -222 371 -179 297 -222 b 76 -176 129 -222 89 -187 b 75 -151 68 -168 68 -161 l 106 -111 b 129 -108 113 -101 121 -103 b 194 -131 131 -108 158 -131 b 253 -87 231 -131 253 -114 b 188 -42 253 -61 231 -42 l 147 -42 b 126 -22 133 -42 126 -37 l 126 21 "},"₄":{"ha":514,"x_min":0,"x_max":0,"o":"m 296 199 b 307 203 299 201 304 203 l 364 203 b 376 190 371 203 376 197 l 376 -46 l 432 -46 b 444 -57 439 -46 444 -51 l 444 -117 b 432 -129 444 -124 439 -129 l 376 -129 l 376 -196 b 364 -208 376 -203 371 -208 l 286 -208 b 272 -196 279 -208 272 -203 l 272 -129 l 82 -129 b 69 -118 75 -129 69 -124 l 69 -47 m 274 -47 l 274 68 l 171 -47 "},"₅":{"ha":453,"x_min":0,"x_max":0,"o":"m 86 190 b 99 203 86 197 92 203 l 321 203 b 333 190 328 203 333 197 l 333 129 b 321 117 333 122 328 117 l 178 117 l 178 63 l 226 63 b 385 -75 326 63 385 11 b 211 -222 385 -160 315 -222 b 78 -169 140 -222 94 -189 b 76 -149 71 -162 69 -157 l 114 -103 b 135 -100 121 -93 128 -93 b 214 -129 136 -101 167 -129 b 276 -76 246 -129 276 -107 b 210 -25 276 -46 251 -25 l 107 -25 b 86 -3 93 -25 86 -14 "},"₆":{"ha":464,"x_min":0,"x_max":0,"o":"m 69 -50 b 300 222 69 132 250 207 b 325 211 313 226 321 221 l 343 164 b 331 142 346 156 344 146 b 186 39 297 132 208 94 b 263 57 189 40 218 57 b 394 -78 328 57 394 13 b 236 -222 394 -157 322 -222 b 69 -50 131 -222 69 -147 m 174 -61 b 236 -126 175 -93 200 -126 b 292 -74 267 -126 292 -103 b 236 -19 292 -43 267 -19 b 174 -61 206 -19 181 -44 "},"₇":{"ha":447,"x_min":0,"x_max":0,"o":"m 89 114 b 75 125 82 114 75 119 l 75 190 b 89 203 75 197 82 203 l 365 203 b 378 190 372 203 378 197 l 378 171 l 194 -196 b 174 -208 189 -206 183 -208 l 94 -208 b 79 -197 85 -208 79 -206 l 79 -189 l 240 114 l 89 114 "},"₈":{"ha":475,"x_min":0,"x_max":0,"o":"m 69 -103 b 153 3 69 -37 142 -1 l 153 4 b 82 101 125 15 82 47 b 236 217 82 172 151 217 b 393 101 324 217 393 172 b 321 4 393 49 349 15 l 321 3 b 406 -103 354 -7 406 -40 b 236 -222 406 -171 339 -222 b 69 -103 136 -222 69 -171 m 192 88 b 238 44 192 64 208 47 b 282 88 265 47 282 67 b 236 131 282 110 263 131 b 192 88 211 131 192 110 m 183 -92 b 238 -136 183 -118 210 -136 b 290 -92 265 -136 290 -119 b 238 -42 290 -68 271 -44 b 183 -92 206 -44 183 -68 "},"₉":{"ha":464,"x_min":0,"x_max":0,"o":"m 69 69 b 228 214 69 149 142 214 b 394 42 333 214 394 139 b 164 -231 394 -140 214 -215 b 139 -219 151 -235 143 -229 l 121 -172 b 133 -150 118 -164 119 -154 b 278 -47 167 -140 256 -103 b 201 -65 275 -49 246 -65 b 69 69 136 -65 69 -21 m 172 65 b 228 11 172 35 197 11 b 290 53 258 11 283 36 b 228 118 289 85 264 118 b 172 65 197 118 172 94 "},"¦":{"ha":438,"x_min":0,"x_max":0,"o":"m 210 544 b 183 569 196 544 183 556 l 183 1029 b 210 1056 183 1044 196 1056 l 228 1056 b 253 1029 242 1056 253 1044 l 253 569 b 226 544 253 556 240 544 l 210 544 m 183 68 b 210 94 183 83 196 94 l 228 94 b 253 68 242 94 253 83 l 253 -392 b 226 -417 253 -406 240 -417 l 210 -417 b 183 -392 196 -417 183 -406 l 183 68 "}}}
